<svg id="Layer_1" data-name="Layer 1" xmlns="http://www.w3.org/2000/svg" viewBox="0 0 100 100">
  <defs>
    <style>
      .cls-1 {
        fill: #fff;
      }
    </style>
  </defs>
  <title>loaderArtboard 1</title>
  <g>
    <path class="cls-1" d="M20.07,48a29.86,29.86,0,0,1,7.35-17.75L18.22,21A42.83,42.83,0,0,0,7.05,48Z"/>
    <path class="cls-1" d="M52,7.05v13a29.86,29.86,0,0,1,17.75,7.35L79,18.22A42.83,42.83,0,0,0,52,7.05Z"/>
    <path class="cls-1" d="M30.25,27.43A29.86,29.86,0,0,1,48,20.07v-13A42.83,42.83,0,0,0,21,18.22Z"/>
    <path class="cls-1" d="M27.43,69.75A29.86,29.86,0,0,1,20.07,52h-13A42.83,42.83,0,0,0,18.22,79Z"/>
    <path class="cls-1" d="M72.57,30.25A29.86,29.86,0,0,1,79.93,48h13A42.83,42.83,0,0,0,81.78,21Z"/>
    <path class="cls-1" d="M48,79.93a29.86,29.86,0,0,1-17.75-7.35L21,81.78A42.83,42.83,0,0,0,48,92.95Z"/>
    <path class="cls-1" d="M79.93,52a29.86,29.86,0,0,1-7.35,17.75L81.78,79A42.83,42.83,0,0,0,92.95,52Z"/>
    <path class="cls-1" d="M69.75,72.57A29.86,29.86,0,0,1,52,79.93v13A42.83,42.83,0,0,0,79,81.78Z"/>
  </g>
</svg>
