<svg id="Layer_1" data-name="Layer 1" xmlns="http://www.w3.org/2000/svg" xmlns:xlink="http://www.w3.org/1999/xlink" width="475" height="318" viewBox="0 0 475 318">
  <defs>
    <style>
      .cls-1, .cls-4 {
        fill: none;
      }

      .cls-2 {
        clip-path: url(#clip-path);
      }

      .cls-3 {
        clip-path: url(#clip-path-2);
      }

      .cls-4 {
        stroke: #000;
        stroke-miterlimit: 10;
        stroke-width: 10px;
      }

      .cls-5 {
        clip-path: url(#clip-path-3);
      }

      .cls-6 {
        fill: #fff;
      }

      .cls-7 {
        fill: #fff040;
      }
    </style>
    <clipPath id="clip-path">
      <polyline class="cls-1" points="-491.22 166.25 -629.84 166.25 -629.84 32.62 -491.22 32.62"/>
    </clipPath>
    <clipPath id="clip-path-2">
      <polyline class="cls-1" points="-491.22 276.45 -629.84 276.45 -629.84 142.82 -491.22 142.82"/>
    </clipPath>
    <clipPath id="clip-path-3">
      <rect class="cls-1" x="-0.24" y="0.02" width="501.93" height="200.66"/>
    </clipPath>
  </defs>
  <title>site2-exp-02</title>
  <g>
    <g class="cls-2">
      <g>
        <g>
          <rect x="274.88" y="123.52" width="15.84" height="15.84" rx="7.47" ry="7.47"/>
          <rect x="249.58" y="123.52" width="15.84" height="15.84" rx="7.47" ry="7.47"/>
          <rect x="224.27" y="123.52" width="15.84" height="15.84" rx="7.47" ry="7.47"/>
          <rect x="198.97" y="123.52" width="15.84" height="15.84" rx="7.47" ry="7.47"/>
          <rect x="173.66" y="123.52" width="15.84" height="15.84" rx="7.47" ry="7.47"/>
          <rect x="148.36" y="123.52" width="15.84" height="15.84" rx="7.47" ry="7.47"/>
          <rect x="123.06" y="123.52" width="15.84" height="15.84" rx="7.47" ry="7.47"/>
          <rect x="97.75" y="123.52" width="15.84" height="15.84" rx="7.47" ry="7.47"/>
          <rect x="72.45" y="123.52" width="15.84" height="15.84" rx="7.47" ry="7.47"/>
          <rect x="47.14" y="123.52" width="15.84" height="15.84" rx="7.47" ry="7.47"/>
          <rect x="21.84" y="123.52" width="15.84" height="15.84" rx="7.47" ry="7.47"/>
          <rect x="-3.47" y="123.52" width="15.84" height="15.84" rx="7.47" ry="7.47"/>
        </g>
        <g>
          <rect x="274.88" y="100.82" width="15.84" height="15.84" rx="7.47" ry="7.47"/>
          <rect x="249.58" y="100.82" width="15.84" height="15.84" rx="7.47" ry="7.47"/>
          <rect x="224.27" y="100.82" width="15.84" height="15.84" rx="7.47" ry="7.47"/>
          <rect x="198.97" y="100.82" width="15.84" height="15.84" rx="7.47" ry="7.47"/>
          <rect x="173.66" y="100.82" width="15.84" height="15.84" rx="7.47" ry="7.47"/>
          <rect x="148.36" y="100.82" width="15.84" height="15.84" rx="7.47" ry="7.47"/>
          <rect x="123.06" y="100.82" width="15.84" height="15.84" rx="7.47" ry="7.47"/>
          <rect x="97.75" y="100.82" width="15.84" height="15.84" rx="7.47" ry="7.47"/>
          <rect x="72.45" y="100.82" width="15.84" height="15.84" rx="7.47" ry="7.47"/>
          <rect x="47.14" y="100.82" width="15.84" height="15.84" rx="7.47" ry="7.47"/>
          <rect x="21.84" y="100.82" width="15.84" height="15.84" rx="7.47" ry="7.47"/>
          <rect x="-3.47" y="100.82" width="15.84" height="15.84" rx="7.47" ry="7.47"/>
        </g>
        <g>
          <rect x="274.88" y="78.11" width="15.84" height="15.84" rx="7.47" ry="7.47"/>
          <rect x="249.58" y="78.11" width="15.84" height="15.84" rx="7.47" ry="7.47"/>
          <rect x="224.27" y="78.11" width="15.84" height="15.84" rx="7.47" ry="7.47"/>
          <rect x="198.97" y="78.11" width="15.84" height="15.84" rx="7.47" ry="7.47"/>
          <rect x="173.66" y="78.11" width="15.84" height="15.84" rx="7.47" ry="7.47"/>
          <rect x="148.36" y="78.11" width="15.84" height="15.84" rx="7.47" ry="7.47"/>
          <rect x="123.06" y="78.11" width="15.84" height="15.84" rx="7.47" ry="7.47"/>
          <rect x="97.75" y="78.11" width="15.84" height="15.84" rx="7.47" ry="7.47"/>
          <rect x="72.45" y="78.11" width="15.84" height="15.84" rx="7.47" ry="7.47"/>
          <rect x="47.14" y="78.11" width="15.84" height="15.84" rx="7.47" ry="7.47"/>
          <rect x="21.84" y="78.11" width="15.84" height="15.84" rx="7.47" ry="7.47"/>
          <rect x="-3.47" y="78.11" width="15.84" height="15.84" rx="7.47" ry="7.47"/>
        </g>
        <g>
          <rect x="274.88" y="55.4" width="15.84" height="15.84" rx="7.47" ry="7.47"/>
          <rect x="249.58" y="55.4" width="15.84" height="15.84" rx="7.47" ry="7.47"/>
          <rect x="224.27" y="55.4" width="15.84" height="15.84" rx="7.47" ry="7.47"/>
          <rect x="198.97" y="55.4" width="15.84" height="15.84" rx="7.47" ry="7.47"/>
          <rect x="173.66" y="55.4" width="15.84" height="15.84" rx="7.47" ry="7.47"/>
          <rect x="148.36" y="55.4" width="15.84" height="15.84" rx="7.47" ry="7.47"/>
          <rect x="123.06" y="55.4" width="15.84" height="15.84" rx="7.47" ry="7.47"/>
          <rect x="97.75" y="55.4" width="15.84" height="15.84" rx="7.47" ry="7.47"/>
          <rect x="72.45" y="55.4" width="15.84" height="15.84" rx="7.47" ry="7.47"/>
          <rect x="47.14" y="55.4" width="15.84" height="15.84" rx="7.47" ry="7.47"/>
          <rect x="21.84" y="55.4" width="15.84" height="15.84" rx="7.47" ry="7.47"/>
          <rect x="-3.47" y="55.4" width="15.84" height="15.84" rx="7.47" ry="7.47"/>
        </g>
      </g>
    </g>
    <g class="cls-3">
      <g>
        <g>
          <rect x="274.88" y="233.73" width="15.84" height="15.84" rx="7.47" ry="7.47"/>
          <rect x="249.58" y="233.73" width="15.84" height="15.84" rx="7.47" ry="7.47"/>
          <rect x="224.27" y="233.73" width="15.84" height="15.84" rx="7.47" ry="7.47"/>
          <rect x="198.97" y="233.73" width="15.84" height="15.84" rx="7.47" ry="7.47"/>
          <rect x="173.66" y="233.73" width="15.84" height="15.84" rx="7.47" ry="7.47"/>
          <rect x="148.36" y="233.73" width="15.84" height="15.84" rx="7.47" ry="7.47"/>
          <rect x="123.06" y="233.73" width="15.84" height="15.84" rx="7.47" ry="7.47"/>
          <rect x="97.75" y="233.73" width="15.84" height="15.84" rx="7.47" ry="7.47"/>
          <rect x="72.45" y="233.73" width="15.84" height="15.84" rx="7.47" ry="7.47"/>
          <rect x="47.14" y="233.73" width="15.84" height="15.84" rx="7.47" ry="7.47"/>
          <rect x="21.84" y="233.73" width="15.84" height="15.84" rx="7.47" ry="7.47"/>
          <rect x="-3.47" y="233.73" width="15.84" height="15.84" rx="7.47" ry="7.47"/>
        </g>
        <g>
          <rect x="274.88" y="211.02" width="15.84" height="15.84" rx="7.47" ry="7.47"/>
          <rect x="249.58" y="211.02" width="15.84" height="15.84" rx="7.47" ry="7.47"/>
          <rect x="224.27" y="211.02" width="15.84" height="15.84" rx="7.47" ry="7.47"/>
          <rect x="198.97" y="211.02" width="15.84" height="15.84" rx="7.47" ry="7.47"/>
          <rect x="173.66" y="211.02" width="15.84" height="15.84" rx="7.47" ry="7.47"/>
          <rect x="148.36" y="211.02" width="15.84" height="15.84" rx="7.47" ry="7.47"/>
          <rect x="123.06" y="211.02" width="15.84" height="15.84" rx="7.47" ry="7.47"/>
          <rect x="97.75" y="211.02" width="15.84" height="15.84" rx="7.47" ry="7.47"/>
          <rect x="72.45" y="211.02" width="15.84" height="15.84" rx="7.47" ry="7.47"/>
          <rect x="47.14" y="211.02" width="15.84" height="15.84" rx="7.47" ry="7.47"/>
          <rect x="21.84" y="211.02" width="15.84" height="15.84" rx="7.47" ry="7.47"/>
          <rect x="-3.47" y="211.02" width="15.84" height="15.84" rx="7.47" ry="7.47"/>
        </g>
        <g>
          <rect x="274.88" y="188.32" width="15.84" height="15.84" rx="7.47" ry="7.47"/>
          <rect x="249.58" y="188.32" width="15.84" height="15.84" rx="7.47" ry="7.47"/>
          <rect x="224.27" y="188.32" width="15.84" height="15.84" rx="7.47" ry="7.47"/>
          <rect x="198.97" y="188.32" width="15.84" height="15.84" rx="7.47" ry="7.47"/>
          <rect x="173.66" y="188.32" width="15.84" height="15.84" rx="7.47" ry="7.47"/>
          <rect x="148.36" y="188.32" width="15.84" height="15.84" rx="7.47" ry="7.47"/>
          <rect x="123.06" y="188.32" width="15.84" height="15.84" rx="7.47" ry="7.47"/>
          <rect x="97.75" y="188.32" width="15.84" height="15.84" rx="7.47" ry="7.47"/>
          <rect x="72.45" y="188.32" width="15.84" height="15.84" rx="7.47" ry="7.47"/>
          <rect x="47.14" y="188.32" width="15.84" height="15.84" rx="7.47" ry="7.47"/>
          <rect x="21.84" y="188.32" width="15.84" height="15.84" rx="7.47" ry="7.47"/>
          <rect x="-3.47" y="188.32" width="15.84" height="15.84" rx="7.47" ry="7.47"/>
        </g>
        <g>
          <rect x="274.88" y="165.61" width="15.84" height="15.84" rx="7.47" ry="7.47"/>
          <rect x="249.58" y="165.61" width="15.84" height="15.84" rx="7.47" ry="7.47"/>
          <rect x="224.27" y="165.61" width="15.84" height="15.84" rx="7.47" ry="7.47"/>
          <rect x="198.97" y="165.61" width="15.84" height="15.84" rx="7.47" ry="7.47"/>
          <rect x="173.66" y="165.61" width="15.84" height="15.84" rx="7.47" ry="7.47"/>
          <rect x="148.36" y="165.61" width="15.84" height="15.84" rx="7.47" ry="7.47"/>
          <rect x="123.06" y="165.61" width="15.84" height="15.84" rx="7.47" ry="7.47"/>
          <rect x="97.75" y="165.61" width="15.84" height="15.84" rx="7.47" ry="7.47"/>
          <rect x="72.45" y="165.61" width="15.84" height="15.84" rx="7.47" ry="7.47"/>
          <rect x="47.14" y="165.61" width="15.84" height="15.84" rx="7.47" ry="7.47"/>
          <rect x="21.84" y="165.61" width="15.84" height="15.84" rx="7.47" ry="7.47"/>
          <rect x="-3.47" y="165.61" width="15.84" height="15.84" rx="7.47" ry="7.47"/>
        </g>
      </g>
    </g>
  </g>
  <g>
    <rect class="cls-4" x="338.71" y="225.28" width="23.79" height="71.37" rx="11.9" ry="11.9"/>
    <rect class="cls-4" x="386.29" y="225.28" width="23.79" height="71.37" rx="11.9" ry="11.9"/>
  </g>
  <g class="cls-5">
    <g>
      <path class="cls-6" d="M467.83,51.3c0-73.41-59.72-133.13-133.13-133.13A133.16,133.16,0,0,0,204.56,23.23H192.07a7.31,7.31,0,0,0-7.31,7.31v3c-29.52-1.7-123.12-7.12-143.3-8.48-13.71-.92-21.83.79-27.15,5.72C8.69,36,8.09,43.22,8,50.2c0,.13,0,.26,0,.39V52c0,.13,0,.26,0,.39.07,7,.68,14.19,6.3,19.4,5.32,4.93,13.44,6.64,27.15,5.72,19-1.27,101.26-6.05,143.3-8.48v3a7.31,7.31,0,0,0,7.31,7.31h12.49A133.16,133.16,0,0,0,334.7,184.44C408.11,184.44,467.83,124.71,467.83,51.3Z"/>
      <g>
        <path d="M41,70.24C17.28,71.83,15.43,64.66,15.33,52h0c0-.24,0-.48,0-.72s0-.47,0-.71h0c.1-12.64,2-19.81,25.64-18.22,22.87,1.54,139.29,8.25,155.27,9.17V61.07C180.26,62,63.84,68.7,41,70.24Zm7.14-23.36a4.11,4.11,0,0,0-5.52-4.17L30.43,46.16c-3,.86-5.52,3.18-5.52,5.15s2.49,4.29,5.52,5.15L42.59,59.9a4.11,4.11,0,0,0,5.52-4.17Z"/>
        <rect class="cls-7" x="192.07" y="30.54" width="25.3" height="41.52"/>
        <circle cx="334.7" cy="51.3" r="125.82"/>
        <path class="cls-6" d="M400.17,148.44a124.37,124.37,0,0,1-51.91,11.3A125,125,0,0,1,226.57,6.16,117.18,117.18,0,0,0,334.7,168.47,116.55,116.55,0,0,0,400.17,148.44Z"/>
        <circle cx="334.7" cy="51.3" r="85.28"/>
        <circle class="cls-7" cx="334.7" cy="51.3" r="37.67"/>
      </g>
    </g>
  </g>
</svg>
