<svg id="Layer_1" data-name="Layer 1" xmlns="http://www.w3.org/2000/svg" width="89" height="133" viewBox="0 0 89 133">
  <defs>
    <style>
      .cls-1 {
        fill: #fff040;
      }
    </style>
  </defs>
  <title>site2-exp-37</title>
  <g>
    <path class="cls-1" d="M56.25,88.22A31.61,31.61,0,0,1,45,81.92l-1.55-1.3-1.55,1.21c-.09.09-6.39,5-13,7a61.92,61.92,0,0,1-14.25,1.9v5a64.69,64.69,0,0,0,15.72-2.16,47.49,47.49,0,0,0,13-6.65c3.2,2.5,5.79,4,11.14,6,6.65,2.42,14.86,2.76,18.05,2.85l.09-5C66.44,90.73,60.31,89.78,56.25,88.22Z"/>
    <rect class="cls-1" x="38.71" y="103.68" width="9.5" height="5.01"/>
    <path class="cls-1" d="M36.12,75.18A8.12,8.12,0,1,0,28,67.06,8.11,8.11,0,0,0,36.12,75.18Zm0-11.75a3.63,3.63,0,1,1-3.63,3.63A3.54,3.54,0,0,1,36.12,63.43Z"/>
    <path class="cls-1" d="M53.91,75.18a8.12,8.12,0,1,0-8.12-8.12A8.11,8.11,0,0,0,53.91,75.18Zm0-11.75a3.63,3.63,0,1,1-3.63,3.63A3.65,3.65,0,0,1,53.91,63.43Z"/>
    <path class="cls-1" d="M69.63,52.12V42A15.46,15.46,0,0,0,66,11.52a18.2,18.2,0,0,0-7.95,1.73A15.78,15.78,0,0,0,43.38,3.66H43.2a14.27,14.27,0,0,0-10.8,4.92,17.75,17.75,0,0,0-3.28,5,15.89,15.89,0,0,0-7.6-2.16,15.44,15.44,0,0,0-2.07,30.75v10a42.57,42.57,0,1,0,50.18-.09ZM11.16,26.81A10.43,10.43,0,0,1,21.61,16.36a12.29,12.29,0,0,1,7.26,2.94l3,2.5,1-3.8c.26-1,2.68-9.33,10.45-9.41h.09c7,0,10.19,5.7,11,9.07l1,4.15L58.49,19A11.21,11.21,0,0,1,66,16.53a10.47,10.47,0,0,1,1,20.9l-2.33.17V51H24.55V37.35H22A10.71,10.71,0,0,1,11.16,26.81Zm33.43,97.43A37.56,37.56,0,0,1,22.91,56H66.35a37.56,37.56,0,0,1-21.77,68.23Z"/>
  </g>
</svg>
