<svg xmlns="http://www.w3.org/2000/svg" width="150" height="260" viewBox="0 0 150 260">
  <title>pbl-flags</title>
  <polygon points="150 26 0 26 0 0 150 0 145.52 13.77 150 26" style="fill: #d72819"/>
  <polygon points="150 78 0 78 0 52 150 52 145.52 65.77 150 78" style="fill: #e17603"/>
  <polygon points="150 130 0 130 0 104 150 104 145.52 117.77 150 130" style="fill: #75af10"/>
  <polygon points="150 182 0 182 0 156 150 156 145.52 169.76 150 182" style="fill: #d0c5ff"/>
  <polygon points="150 234 0 234 0 208 150 208 145.52 221.76 150 234" style="fill: #f9bdbd"/>
</svg>
