<svg id="Group_2101" data-name="Group 2101" xmlns="http://www.w3.org/2000/svg" viewBox="-6851 -762 26 26">
  <defs>
    <style>
      .cls-1 {
        fill: none;
      }
    </style>
  </defs>
  <rect id="Rectangle_713" data-name="Rectangle 713" class="cls-1" width="26" height="26" transform="translate(-6851 -762)"/>
  <g id="loading" transform="translate(-6848 -759)">
    <g id="Group_2100" data-name="Group 2100">
      <path id="Path_2506" data-name="Path 2506" d="M31.784,0A.783.783,0,0,0,31,.784V6.112a.784.784,0,0,0,1.567,0V.784A.783.783,0,0,0,31.784,0Z" transform="translate(-21.284)"/>
      <path id="Path_2507" data-name="Path 2507" d="M31.784,45a.783.783,0,0,0-.784.784v5.328a.784.784,0,0,0,1.567,0V45.784A.783.783,0,0,0,31.784,45Z" transform="translate(-21.284 -30.896)"/>
      <path id="Path_2508" data-name="Path 2508" d="M6.9,31.9a.783.783,0,0,0-.784-.784H.784a.784.784,0,0,0,0,1.567H6.112A.783.783,0,0,0,6.9,31.9Z" transform="translate(0 -21.365)"/>
      <path id="Path_2509" data-name="Path 2509" d="M51.112,31.119H45.784a.784.784,0,1,0,0,1.567h5.328a.784.784,0,0,0,0-1.567Z" transform="translate(-30.896 -21.365)"/>
      <path id="Path_2510" data-name="Path 2510" d="M11.149,9.1A.783.783,0,1,0,10.041,10.2l3.768,3.768a.784.784,0,0,0,1.108-1.108Z" transform="translate(-6.736 -6.088)"/>
      <path id="Path_2511" data-name="Path 2511" d="M42.968,40.917a.783.783,0,1,0-1.108,1.108l3.768,3.768a.784.784,0,0,0,1.108-1.108Z" transform="translate(-28.582 -27.935)"/>
      <path id="Path_2512" data-name="Path 2512" d="M13.808,41.624l-3.767,3.767A.784.784,0,0,0,11.149,46.5l3.767-3.767a.784.784,0,0,0-1.108-1.108Z" transform="translate(-6.736 -28.42)"/>
      <path id="Path_2513" data-name="Path 2513" d="M41.86,14.68a.784.784,0,0,0,1.108,0l3.768-3.768A.783.783,0,1,0,45.629,9.8L41.86,13.572A.784.784,0,0,0,41.86,14.68Z" transform="translate(-28.582 -6.574)"/>
    </g>
  </g>
</svg>
