<svg width="156" height="96" viewBox="0 0 156 96" fill="none" xmlns="http://www.w3.org/2000/svg">
<path d="M29.1199 12.9809C29.3587 13.7623 29.5892 14.5437 29.8279 15.3333C30.4124 15.2675 31.0546 15.2017 31.6967 15.1195C32.0096 15.0783 32.166 15.177 32.1989 15.5225C32.2648 16.1723 32.3718 16.8139 32.4706 17.5048C33.2744 17.2642 34.4052 16.8468 35.4755 17.0935C35.1791 18.2944 34.6604 19.3308 33.8701 20.2109C29.4036 25.2284 18.7822 24.9865 16.2744 18.0394C21.1764 20.2412 26.5373 17.2817 28.947 12.948C29.0129 12.9644 29.0623 12.9727 29.1199 12.9809Z" fill="white"/>
<path d="M34.7922 9.76416C35.0227 9.76416 35.3438 9.76416 35.7142 9.76416C35.6731 10.6607 35.5331 11.5161 35.0556 12.2564C34.8251 12.6183 34.8498 12.8322 35.0968 13.1694C35.7142 14.0166 35.7966 14.9954 35.6813 16.0071C34.9157 16.0071 34.1912 16.0071 33.4256 16.0071C33.3515 15.711 33.5107 15.2767 33.0512 14.599C32.5916 13.9213 31.6931 13.8497 30.6594 14.0495C30.4372 13.4984 30.1902 12.8815 29.9021 12.1659C30.8034 11.7113 32.2452 11.4248 33.5038 11.9922C33.7673 12.1156 34.0541 11.9087 34.1282 11.7113C34.3752 11.0697 34.537 10.5044 34.7922 9.76416Z" fill="white"/>
<path d="M15.7832 36.2773C15.7832 36.0234 15.6777 35.8301 15.4668 35.6973C15.2598 35.5645 14.9141 35.4473 14.4297 35.3457C13.9453 35.2441 13.541 35.1152 13.2168 34.959C12.5059 34.6152 12.1504 34.1172 12.1504 33.4648C12.1504 32.918 12.3809 32.4609 12.8418 32.0938C13.3027 31.7266 13.8887 31.543 14.5996 31.543C15.3574 31.543 15.9688 31.7305 16.4336 32.1055C16.9023 32.4805 17.1367 32.9668 17.1367 33.5645H15.7129C15.7129 33.291 15.6113 33.0645 15.4082 32.8848C15.2051 32.7012 14.9355 32.6094 14.5996 32.6094C14.2871 32.6094 14.0312 32.6816 13.832 32.8262C13.6367 32.9707 13.5391 33.1641 13.5391 33.4062C13.5391 33.625 13.6309 33.7949 13.8145 33.916C13.998 34.0371 14.3691 34.1602 14.9277 34.2852C15.4863 34.4062 15.9238 34.5527 16.2402 34.7246C16.5605 34.8926 16.7969 35.0957 16.9492 35.334C17.1055 35.5723 17.1836 35.8613 17.1836 36.2012C17.1836 36.7715 16.9473 37.2344 16.4746 37.5898C16.002 37.9414 15.3828 38.1172 14.6172 38.1172C14.0977 38.1172 13.6348 38.0234 13.2285 37.8359C12.8223 37.6484 12.5059 37.3906 12.2793 37.0625C12.0527 36.7344 11.9395 36.3809 11.9395 36.002H13.3223C13.3418 36.3379 13.4688 36.5977 13.7031 36.7812C13.9375 36.9609 14.248 37.0508 14.6348 37.0508C15.0098 37.0508 15.2949 36.9805 15.4902 36.8398C15.6855 36.6953 15.7832 36.5078 15.7832 36.2773ZM23.9805 34.8945C23.9805 35.875 23.7578 36.6582 23.3125 37.2441C22.8672 37.8262 22.2695 38.1172 21.5195 38.1172C20.8242 38.1172 20.2676 37.8887 19.8496 37.4316V40.4375H18.4258V31.6602H19.7383L19.7969 32.3047C20.2148 31.7969 20.7832 31.543 21.502 31.543C22.2754 31.543 22.8809 31.832 23.3184 32.4102C23.7598 32.9844 23.9805 33.7832 23.9805 34.8066V34.8945ZM22.5625 34.7715C22.5625 34.1387 22.4355 33.6367 22.1816 33.2656C21.9316 32.8945 21.5723 32.709 21.1035 32.709C20.5215 32.709 20.1035 32.9492 19.8496 33.4297V36.2422C20.1074 36.7344 20.5293 36.9805 21.1152 36.9805C21.5684 36.9805 21.9219 36.7988 22.1758 36.4355C22.4336 36.0684 22.5625 35.5137 22.5625 34.7715ZM26.7051 38H25.2812V31.6602H26.7051V38ZM25.1934 30.0137C25.1934 29.7949 25.2617 29.6133 25.3984 29.4688C25.5391 29.3242 25.7383 29.252 25.9961 29.252C26.2539 29.252 26.4531 29.3242 26.5938 29.4688C26.7344 29.6133 26.8047 29.7949 26.8047 30.0137C26.8047 30.2285 26.7344 30.4082 26.5938 30.5527C26.4531 30.6934 26.2539 30.7637 25.9961 30.7637C25.7383 30.7637 25.5391 30.6934 25.3984 30.5527C25.2617 30.4082 25.1934 30.2285 25.1934 30.0137ZM30.8652 36.9805C31.2207 36.9805 31.5156 36.877 31.75 36.6699C31.9844 36.4629 32.1094 36.207 32.125 35.9023H33.4668C33.4512 36.2969 33.3281 36.666 33.0977 37.0098C32.8672 37.3496 32.5547 37.6191 32.1602 37.8184C31.7656 38.0176 31.3398 38.1172 30.8828 38.1172C29.9961 38.1172 29.293 37.8301 28.7734 37.2559C28.2539 36.6816 27.9941 35.8887 27.9941 34.877V34.7305C27.9941 33.7656 28.252 32.9941 28.7676 32.416C29.2832 31.834 29.9863 31.543 30.877 31.543C31.6309 31.543 32.2441 31.7637 32.7168 32.2051C33.1934 32.6426 33.4434 33.2188 33.4668 33.9336H32.125C32.1094 33.5703 31.9844 33.2715 31.75 33.0371C31.5195 32.8027 31.2246 32.6855 30.8652 32.6855C30.4043 32.6855 30.0488 32.8535 29.7988 33.1895C29.5488 33.5215 29.4219 34.0273 29.418 34.707V34.9355C29.418 35.623 29.541 36.1367 29.7871 36.4766C30.0371 36.8125 30.3965 36.9805 30.8652 36.9805ZM36.7598 35.9609L38.0488 31.6602H39.5664L37.0469 38.9609C36.6602 40.0273 36.0039 40.5605 35.0781 40.5605C34.8711 40.5605 34.6426 40.5254 34.3926 40.4551V39.3535L34.6621 39.3711C35.0215 39.3711 35.291 39.3047 35.4707 39.1719C35.6543 39.043 35.7988 38.8242 35.9043 38.5156L36.1094 37.9707L33.8828 31.6602H35.418L36.7598 35.9609Z" fill="white"/>
<path d="M73.1328 32.3516C73.5977 31.8125 74.1855 31.543 74.8965 31.543C76.248 31.543 76.9336 32.3145 76.9531 33.8574V38H75.5293V33.9102C75.5293 33.4727 75.4336 33.1641 75.2422 32.9844C75.0547 32.8008 74.7773 32.709 74.4102 32.709C73.8398 32.709 73.4141 32.9629 73.1328 33.4707V38H71.709V29H73.1328V32.3516ZM79.9121 38H78.4883V31.6602H79.9121V38ZM78.4004 30.0137C78.4004 29.7949 78.4688 29.6133 78.6055 29.4688C78.7461 29.3242 78.9453 29.252 79.2031 29.252C79.4609 29.252 79.6602 29.3242 79.8008 29.4688C79.9414 29.6133 80.0117 29.7949 80.0117 30.0137C80.0117 30.2285 79.9414 30.4082 79.8008 30.5527C79.6602 30.6934 79.4609 30.7637 79.2031 30.7637C78.9453 30.7637 78.7461 30.6934 78.6055 30.5527C78.4688 30.4082 78.4004 30.2285 78.4004 30.0137ZM83.252 30.1191V31.6602H84.3711V32.7148H83.252V36.2539C83.252 36.4961 83.2988 36.6719 83.3926 36.7812C83.4902 36.8867 83.6621 36.9395 83.9082 36.9395C84.0723 36.9395 84.2383 36.9199 84.4062 36.8809V37.9824C84.082 38.0723 83.7695 38.1172 83.4688 38.1172C82.375 38.1172 81.8281 37.5137 81.8281 36.3066V32.7148H80.7852V31.6602H81.8281V30.1191H83.252Z" fill="white"/>
<path d="M80.6041 14.2904C81.4374 14.3327 82.2494 14.3608 83.0474 14.4312C83.8948 14.5016 84.7563 14.5439 85.5825 14.7269C86.6418 14.9593 87.1502 16.1773 86.3805 17.1066C86.324 17.177 86.2816 17.3249 86.3169 17.3953C86.6488 18.1697 86.557 18.7189 85.9497 19.3384C86.3593 20.0636 86.2746 20.7254 85.6814 21.3309C85.632 21.3802 85.632 21.521 85.6531 21.5984C85.8438 22.3025 85.6037 22.9572 84.9187 23.2107C84.3326 23.429 83.69 23.612 83.0686 23.6261C80.8371 23.6754 78.5986 23.6472 76.3601 23.6472C75.5409 23.6472 74.9054 23.0065 74.9054 22.1828C74.9054 20.1059 74.8983 18.0289 74.9125 15.952C74.9195 15.3465 75.1384 14.8607 75.7528 14.5932C76.4166 14.3045 76.8473 13.7272 77.3275 13.2132C77.3769 13.164 77.4052 13.0936 77.4617 13.0513C78.5421 12.1642 79.0011 10.9181 79.446 9.66485C79.6932 8.96785 80.0886 8.79183 80.823 9.01009C81.2396 9.13682 81.3385 9.49588 81.4162 9.87607C81.5998 10.8124 81.3456 11.6995 81.1055 12.5796C80.9289 13.1358 80.7736 13.692 80.6041 14.2904Z" fill="white"/>
<path d="M73.7684 19.1131C73.7684 20.2467 73.7684 21.3872 73.7684 22.5207C73.7684 23.1473 73.3024 23.6331 72.6739 23.6472C71.8971 23.6613 71.1203 23.6613 70.3436 23.6472C69.7292 23.6331 69.249 23.1262 69.249 22.5137C69.249 20.2396 69.249 17.9655 69.249 15.6915C69.249 15.086 69.7292 14.5791 70.3506 14.565C71.1274 14.5509 71.9042 14.5509 72.681 14.565C73.3306 14.5791 73.7967 15.1775 73.7826 15.6985C73.7543 16.8391 73.7755 17.9726 73.7684 19.1131Z" fill="white"/>
<path d="M122.965 36.1953L124.307 31.6602H125.777L123.58 38H122.344L120.129 31.6602H121.605L122.965 36.1953ZM129.381 38.1172C128.479 38.1172 127.746 37.834 127.184 37.2676C126.625 36.6973 126.346 35.9395 126.346 34.9941V34.8184C126.346 34.1855 126.467 33.6211 126.709 33.125C126.955 32.625 127.299 32.2363 127.74 31.959C128.182 31.6816 128.674 31.543 129.217 31.543C130.08 31.543 130.746 31.8184 131.215 32.3691C131.688 32.9199 131.924 33.6992 131.924 34.707V35.2812H127.781C127.824 35.8047 127.998 36.2188 128.303 36.5234C128.611 36.8281 128.998 36.9805 129.463 36.9805C130.115 36.9805 130.646 36.7168 131.057 36.1895L131.824 36.9219C131.57 37.3008 131.23 37.5957 130.805 37.8066C130.383 38.0137 129.908 38.1172 129.381 38.1172ZM129.211 32.6855C128.82 32.6855 128.504 32.8223 128.262 33.0957C128.023 33.3691 127.871 33.75 127.805 34.2383H130.518V34.1328C130.486 33.6562 130.359 33.2969 130.137 33.0547C129.914 32.8086 129.605 32.6855 129.211 32.6855ZM132.785 34.7832C132.785 33.7988 133.016 33.0137 133.477 32.4277C133.941 31.8379 134.557 31.543 135.322 31.543C136.045 31.543 136.613 31.7949 137.027 32.2988L137.092 31.6602H138.375V37.8066C138.375 38.6387 138.115 39.2949 137.596 39.7754C137.08 40.2559 136.383 40.4961 135.504 40.4961C135.039 40.4961 134.584 40.3984 134.139 40.2031C133.697 40.0117 133.361 39.7598 133.131 39.4473L133.805 38.5918C134.242 39.1113 134.781 39.3711 135.422 39.3711C135.895 39.3711 136.268 39.2422 136.541 38.9844C136.814 38.7305 136.951 38.3555 136.951 37.8594V37.4316C136.541 37.8887 135.994 38.1172 135.311 38.1172C134.568 38.1172 133.961 37.8223 133.488 37.2324C133.02 36.6426 132.785 35.8262 132.785 34.7832ZM134.203 34.9062C134.203 35.543 134.332 36.0449 134.59 36.4121C134.852 36.7754 135.213 36.957 135.674 36.957C136.248 36.957 136.674 36.7109 136.951 36.2188V33.4297C136.682 32.9492 136.26 32.709 135.686 32.709C135.217 32.709 134.852 32.8945 134.59 33.2656C134.332 33.6367 134.203 34.1836 134.203 34.9062Z" fill="white"/>
<path d="M126.4 16.2464L132.627 22.4739C132.656 21.9213 132.681 20.7018 132.471 19.2406C132.094 16.6071 131.122 14.4434 129.663 12.9836C128.203 11.5238 126.039 10.5525 123.406 10.1749C121.446 9.89392 119.92 10.0343 119.856 10.0405C119.543 10.0705 119.295 10.3186 119.265 10.6321C119.259 10.696 119.118 12.2218 119.399 14.1814C119.777 16.8149 120.748 18.9786 122.208 20.4383C123.668 21.8982 125.831 22.8694 128.465 23.247C129.435 23.3861 130.298 23.4219 130.931 23.4219C131.251 23.4219 131.512 23.4127 131.698 23.403L125.471 17.1756C125.214 16.919 125.214 16.503 125.471 16.2464C125.727 15.9898 126.143 15.9898 126.4 16.2464Z" fill="white"/>
<path d="M140.747 14.5982C140.717 14.2847 140.468 14.0366 140.155 14.0066C139.979 13.9898 135.826 13.6234 133.407 16.0421C133.313 16.1363 133.223 16.2332 133.137 16.3324C133.42 17.1791 133.634 18.0892 133.772 19.0541C133.816 19.3631 133.851 19.6613 133.878 19.9463L135.594 18.2294C135.851 17.9729 136.267 17.9729 136.524 18.2294C136.78 18.486 136.78 18.902 136.524 19.1587L133.961 21.7214C133.96 22.3912 133.922 22.8279 133.914 22.915C133.899 23.0692 133.866 23.2181 133.818 23.3599C135.278 23.2249 137.293 22.7645 138.711 21.346C141.13 18.9274 140.763 14.7739 140.747 14.5982Z" fill="white"/>
<path d="M77.7143 75.7429L76.8858 76.3029C77.0679 76.5724 77.3698 76.7365 77.6951 76.7427C78.0203 76.749 78.3283 76.5966 78.5207 76.3343L77.7143 75.7429ZM72.4858 69.7927L76.8858 76.3029L78.5428 75.1829L74.1428 68.6727L72.4858 69.7927ZM78.5207 76.3343L85.435 66.9057L83.8222 65.723L76.9079 75.1515L78.5207 76.3343Z" fill="white"/>
<circle cx="78.5" cy="71.5" r="15.5" stroke="white" stroke-width="2"/>
<path d="M129.4 75.7429L128.571 76.3029C128.754 76.5724 129.056 76.7365 129.381 76.7427C129.706 76.749 130.014 76.5966 130.206 76.3343L129.4 75.7429ZM124.171 69.7927L128.571 76.3029L130.229 75.1829L125.829 68.6727L124.171 69.7927ZM130.206 76.3343L137.121 66.9057L135.508 65.723L128.594 75.1515L130.206 76.3343Z" fill="white"/>
<circle cx="130.5" cy="71.5" r="15.5" stroke="white" stroke-width="2"/>
<path d="M25.7143 75.7429L24.8858 76.3029C25.0679 76.5724 25.3698 76.7365 25.6951 76.7427C26.0203 76.749 26.3283 76.5966 26.5207 76.3343L25.7143 75.7429ZM20.4858 69.7927L24.8858 76.3029L26.5428 75.1829L22.1428 68.6727L20.4858 69.7927ZM26.5207 76.3343L33.435 66.9057L31.8222 65.723L24.9079 75.1515L26.5207 76.3343Z" fill="white"/>
<circle cx="26.5" cy="71.5" r="15.5" stroke="white" stroke-width="2"/>
</svg>
