<svg id="Layer_1" data-name="Layer 1" xmlns="http://www.w3.org/2000/svg" width="366" height="122" viewBox="0 0 366 122">
  <defs>
    <style>
      .cls-1 {
        fill: #fff040;
      }
    </style>
  </defs>
  <title>site2-exp-10</title>
  <g>
    <g>
      <path class="cls-1" d="M59,89.59A106.48,106.48,0,0,1,25.48,84.3a3.63,3.63,0,0,1-2.56-4,3.77,3.77,0,0,1,3.85-3.14H91.31a3.77,3.77,0,0,1,3.85,3.14,3.63,3.63,0,0,1-2.56,4A106.48,106.48,0,0,1,59,89.59ZM26.77,80.53c-.38,0-.46.17-.48.27s0,.16.26.26A103.06,103.06,0,0,0,59,86.18a103.06,103.06,0,0,0,32.49-5.12c.29-.1.27-.2.26-.26s-.1-.27-.48-.27Z"/>
      <path class="cls-1" d="M74.58,75.79h-32l-.37-.2c-9.36-4.92-15-13.47-15-22.89,0-2.12.46-16.07,1.6-19l.42-1.09H87.83a13.63,13.63,0,0,1,.94,27.23A27.82,27.82,0,0,1,75,75.59ZM43.47,72.37H73.73c6.14-3.34,10.54-8.65,12.1-14.64l.34-1.3,1.35,0h.22a10.22,10.22,0,1,0,0-20.44c-.3,0-.59,0-.88,0l-1.32.11L85.5,36H31.81a155.52,155.52,0,0,0-1.1,16.67C30.71,60.7,35.47,68,43.47,72.37ZM86.25,55l.09-2.14c0-.2,0-.41,0-.62,0-1.78-.21-8.33-.61-12.91l-.16-1.77,1.78-.08.33,0c4.35,0,7.88,3.91,7.88,8.72,0,4.62-3.27,8.44-7.45,8.7Zm3.07-13.76c.24,3.48.38,7.41.43,9.66a5.48,5.48,0,0,0,2.42-4.71A5.37,5.37,0,0,0,89.32,41.28Z"/>
    </g>
    <rect class="cls-1" x="29.15" y="47.23" width="57.61" height="3.41"/>
    <rect class="cls-1" x="29.15" y="56.48" width="57.61" height="3.41"/>
  </g>
  <g>
    <path class="cls-1" d="M214.26,89H151.8a4.74,4.74,0,0,1-4.74-4.74V42.51a4.74,4.74,0,0,1,4.74-4.74h13.66a1.25,1.25,0,0,0,1.25-1.25V31.45a4.74,4.74,0,0,1,4.74-4.74h23.17a4.74,4.74,0,0,1,4.74,4.74v5.07a1.25,1.25,0,0,0,1.25,1.25h13.66A4.74,4.74,0,0,1,219,42.51V84.23A4.74,4.74,0,0,1,214.26,89ZM151.8,41.26a1.25,1.25,0,0,0-1.25,1.25V84.23a1.25,1.25,0,0,0,1.25,1.25h62.46a1.25,1.25,0,0,0,1.25-1.25V42.51a1.25,1.25,0,0,0-1.25-1.25H200.61a4.74,4.74,0,0,1-4.74-4.74V31.45a1.25,1.25,0,0,0-1.25-1.25H171.45a1.25,1.25,0,0,0-1.25,1.25v5.07a4.74,4.74,0,0,1-4.74,4.74Z"/>
    <path class="cls-1" d="M183,82.34A18.31,18.31,0,1,1,201.34,64,18.33,18.33,0,0,1,183,82.34Zm0-33.13A14.82,14.82,0,1,0,197.85,64,14.84,14.84,0,0,0,183,49.21Z"/>
    <path class="cls-1" d="M189.31,41.57H176.75a4,4,0,0,1-4-4v-.7a4,4,0,0,1,4-4h12.56a4,4,0,0,1,4,4v.7A4,4,0,0,1,189.31,41.57Zm-12.56-5.14a.48.48,0,0,0-.48.48v.7a.48.48,0,0,0,.48.48h12.56a.48.48,0,0,0,.48-.48v-.7a.48.48,0,0,0-.48-.48Z"/>
  </g>
  <g>
    <circle class="cls-1" cx="303.12" cy="88.59" r="5.08"/>
    <circle class="cls-1" cx="320.44" cy="88.59" r="5.08"/>
    <path class="cls-1" d="M338.86,72.54H285.48a1.81,1.81,0,0,1-1.74-1.3L274,38.15l.87-.26H251.57V34.27h87.29a1.81,1.81,0,0,1,1.81,1.81V70.73A1.81,1.81,0,0,1,338.86,72.54Zm-52-3.62H337v-31H277.67Z"/>
  </g>
</svg>
