<svg xmlns="http://www.w3.org/2000/svg" xmlns:xlink="http://www.w3.org/1999/xlink" width="480.5" height="38" viewBox="0 0 480.5 38">
  <defs>
    <clipPath id="a">
      <rect width="480.5" height="38" style="fill: none"/>
    </clipPath>
  </defs>
  <title>adm-loader-02Artboard 1</title>
  <g style="clip-path: url(#a)">
    <g>
      <path d="M-15.16,21.08-11.07,17A16,16,0,0,1,11.6,17l4,4a16,16,0,0,0,22.67,0" style="fill: #fff;stroke: #fd0;stroke-miterlimit: 10;stroke-width: 3px"/>
      <path d="M38.28,21.08,42.36,17A16,16,0,0,1,65,17l4,4a16,16,0,0,0,22.67,0" style="fill: #fff;stroke: #fd0;stroke-miterlimit: 10;stroke-width: 3px"/>
      <path d="M91.72,21.08,95.8,17a16,16,0,0,1,22.67,0l4,4a16,16,0,0,0,22.67,0" style="fill: #fff;stroke: #fd0;stroke-miterlimit: 10;stroke-width: 3px"/>
      <path d="M145.16,21.08,149.24,17a16,16,0,0,1,22.67,0l4,4a16,16,0,0,0,22.67,0" style="fill: #fff;stroke: #fd0;stroke-miterlimit: 10;stroke-width: 3px"/>
      <path d="M198.6,21.08,202.68,17a16,16,0,0,1,22.67,0l4,4A16,16,0,0,0,252,21" style="fill: #fff;stroke: #fd0;stroke-miterlimit: 10;stroke-width: 3px"/>
      <path d="M252,21.08,256.12,17a16,16,0,0,1,22.67,0l4,4a16,16,0,0,0,22.67,0" style="fill: #fff;stroke: #fd0;stroke-miterlimit: 10;stroke-width: 3px"/>
      <path d="M305.48,21.08,309.56,17a16,16,0,0,1,22.67,0l4,4a16,16,0,0,0,22.67,0" style="fill: #fff;stroke: #fd0;stroke-miterlimit: 10;stroke-width: 3px"/>
      <path d="M358.92,21.08,363,17a16,16,0,0,1,22.67,0l4,4a16,16,0,0,0,22.67,0" style="fill: #fff;stroke: #fd0;stroke-miterlimit: 10;stroke-width: 3px"/>
      <path d="M412.36,21.08,416.44,17a16,16,0,0,1,22.67,0l4,4a16,16,0,0,0,22.67,0" style="fill: #fff;stroke: #fd0;stroke-miterlimit: 10;stroke-width: 3px"/>
      <path d="M465.8,21.08,469.88,17a16,16,0,0,1,22.67,0l4,4a16,16,0,0,0,22.67,0" style="fill: #fff;stroke: #fd0;stroke-miterlimit: 10;stroke-width: 3px"/>
    </g>
  </g>
</svg>
