<svg xmlns="http://www.w3.org/2000/svg" viewBox="0 0 52 52"><defs><style>.cls-1{fill:none;}</style></defs><title>item_no_photo</title><g id="Layer_2" data-name="Layer 2"><g id="Layer_1-2" data-name="Layer 1"><path d="M43.4,29.6h-6a.6.6,0,0,0,0,1.2h5.4v6.6A1.8,1.8,0,0,1,41,39.2H11a1.8,1.8,0,0,1-1.8-1.8V30.8h5.4a.6.6,0,1,0,0-1.2h-6a.6.6,0,0,0-.6.6v7.2a3,3,0,0,0,3,3H41a3,3,0,0,0,3-3V30.2A.6.6,0,0,0,43.4,29.6Z"/><path d="M12.28,11.94a.6.6,0,1,0,1-.6l-1.2-2.08a.6.6,0,0,0-1,.6Z"/><path d="M17.3,12.16a.6.6,0,0,0,.82-.22l1.2-2.08a.6.6,0,0,0-1-.6l-1.2,2.08A.6.6,0,0,0,17.3,12.16Z"/><path d="M15.2,11.6a.6.6,0,0,0,.6-.6V8.6a.6.6,0,1,0-1.2,0V11A.6.6,0,0,0,15.2,11.6Z"/><path d="M29.13,20.71A7.2,7.2,0,1,0,33.2,27.2,7.32,7.32,0,0,0,33.1,26a.6.6,0,0,0-1.18.2,6,6,0,1,1-5.92-5,6,6,0,0,1,2.61.6.6.6,0,0,0,.52-1.08Z"/><path d="M16.4,27.2a9.6,9.6,0,0,0,18.65,3.2.6.6,0,0,0-1.13-.4A8.4,8.4,0,1,1,31,20.48a.6.6,0,1,0,.72-1A9.6,9.6,0,0,0,16.4,27.2Z"/><path d="M32.6,14H24.2a.6.6,0,0,0,0,1.2h8.4a.6.6,0,0,0,0-1.2Z"/><path d="M26,23.6a.6.6,0,1,0,0,1.2,2.4,2.4,0,0,1,2.4,2.4.6.6,0,1,0,1.2,0A3.6,3.6,0,0,0,26,23.6Z"/><path d="M41,15.2H37.4a1.63,1.63,0,0,1-1.26-.87l-.59-1.19A2.34,2.34,0,0,0,33.2,11.6H23.6a2.27,2.27,0,0,0-2.34,1.53l-.6,1.2a1.63,1.63,0,0,1-1.26.87H17.6v-.6A.6.6,0,0,0,17,14H13.4a.6.6,0,0,0-.6.6v.6H11a3,3,0,0,0-3,3v9.6a.6.6,0,0,0,1.2,0V18.2A1.8,1.8,0,0,1,11,16.4h2.4a.6.6,0,0,0,.6-.6v-.6h2.4v.6a.6.6,0,0,0,.6.6h2.4a2.82,2.82,0,0,0,2.34-1.53l.61-1.22c.32-.72.6-.85,1.25-.85h9.6c.59,0,.91.12,1.26.87l.6,1.2A2.82,2.82,0,0,0,37.4,16.4H41a1.8,1.8,0,0,1,1.8,1.8v9.6a.6.6,0,0,0,1.2,0V18.2A3,3,0,0,0,41,15.2Z"/><path d="M34.43,28a.6.6,0,0,0,1.14,0l1.11-3.32L40,23.57a.6.6,0,0,0,0-1.14l-3.32-1.11L35.57,18a.6.6,0,0,0-1.14,0l-1.11,3.32L30,22.43a.6.6,0,0,0,0,1.14l3.32,1.11ZM34,22.37a.6.6,0,0,0,.38-.38L35,20.1,35.63,22a.6.6,0,0,0,.38.38L37.9,23,36,23.63a.6.6,0,0,0-.38.38L35,25.9,34.37,24a.6.6,0,0,0-.38-.38L32.1,23Z"/><rect class="cls-1" width="52" height="52"/><rect class="cls-1" x="6" y="6" width="40" height="40"/><rect class="cls-1" x="10" y="10" width="32" height="32"/></g></g></svg>