<svg id="Layer_1" data-name="Layer 1" xmlns="http://www.w3.org/2000/svg" width="168" height="269.75" viewBox="0 0 168 269.75">
  <title>logo-Artboard 1</title>
  <g>
    <path d="M132.28,5.62H35.72A26.79,26.79,0,0,0,8.91,32.43V237.31a26.79,26.79,0,0,0,26.81,26.81h96.56a26.79,26.79,0,0,0,26.81-26.81V32.43A26.79,26.79,0,0,0,132.28,5.62Zm17,232.31a16.93,16.93,0,0,1-16.91,16.91H35.67a16.93,16.93,0,0,1-16.91-16.91V31.82A16.93,16.93,0,0,1,35.67,14.9h96.65a16.93,16.93,0,0,1,16.91,16.91Z"/>
    <path d="M99,27.78H69a8.38,8.38,0,0,1-8.38-8.38V5.62h46.78V19.4A8.38,8.38,0,0,1,99,27.78Z"/>
    <path d="M83.27,184.12c-17.37,0-34-9.19-45-25l6.06-4.22c15,21.63,35.59,22.12,41.52,21.76,17.39-1.06,29.27-8.2,35.3-21.21l6.7,3.11c-7.26,15.66-21.24,24.23-41.55,25.47Q84.76,184.12,83.27,184.12Z"/>
    <g>
      <rect x="66.23" y="87.58" width="12.48" height="37.44"/>
      <rect x="91.19" y="87.58" width="12.48" height="37.44"/>
    </g>
  </g>
</svg>
