<svg width="156" height="104" viewBox="0 0 156 104" fill="none" xmlns="http://www.w3.org/2000/svg">
<path d="M29.1199 22.2167C29.3587 22.9981 29.5892 23.7795 29.8279 24.5692C30.4124 24.5034 31.0546 24.4376 31.6967 24.3553C32.0096 24.3142 32.166 24.4129 32.1989 24.7583C32.2648 25.4081 32.3718 26.0497 32.4706 26.7406C33.2744 26.5 34.4052 26.0826 35.4755 26.3294C35.1791 27.5302 34.6604 28.5666 33.8701 29.4467C29.4036 34.4643 18.7822 34.2223 16.2744 27.2753C21.1764 29.477 26.5373 26.5176 28.947 22.1838C29.0129 22.2003 29.0623 22.2085 29.1199 22.2167Z" fill="white"/>
<path d="M34.7922 19C35.0227 19 35.3438 19 35.7143 19C35.6731 19.8965 35.5331 20.752 35.0557 21.4922C34.8251 21.8542 34.8498 22.068 35.0968 22.4052C35.7143 23.2524 35.7966 24.2312 35.6813 25.2429C34.9157 25.2429 34.1912 25.2429 33.4256 25.2429C33.3515 24.9468 33.5107 24.5125 33.0512 23.8348C32.5916 23.1572 31.6932 23.0856 30.6595 23.2853C30.4372 22.7343 30.1902 22.1174 29.9021 21.4018C30.8034 20.9471 32.2452 20.6607 33.5039 21.2281C33.7673 21.3514 34.0541 21.1445 34.1282 20.9471C34.3752 20.3055 34.537 19.7403 34.7922 19Z" fill="white"/>
<path d="M29.1199 74.2167C29.3587 74.9981 29.5892 75.7795 29.8279 76.5692C30.4124 76.5034 31.0546 76.4376 31.6967 76.3553C32.0096 76.3142 32.166 76.4129 32.1989 76.7583C32.2648 77.4081 32.3718 78.0497 32.4706 78.7406C33.2744 78.5 34.4052 78.0826 35.4755 78.3294C35.1791 79.5302 34.6604 80.5666 33.8701 81.4467C29.4036 86.4643 18.7822 86.2223 16.2744 79.2753C21.1764 81.477 26.5373 78.5176 28.947 74.1838C29.0129 74.2003 29.0623 74.2085 29.1199 74.2167Z" fill="white"/>
<path d="M34.7922 71C35.0227 71 35.3438 71 35.7143 71C35.6731 71.8965 35.5331 72.752 35.0557 73.4922C34.8251 73.8542 34.8498 74.068 35.0968 74.4052C35.7143 75.2524 35.7966 76.2312 35.6813 77.2429C34.9157 77.2429 34.1912 77.2429 33.4256 77.2429C33.3515 76.9468 33.5107 76.5125 33.0512 75.8348C32.5916 75.1572 31.6932 75.0856 30.6595 75.2853C30.4372 74.7343 30.1902 74.1174 29.9021 73.4018C30.8034 72.9471 32.2452 72.6607 33.5039 73.2281C33.7673 73.3514 34.0541 73.1445 34.1282 72.9471C34.3752 72.3055 34.537 71.7403 34.7922 71Z" fill="white"/>
<path d="M126.4 26.2464L132.627 32.4739C132.656 31.9213 132.681 30.7018 132.471 29.2406C132.094 26.6071 131.122 24.4434 129.663 22.9836C128.203 21.5238 126.039 20.5525 123.406 20.1749C121.446 19.8939 119.92 20.0343 119.856 20.0405C119.543 20.0705 119.295 20.3186 119.265 20.6321C119.259 20.696 119.118 22.2218 119.399 24.1814C119.777 26.8149 120.748 28.9786 122.208 30.4383C123.668 31.8982 125.831 32.8694 128.465 33.247C129.435 33.3861 130.298 33.4219 130.931 33.4219C131.251 33.4219 131.512 33.4127 131.698 33.403L125.471 27.1756C125.214 26.919 125.214 26.503 125.471 26.2464C125.727 25.9898 126.143 25.9898 126.4 26.2464Z" fill="white"/>
<path d="M140.747 24.5981C140.717 24.2846 140.468 24.0364 140.155 24.0065C139.979 23.9897 135.826 23.6233 133.407 26.042C133.313 26.1362 133.223 26.2331 133.137 26.3322C133.42 27.179 133.634 28.0891 133.772 29.054C133.816 29.363 133.851 29.6612 133.878 29.9462L135.594 28.2293C135.851 27.9728 136.267 27.9728 136.524 28.2293C136.78 28.4859 136.78 28.9019 136.524 29.1586L133.961 31.7213C133.96 32.3911 133.922 32.8277 133.914 32.9149C133.899 33.0691 133.866 33.2179 133.818 33.3598C135.278 33.2248 137.293 32.7644 138.711 31.3459C141.13 28.9273 140.763 24.7737 140.747 24.5981Z" fill="white"/>
<path d="M126.4 78.2464L132.627 84.4739C132.656 83.9213 132.681 82.7018 132.471 81.2406C132.094 78.6071 131.122 76.4434 129.663 74.9836C128.203 73.5238 126.039 72.5525 123.406 72.1749C121.446 71.8939 119.92 72.0343 119.856 72.0405C119.543 72.0705 119.295 72.3186 119.265 72.6321C119.259 72.696 119.118 74.2218 119.399 76.1814C119.777 78.8149 120.748 80.9786 122.208 82.4383C123.668 83.8982 125.831 84.8694 128.465 85.247C129.435 85.3861 130.298 85.4219 130.931 85.4219C131.251 85.4219 131.512 85.4127 131.698 85.403L125.471 79.1756C125.214 78.919 125.214 78.503 125.471 78.2464C125.727 77.9898 126.143 77.9898 126.4 78.2464Z" fill="white"/>
<path d="M140.747 76.5981C140.717 76.2846 140.468 76.0364 140.155 76.0065C139.979 75.9897 135.826 75.6233 133.407 78.042C133.313 78.1362 133.223 78.2331 133.137 78.3322C133.42 79.179 133.634 80.0891 133.772 81.054C133.816 81.363 133.851 81.6612 133.878 81.9462L135.594 80.2293C135.851 79.9728 136.267 79.9728 136.524 80.2293C136.78 80.4859 136.78 80.9019 136.524 81.1586L133.961 83.7213C133.96 84.3911 133.922 84.8277 133.914 84.9149C133.899 85.0691 133.866 85.2179 133.818 85.3598C135.278 85.2248 137.293 84.7644 138.711 83.3459C141.13 80.9273 140.763 76.7737 140.747 76.5981Z" fill="white"/>
<path d="M80.6041 22.3684C81.4374 22.4107 82.2494 22.4388 83.0474 22.5092C83.8948 22.5797 84.7563 22.6219 85.5825 22.8049C86.6418 23.0373 87.1502 24.2553 86.3805 25.1846C86.324 25.255 86.2816 25.4029 86.3169 25.4733C86.6488 26.2477 86.557 26.7969 85.9497 27.4165C86.3593 28.1416 86.2746 28.8034 85.6814 29.4089C85.632 29.4582 85.632 29.599 85.6531 29.6764C85.8438 30.3805 85.6037 31.0352 84.9187 31.2887C84.3326 31.507 83.69 31.69 83.0686 31.7041C80.8371 31.7534 78.5986 31.7252 76.3601 31.7252C75.5409 31.7252 74.9054 31.0845 74.9054 30.2608C74.9054 28.1839 74.8983 26.1069 74.9125 24.03C74.9195 23.4245 75.1384 22.9387 75.7528 22.6712C76.4166 22.3825 76.8473 21.8052 77.3275 21.2912C77.3769 21.242 77.4052 21.1716 77.4617 21.1293C78.5421 20.2422 79.0011 18.9961 79.446 17.7429C79.6932 17.0458 80.0886 16.8698 80.823 17.0881C81.2396 17.2148 81.3385 17.5739 81.4162 17.9541C81.5998 18.8905 81.3456 19.7775 81.1055 20.6576C80.9289 21.2138 80.7736 21.77 80.6041 22.3684Z" fill="white"/>
<path d="M73.7684 27.191C73.7684 28.3245 73.7684 29.4651 73.7684 30.5986C73.7684 31.2252 73.3024 31.711 72.6739 31.7251C71.8971 31.7392 71.1203 31.7392 70.3436 31.7251C69.7292 31.711 69.249 31.2041 69.249 30.5916C69.249 28.3175 69.249 26.0434 69.249 23.7694C69.249 23.1639 69.7292 22.657 70.3506 22.6429C71.1274 22.6288 71.9042 22.6288 72.681 22.6429C73.3306 22.657 73.7967 23.2554 73.7826 23.7764C73.7543 24.917 73.7755 26.0505 73.7684 27.191Z" fill="white"/>
<circle cx="78.5" cy="25.5" r="15.5" stroke="white" stroke-width="2"/>
<path d="M80.6041 74.3684C81.4374 74.4107 82.2494 74.4388 83.0474 74.5092C83.8948 74.5797 84.7563 74.6219 85.5825 74.8049C86.6418 75.0373 87.1502 76.2553 86.3805 77.1846C86.324 77.255 86.2816 77.4029 86.3169 77.4733C86.6488 78.2477 86.557 78.7969 85.9497 79.4165C86.3593 80.1416 86.2746 80.8034 85.6814 81.4089C85.632 81.4582 85.632 81.599 85.6531 81.6764C85.8438 82.3805 85.6037 83.0352 84.9187 83.2887C84.3326 83.507 83.69 83.69 83.0686 83.7041C80.8371 83.7534 78.5986 83.7252 76.3601 83.7252C75.5409 83.7252 74.9054 83.0845 74.9054 82.2608C74.9054 80.1839 74.8983 78.1069 74.9125 76.03C74.9195 75.4245 75.1384 74.9387 75.7528 74.6712C76.4166 74.3825 76.8473 73.8052 77.3275 73.2912C77.3769 73.242 77.4052 73.1716 77.4617 73.1293C78.5421 72.2422 79.0011 70.9961 79.446 69.7429C79.6932 69.0458 80.0886 68.8698 80.823 69.0881C81.2396 69.2148 81.3385 69.5739 81.4162 69.9541C81.5998 70.8905 81.3456 71.7775 81.1055 72.6576C80.9289 73.2138 80.7736 73.77 80.6041 74.3684Z" fill="white"/>
<path d="M73.7684 79.191C73.7684 80.3245 73.7684 81.4651 73.7684 82.5986C73.7684 83.2252 73.3024 83.711 72.6739 83.7251C71.8971 83.7392 71.1203 83.7392 70.3436 83.7251C69.7292 83.711 69.249 83.2041 69.249 82.5916C69.249 80.3175 69.249 78.0434 69.249 75.7694C69.249 75.1639 69.7292 74.657 70.3506 74.6429C71.1274 74.6288 71.9042 74.6288 72.681 74.6429C73.3306 74.657 73.7967 75.2554 73.7826 75.7764C73.7543 76.917 73.7755 78.0505 73.7684 79.191Z" fill="white"/>
<circle cx="130.5" cy="25.5" r="15.5" stroke="white" stroke-width="2"/>
<circle cx="26.5" cy="25.5" r="15.5" stroke="white" stroke-width="2"/>
</svg>
