<svg id="Layer_1" data-name="Layer 1" xmlns="http://www.w3.org/2000/svg" width="581" height="83" viewBox="0 0 581 83">
  <defs>
    <style>
      .cls-1 {
        fill: none;
      }
    </style>
  </defs>
  <title>site2-exp-icons-price</title>
  <g id="Group_2597" data-name="Group 2597">
    <rect id="Rectangle_904" data-name="Rectangle 904" class="cls-1" width="83" height="83"/>
    <g id="photo-camera">
      <g id="Group_2462" data-name="Group 2462">
        <g id="Group_2461" data-name="Group 2461">
          <path id="Path_2563" data-name="Path 2563" d="M65.05,32.62H54l-1.72-6.88A3.6,3.6,0,0,0,48.76,23H33.3a3.6,3.6,0,0,0-3.5,2.73l-1.72,6.88H17a6,6,0,0,0-6,6V65.05a6,6,0,0,0,6,6h48a6,6,0,0,0,6-6V38.63A6,6,0,0,0,65.05,32.62Zm3.6,32.43a3.61,3.61,0,0,1-3.6,3.6H17a3.61,3.61,0,0,1-3.6-3.6V38.63A3.61,3.61,0,0,1,17,35H29a1.2,1.2,0,0,0,1.17-.91l1.95-7.79a1.2,1.2,0,0,1,1.17-.91H48.76a1.2,1.2,0,0,1,1.17.91l1.95,7.79A1.2,1.2,0,0,0,53,35h12a3.61,3.61,0,0,1,3.6,3.6Z"/>
        </g>
      </g>
      <g id="Group_2464" data-name="Group 2464">
        <g id="Group_2463" data-name="Group 2463">
          <path id="Path_2564" data-name="Path 2564" d="M41,37.43A14.41,14.41,0,1,0,55.44,51.84,14.41,14.41,0,0,0,41,37.43Zm0,26.42a12,12,0,1,1,12-12h0A12,12,0,0,1,41,63.85Z"/>
        </g>
      </g>
      <g id="Group_2466" data-name="Group 2466">
        <g id="Group_2465" data-name="Group 2465">
          <path id="Path_2565" data-name="Path 2565" d="M41,42.23a9.61,9.61,0,1,0,9.61,9.61A9.61,9.61,0,0,0,41,42.23ZM41,59a7.21,7.21,0,1,1,7.21-7.21h0A7.21,7.21,0,0,1,41,59Z"/>
        </g>
      </g>
      <g id="Group_2468" data-name="Group 2468">
        <g id="Group_2467" data-name="Group 2467">
          <path id="Path_2566" data-name="Path 2566" d="M6.2,17A1.2,1.2,0,0,0,5,18.21v12H7.4V19.41H18.21V17Z"/>
        </g>
      </g>
      <g id="Group_2470" data-name="Group 2470">
        <g id="Group_2469" data-name="Group 2469">
          <path id="Path_2567" data-name="Path 2567" d="M74.66,65.05V75.86H63.85v2.4h12a1.2,1.2,0,0,0,1.2-1.2h0v-12Z"/>
        </g>
      </g>
      <g id="Group_2472" data-name="Group 2472">
        <g id="Group_2471" data-name="Group 2471">
          <path id="Path_2568" data-name="Path 2568" d="M7.4,75.86V65.05H5v12a1.2,1.2,0,0,0,1.2,1.2h12v-2.4Z"/>
        </g>
      </g>
      <g id="Group_2474" data-name="Group 2474">
        <g id="Group_2473" data-name="Group 2473">
          <path id="Path_2569" data-name="Path 2569" d="M23,37.43H17a1.2,1.2,0,0,0-1.2,1.2v6a1.2,1.2,0,0,0,1.2,1.2h6a1.2,1.2,0,0,0,1.2-1.2v-6A1.2,1.2,0,0,0,23,37.43Zm-1.2,6H18.21v-3.6h3.6Z"/>
        </g>
      </g>
      <g id="Group_2476" data-name="Group 2476">
        <g id="Group_2475" data-name="Group 2475">
          <path id="Path_2570" data-name="Path 2570" d="M75.86,12.21a4.81,4.81,0,0,1-4.8-4.8,1.2,1.2,0,1,0-2.4,0h0a4.81,4.81,0,0,1-4.8,4.8,1.2,1.2,0,1,0,0,2.4,4.81,4.81,0,0,1,4.8,4.8,1.2,1.2,0,0,0,2.4,0h0a4.81,4.81,0,0,1,4.8-4.8,1.2,1.2,0,0,0,0-2.4Zm-6,3.23a7.27,7.27,0,0,0-2-2,7.27,7.27,0,0,0,2-2,7.26,7.26,0,0,0,2,2A7.26,7.26,0,0,0,69.86,15.43Z"/>
        </g>
      </g>
      <g id="Group_2478" data-name="Group 2478">
        <g id="Group_2477" data-name="Group 2477">
          <path id="Path_2571" data-name="Path 2571" d="M65.05,19.41a4.81,4.81,0,0,1-4.8-4.8,1.2,1.2,0,1,0-2.4,0h0a4.81,4.81,0,0,1-4.8,4.8,1.2,1.2,0,0,0,0,2.4,4.81,4.81,0,0,1,4.8,4.8,1.2,1.2,0,1,0,2.4,0h0a4.81,4.81,0,0,1,4.8-4.8,1.2,1.2,0,1,0,0-2.4Zm-6,3.23a7.28,7.28,0,0,0-2-2,7.26,7.26,0,0,0,2-2,7.28,7.28,0,0,0,2,2A7.28,7.28,0,0,0,59,22.64Z"/>
        </g>
      </g>
      <g id="Group_2480" data-name="Group 2480">
        <g id="Group_2479" data-name="Group 2479">
          <path id="Path_2572" data-name="Path 2572" d="M54.24,11a4.81,4.81,0,0,1-4.8-4.8,1.2,1.2,0,1,0-2.4,0h0a4.81,4.81,0,0,1-4.8,4.8,1.2,1.2,0,0,0,0,2.4,4.81,4.81,0,0,1,4.8,4.8,1.2,1.2,0,0,0,2.4,0h0a4.81,4.81,0,0,1,4.8-4.8,1.2,1.2,0,1,0,0-2.4Zm-6,3.23a7.26,7.26,0,0,0-2-2,7.26,7.26,0,0,0,2-2,7.26,7.26,0,0,0,2,2A7.26,7.26,0,0,0,48.24,14.23Z"/>
        </g>
      </g>
    </g>
  </g>
  <g id="Group_2598" data-name="Group 2598">
    <rect id="Rectangle_906" data-name="Rectangle 906" class="cls-1" x="83" width="83" height="83"/>
    <g id="cooking">
      <g id="Group_2360" data-name="Group 2360">
        <g id="Group_2359" data-name="Group 2359">
          <path id="Path_2549" data-name="Path 2549" d="M158.3,69.45H151L149.27,52.7l2,2.93.48,2.42a4,4,0,1,0,7.49-2.57l-1-2v0L151,40.3a1.2,1.2,0,0,0-.6-.54l-3.23-1.29A10.64,10.64,0,0,0,149.82,25l-.62-6.15a4.71,4.71,0,0,0,3.15-4.19c0-2.56-2.54-4.66-5.72-4.76a7.14,7.14,0,0,0-12.38,0c-3.17.1-5.72,2.2-5.72,4.76a4.71,4.71,0,0,0,3.15,4.19L131.07,25a10.63,10.63,0,0,0,2.63,13.46l-3.23,1.29a1.19,1.19,0,0,0-.49.36l-4,5-4.86-3.88-1.3-2.16a4.5,4.5,0,0,0-.81-1V34.92a3.57,3.57,0,0,0-2.38-3.35v-5h1.19A3.58,3.58,0,0,0,121.39,23V15.86a3.58,3.58,0,0,0-3.57-3.57H113a3.58,3.58,0,0,0-3.57,3.57V23A3.58,3.58,0,0,0,113,26.58h1.19v5a3.57,3.57,0,0,0-2.38,3.36v4.77a4.42,4.42,0,0,0,1.81,5.56l2.25,1.35,7.92,6.92a3.56,3.56,0,0,0,4.64.06l3.33-2.78-2,18.64H109l1.4-2.79a6,6,0,0,0,3.82-5.54v-2.6A3.56,3.56,0,0,0,113,51.59H91.61a3.56,3.56,0,0,0-1.19,6.93v2.6a6,6,0,0,0,3.82,5.54l1.4,2.79H89.23A1.19,1.19,0,0,0,88,70.64h0v4.76a1.19,1.19,0,0,0,1.19,1.19H158.3a1.19,1.19,0,0,0,1.19-1.19h0V70.64a1.19,1.19,0,0,0-1.19-1.19ZM114.24,24.2H113A1.19,1.19,0,0,1,111.86,23V15.86A1.19,1.19,0,0,1,113,14.67h1.19Zm42.83,32.34a1.61,1.61,0,1,1-3,1L153.74,56l2.74-.68Zm-7.94-14.72,6.2,11.37-2.46.61-4.18-6.28L147,40.95Zm-2.61,7.39,2.13,20.25H132.24l2.13-20.25Zm-11.67-2.38,1.76-6.67.14,0c.24.09.48.17.73.24l.28.07c.23.06.46.12.69.16l.35.05.65.09.46,0,.54,0,.54,0,.46,0c.22,0,.43-.06.65-.09l.35-.05c.23,0,.46-.1.69-.16l.28-.07c.25-.07.49-.15.73-.24l.14,0L146,46.82Zm-3.93-32.16c0-1.29,1.64-2.38,3.57-2.38l.2,0,.19,0a1.21,1.21,0,0,0,1.19-.72,4.76,4.76,0,0,1,8.75,0,1.2,1.2,0,0,0,1.19.72l.19,0,.2,0c1.94,0,3.57,1.09,3.57,2.38,0,1-1,1.86-2.34,2.21a1.19,1.19,0,0,0-.89,1.27l.72,7.23h-14l.72-7.23a1.19,1.19,0,0,0-.89-1.27C131.87,16.53,130.91,15.62,130.91,14.67Zm1.19,15.48a8.31,8.31,0,0,1,.35-2.38h16A8.34,8.34,0,0,1,143.21,38h0a8.27,8.27,0,0,1-5.47,0h0a8.35,8.35,0,0,1-5.56-7.85ZM116.62,14.67h1.19A1.19,1.19,0,0,1,119,15.86V23a1.19,1.19,0,0,1-1.19,1.19h-1.19Zm-1.19,19.05a1.19,1.19,0,0,1,1.19,1.19V37h0l-.08,0h-.19a4.48,4.48,0,0,0-.62,0l-.31,0a4.41,4.41,0,0,0-.72.16l-.3.1-.14,0V34.92h0A1.19,1.19,0,0,1,115.43,33.72Zm-.54,9.48a2.07,2.07,0,0,1-.78-2.74l0,0a2.64,2.64,0,0,1,.16-.26,1.78,1.78,0,0,1,.77-.65l0,0a2.08,2.08,0,0,1,.64-.17h0a2.13,2.13,0,0,1,.65,0h.07a2.07,2.07,0,0,1,.64.29h0a2.1,2.1,0,0,1,.6.64l.93,1.55-2.26,2.25Zm12.06,8.55a1.19,1.19,0,0,1-1.55,0l-7-6.16,1.92-1.92,5.12,4.1a1.19,1.19,0,0,0,1.67-.18h0l4.56-5.71,2.28-.91-1.68,6.4Zm-35.34,4.6a1.19,1.19,0,1,1,0-2.38H113a1.19,1.19,0,1,1,0,2.38H91.61Zm1.19,4.77V58.73h19.05v2.38a3.58,3.58,0,0,1-3.57,3.57H96.37A3.58,3.58,0,0,1,92.8,61.12Zm14.75,6-1.19,2.38h-2.84V67.07Zm-6.41,0v2.38H98.3l-1.19-2.39Zm56,7.15H90.42V71.83h66.69Z"/>
        </g>
      </g>
      <g id="Group_2362" data-name="Group 2362">
        <g id="Group_2361" data-name="Group 2361">
          <path id="Path_2550" data-name="Path 2550" d="M144,54h-7.14a1.19,1.19,0,0,0-1.19,1.19h0v3.57a4.76,4.76,0,0,0,9.53,0V55.16A1.19,1.19,0,0,0,144,54Zm-1.19,4.76a2.38,2.38,0,1,1-4.76,0V56.35h4.76Z"/>
        </g>
      </g>
      <g id="Group_2364" data-name="Group 2364">
        <g id="Group_2363" data-name="Group 2363">
          <rect id="Rectangle_826" data-name="Rectangle 826" x="101.14" y="42.06" width="2.38" height="5.95"/>
        </g>
      </g>
      <g id="Group_2366" data-name="Group 2366">
        <g id="Group_2365" data-name="Group 2365">
          <rect id="Rectangle_827" data-name="Rectangle 827" x="107.09" y="44.44" width="2.38" height="4.76"/>
        </g>
      </g>
      <g id="Group_2368" data-name="Group 2368">
        <g id="Group_2367" data-name="Group 2367">
          <rect id="Rectangle_828" data-name="Rectangle 828" x="95.18" y="44.44" width="2.38" height="4.76"/>
        </g>
      </g>
      <g id="Group_2370" data-name="Group 2370">
        <g id="Group_2369" data-name="Group 2369">
          <rect id="Rectangle_829" data-name="Rectangle 829" x="101.14" y="37.3" width="2.38" height="2.38"/>
        </g>
      </g>
      <g id="Group_2372" data-name="Group 2372">
        <g id="Group_2371" data-name="Group 2371">
          <rect id="Rectangle_830" data-name="Rectangle 830" x="95.18" y="39.68" width="2.38" height="2.38"/>
        </g>
      </g>
      <g id="Group_2374" data-name="Group 2374">
        <g id="Group_2373" data-name="Group 2373">
          <rect id="Rectangle_831" data-name="Rectangle 831" x="107.09" y="39.68" width="2.38" height="2.38"/>
        </g>
      </g>
    </g>
  </g>
  <g id="Group_2599" data-name="Group 2599">
    <rect id="Rectangle_905" data-name="Rectangle 905" class="cls-1" x="166" width="83" height="83"/>
    <g id="menu">
      <g id="Group_2378" data-name="Group 2378">
        <g id="Group_2377" data-name="Group 2377">
          <path id="Path_2551" data-name="Path 2551" d="M234.7,8h-49a5.33,5.33,0,0,0-5.32,5.32v16.6L174.31,36a1.07,1.07,0,0,0-.31.75V74h2.13V37.19l4.26-4.26v2.75a1.07,1.07,0,0,0,1.06,1.07H194.1A4.27,4.27,0,0,1,190,39.95h-4.26A1.07,1.07,0,0,0,184.65,41h0a6.32,6.32,0,0,1-6.25,6.39h-.14v2.13a8.79,8.79,0,0,0,2.13-.27V64.44a5.33,5.33,0,0,0,5.32,5.33h3.2V74H191V69.77h17V71.9a1.06,1.06,0,0,0,.31.75l2.13,2.13L212,73.28l-1.82-1.82V64.88l2.13-2.13v4.89h2.13V38.35a1.6,1.6,0,0,1,3.19,0v24h2.13V53.26a1.6,1.6,0,0,1,3.19,0v9.05h2.13V53.26a1.6,1.6,0,0,1,3.19,0v9.05h2.13V53.26a1.6,1.6,0,0,1,3.19,0V74h2.13V69.66A5.33,5.33,0,0,0,240,64.44V13.32A5.33,5.33,0,0,0,234.7,8Zm3.19,56.44a3.19,3.19,0,0,1-2.13,3V53.26a3.72,3.72,0,0,0-6.39-2.6,3.71,3.71,0,0,0-5.25-.08l-.08.08a3.68,3.68,0,0,0-4.26-.75V38.35a3.73,3.73,0,1,0-7.46,0V59.74l-3.95,4a1.07,1.07,0,0,0-.31.75v3.19H185.71a3.2,3.2,0,0,1-3.19-3.19v-16a8.39,8.39,0,0,0,4.2-6.34H190a6.4,6.4,0,0,0,6.39-6.39,1.07,1.07,0,0,0-1.07-1.07H182.52V13.32a3.2,3.2,0,0,1,3.19-3.19h49a3.2,3.2,0,0,1,3.19,3.19Z"/>
        </g>
      </g>
      <g id="Group_2380" data-name="Group 2380">
        <g id="Group_2379" data-name="Group 2379">
          <path id="Path_2552" data-name="Path 2552" d="M203.82,12.26h-16a1.07,1.07,0,0,0-1.07,1.06h0v5.33a1.07,1.07,0,0,0,1.07,1.06h16a1.07,1.07,0,0,0,1.07-1.06h0V13.32a1.07,1.07,0,0,0-1.07-1.06Zm-1.07,5.33H188.91V14.39h13.84Z"/>
        </g>
      </g>
      <g id="Group_2382" data-name="Group 2382">
        <g id="Group_2381" data-name="Group 2381">
          <path id="Path_2553" data-name="Path 2553" d="M232.57,12.26h-16a1.06,1.06,0,0,0-1.07,1.06h0v5.33a1.06,1.06,0,0,0,1.07,1.06h16a1.06,1.06,0,0,0,1.07-1.06h0V13.32a1.06,1.06,0,0,0-1.07-1.06Zm-1.07,5.33H217.66V14.39H231.5Z"/>
        </g>
      </g>
      <g id="Group_2384" data-name="Group 2384">
        <g id="Group_2383" data-name="Group 2383">
          <path id="Path_2554" data-name="Path 2554" d="M203.82,44.21h-16a1.06,1.06,0,0,0-1.07,1.07h0V50.6a1.06,1.06,0,0,0,1.06,1.07h16a1.06,1.06,0,0,0,1.07-1.07h0V45.27a1.06,1.06,0,0,0-1.06-1.07Zm-1.07,5.33H188.91v-3.2h13.84Z"/>
        </g>
      </g>
      <g id="Group_2386" data-name="Group 2386">
        <g id="Group_2385" data-name="Group 2385">
          <rect id="Rectangle_832" data-name="Rectangle 832" x="209.14" y="12.26" width="2.13" height="20.23"/>
        </g>
      </g>
      <g id="Group_2388" data-name="Group 2388">
        <g id="Group_2387" data-name="Group 2387">
          <rect id="Rectangle_833" data-name="Rectangle 833" x="186.78" y="21.84" width="11.71" height="2.13"/>
        </g>
      </g>
      <g id="Group_2390" data-name="Group 2390">
        <g id="Group_2389" data-name="Group 2389">
          <rect id="Rectangle_834" data-name="Rectangle 834" x="201.69" y="21.84" width="3.19" height="2.13"/>
        </g>
      </g>
      <g id="Group_2392" data-name="Group 2392">
        <g id="Group_2391" data-name="Group 2391">
          <rect id="Rectangle_835" data-name="Rectangle 835" x="186.78" y="26.1" width="11.71" height="2.13"/>
        </g>
      </g>
      <g id="Group_2394" data-name="Group 2394">
        <g id="Group_2393" data-name="Group 2393">
          <rect id="Rectangle_836" data-name="Rectangle 836" x="201.69" y="26.1" width="3.19" height="2.13"/>
        </g>
      </g>
      <g id="Group_2396" data-name="Group 2396">
        <g id="Group_2395" data-name="Group 2395">
          <rect id="Rectangle_837" data-name="Rectangle 837" x="186.78" y="30.36" width="11.71" height="2.13"/>
        </g>
      </g>
      <g id="Group_2398" data-name="Group 2398">
        <g id="Group_2397" data-name="Group 2397">
          <rect id="Rectangle_838" data-name="Rectangle 838" x="201.69" y="30.36" width="3.19" height="2.13"/>
        </g>
      </g>
      <g id="Group_2400" data-name="Group 2400">
        <g id="Group_2399" data-name="Group 2399">
          <rect id="Rectangle_839" data-name="Rectangle 839" x="201.69" y="34.62" width="3.19" height="2.13"/>
        </g>
      </g>
      <g id="Group_2402" data-name="Group 2402">
        <g id="Group_2401" data-name="Group 2401">
          <rect id="Rectangle_840" data-name="Rectangle 840" x="201.69" y="38.88" width="3.19" height="2.13"/>
        </g>
      </g>
      <g id="Group_2404" data-name="Group 2404">
        <g id="Group_2403" data-name="Group 2403">
          <rect id="Rectangle_841" data-name="Rectangle 841" x="186.78" y="53.79" width="11.71" height="2.13"/>
        </g>
      </g>
      <g id="Group_2406" data-name="Group 2406">
        <g id="Group_2405" data-name="Group 2405">
          <rect id="Rectangle_842" data-name="Rectangle 842" x="201.69" y="53.79" width="3.19" height="2.13"/>
        </g>
      </g>
      <g id="Group_2408" data-name="Group 2408">
        <g id="Group_2407" data-name="Group 2407">
          <rect id="Rectangle_843" data-name="Rectangle 843" x="186.78" y="58.05" width="11.71" height="2.13"/>
        </g>
      </g>
      <g id="Group_2410" data-name="Group 2410">
        <g id="Group_2409" data-name="Group 2409">
          <rect id="Rectangle_844" data-name="Rectangle 844" x="201.69" y="58.05" width="3.19" height="2.13"/>
        </g>
      </g>
      <g id="Group_2412" data-name="Group 2412">
        <g id="Group_2411" data-name="Group 2411">
          <rect id="Rectangle_845" data-name="Rectangle 845" x="186.78" y="62.31" width="11.71" height="2.13"/>
        </g>
      </g>
      <g id="Group_2414" data-name="Group 2414">
        <g id="Group_2413" data-name="Group 2413">
          <rect id="Rectangle_846" data-name="Rectangle 846" x="201.69" y="62.31" width="3.19" height="2.13"/>
        </g>
      </g>
      <g id="Group_2416" data-name="Group 2416">
        <g id="Group_2415" data-name="Group 2415">
          <rect id="Rectangle_847" data-name="Rectangle 847" x="215.53" y="21.84" width="11.71" height="2.13"/>
        </g>
      </g>
      <g id="Group_2418" data-name="Group 2418">
        <g id="Group_2417" data-name="Group 2417">
          <rect id="Rectangle_848" data-name="Rectangle 848" x="230.44" y="21.84" width="3.19" height="2.13"/>
        </g>
      </g>
      <g id="Group_2420" data-name="Group 2420">
        <g id="Group_2419" data-name="Group 2419">
          <rect id="Rectangle_849" data-name="Rectangle 849" x="215.53" y="26.1" width="11.71" height="2.13"/>
        </g>
      </g>
      <g id="Group_2422" data-name="Group 2422">
        <g id="Group_2421" data-name="Group 2421">
          <rect id="Rectangle_850" data-name="Rectangle 850" x="230.44" y="26.1" width="3.19" height="2.13"/>
        </g>
      </g>
      <g id="Group_2424" data-name="Group 2424">
        <g id="Group_2423" data-name="Group 2423">
          <rect id="Rectangle_851" data-name="Rectangle 851" x="215.53" y="30.36" width="11.71" height="2.13"/>
        </g>
      </g>
      <g id="Group_2426" data-name="Group 2426">
        <g id="Group_2425" data-name="Group 2425">
          <rect id="Rectangle_852" data-name="Rectangle 852" x="230.44" y="30.36" width="3.19" height="2.13"/>
        </g>
      </g>
      <g id="Group_2428" data-name="Group 2428">
        <g id="Group_2427" data-name="Group 2427">
          <rect id="Rectangle_853" data-name="Rectangle 853" x="221.92" y="34.62" width="5.32" height="2.13"/>
        </g>
      </g>
      <g id="Group_2430" data-name="Group 2430">
        <g id="Group_2429" data-name="Group 2429">
          <rect id="Rectangle_854" data-name="Rectangle 854" x="230.44" y="34.62" width="3.19" height="2.13"/>
        </g>
      </g>
      <g id="Group_2432" data-name="Group 2432">
        <g id="Group_2431" data-name="Group 2431">
          <rect id="Rectangle_855" data-name="Rectangle 855" x="221.92" y="38.88" width="5.32" height="2.13"/>
        </g>
      </g>
      <g id="Group_2434" data-name="Group 2434">
        <g id="Group_2433" data-name="Group 2433">
          <rect id="Rectangle_856" data-name="Rectangle 856" x="230.44" y="38.88" width="3.19" height="2.13"/>
        </g>
      </g>
      <g id="Group_2436" data-name="Group 2436">
        <g id="Group_2435" data-name="Group 2435">
          <rect id="Rectangle_857" data-name="Rectangle 857" x="221.92" y="43.14" width="5.32" height="2.13"/>
        </g>
      </g>
      <g id="Group_2438" data-name="Group 2438">
        <g id="Group_2437" data-name="Group 2437">
          <rect id="Rectangle_858" data-name="Rectangle 858" x="230.44" y="43.14" width="3.19" height="2.13"/>
        </g>
      </g>
    </g>
  </g>
  <g id="Group_2600" data-name="Group 2600">
    <rect id="Rectangle_907" data-name="Rectangle 907" class="cls-1" x="249" width="83" height="83"/>
    <g id="order">
      <g id="Group_2440" data-name="Group 2440">
        <g id="Group_2439" data-name="Group 2439">
          <path id="Path_2555" data-name="Path 2555" d="M323.72,53.63H321.5V12.55A5.56,5.56,0,0,0,316,7H264.88a5.56,5.56,0,0,0-5.55,5.55V53.63h-2.22A1.11,1.11,0,0,0,256,54.74h0v1.11a5.56,5.56,0,0,0,5.55,5.55h57.73a5.56,5.56,0,0,0,5.55-5.55V54.74a1.11,1.11,0,0,0-1.11-1.11ZM261.55,12.55a3.34,3.34,0,0,1,3.33-3.33H316a3.33,3.33,0,0,1,3.33,3.33V53.63H261.55Zm57.73,46.63H261.55a3.33,3.33,0,0,1-3.33-3.33h64.39A3.34,3.34,0,0,1,319.28,59.18Z"/>
        </g>
      </g>
      <g id="Group_2442" data-name="Group 2442">
        <g id="Group_2441" data-name="Group 2441">
          <path id="Path_2556" data-name="Path 2556" d="M315.95,11.44H264.88a1.11,1.11,0,0,0-1.11,1.11h0V50.3a1.11,1.11,0,0,0,1.11,1.11h51.07a1.11,1.11,0,0,0,1.11-1.11h0V12.55a1.11,1.11,0,0,0-1.11-1.11Zm-1.11,37.75H266V13.66h48.85Z"/>
        </g>
      </g>
      <g id="Group_2444" data-name="Group 2444">
        <g id="Group_2443" data-name="Group 2443">
          <path id="Path_2557" data-name="Path 2557" d="M288.19,15.88A3.68,3.68,0,0,0,284.54,19l-1.88,12.24a1.11,1.11,0,0,0,.6,1.16l3.83,1.91V47h2.22V17A1.11,1.11,0,0,0,288.19,15.88Zm-1.11,16L285,30.79l1.76-11.44a1.47,1.47,0,0,1,.35-.75Z"/>
        </g>
      </g>
      <g id="Group_2446" data-name="Group 2446">
        <g id="Group_2445" data-name="Group 2445">
          <path id="Path_2558" data-name="Path 2558" d="M278.2,15.88v6.66H276V15.88h-2.22v6.66h-2.22V15.88h-2.22v10a3.34,3.34,0,0,0,3.33,3.33h1.11V47H276V29.2h1.11a3.34,3.34,0,0,0,3.33-3.33v-10Zm0,10A1.11,1.11,0,0,1,277.09,27h-4.44a1.11,1.11,0,0,1-1.11-1.11V24.76h6.66Z"/>
        </g>
      </g>
      <g id="Group_2448" data-name="Group 2448">
        <g id="Group_2447" data-name="Group 2447">
          <path id="Path_2559" data-name="Path 2559" d="M307.92,34.59,309.49,33a1.11,1.11,0,0,0-.37-1.82l-7.85-3.14a1.11,1.11,0,0,0-1.44,1.44L303,37.36a1.11,1.11,0,0,0,.81.68l.22,0a1.11,1.11,0,0,0,.79-.32l1.57-1.57,3.93,3.92,1.57-1.57ZM304.4,35l-1.55-3.88,3.88,1.55Z"/>
        </g>
      </g>
      <g id="Group_2450" data-name="Group 2450">
        <g id="Group_2449" data-name="Group 2449">
          <path id="Path_2560" data-name="Path 2560" d="M301.52,23.65A5.55,5.55,0,0,0,298.74,34l1.11-1.92a3.33,3.33,0,1,1,4.89-3.72l2.15-.56A5.55,5.55,0,0,0,301.52,23.65Z"/>
        </g>
      </g>
      <g id="Group_2452" data-name="Group 2452">
        <g id="Group_2451" data-name="Group 2451">
          <path id="Path_2561" data-name="Path 2561" d="M301.52,19.21a10,10,0,0,0-1.25,19.9l.27-2.2a7.77,7.77,0,1,1,8.74-7.71h2.22A10,10,0,0,0,301.52,19.21Z"/>
        </g>
      </g>
      <g id="Group_2454" data-name="Group 2454">
        <g id="Group_2453" data-name="Group 2453">
          <rect id="Rectangle_859" data-name="Rectangle 859" x="297.08" y="41.42" width="2.22" height="2.22"/>
        </g>
      </g>
      <g id="Group_2456" data-name="Group 2456">
        <g id="Group_2455" data-name="Group 2455">
          <rect id="Rectangle_860" data-name="Rectangle 860" x="301.52" y="41.42" width="2.22" height="2.22"/>
        </g>
      </g>
      <g id="Group_2458" data-name="Group 2458">
        <g id="Group_2457" data-name="Group 2457">
          <rect id="Rectangle_861" data-name="Rectangle 861" x="305.96" y="41.42" width="2.22" height="2.22"/>
        </g>
      </g>
      <g id="Group_2460" data-name="Group 2460">
        <g id="Group_2459" data-name="Group 2459">
          <path id="Path_2562" data-name="Path 2562" d="M323.68,64.42a1.11,1.11,0,0,0-1.07-.8H258.22a1.11,1.11,0,0,0-.59,2.05l8.88,5.55a1.13,1.13,0,0,0,.32.14l8,2v1.35A1.11,1.11,0,0,0,276,75.83h28.87A1.11,1.11,0,0,0,306,74.72V73.37l8-2a1.12,1.12,0,0,0,.32-.14l8.88-5.55A1.11,1.11,0,0,0,323.68,64.42Zm-10.39,4.82-8.71,2.18a1.11,1.11,0,0,0-.84,1.08v1.11H277.09V72.5a1.11,1.11,0,0,0-.84-1.08l-8.71-2.18-5.45-3.41h56.65Z"/>
        </g>
      </g>
    </g>
  </g>
  <g id="Group_2601" data-name="Group 2601">
    <rect id="Rectangle_908" data-name="Rectangle 908" class="cls-1" x="332" width="83" height="83"/>
    <g id="support">
      <g id="Group_2508" data-name="Group 2508">
        <g id="Group_2507" data-name="Group 2507">
          <path id="Path_2574" data-name="Path 2574" d="M368.34,27.9a3.62,3.62,0,0,0-3.62,3.62h2.41a1.21,1.21,0,0,1,2.41,0H372A3.62,3.62,0,0,0,368.34,27.9Z"/>
        </g>
      </g>
      <g id="Group_2510" data-name="Group 2510">
        <g id="Group_2509" data-name="Group 2509">
          <path id="Path_2575" data-name="Path 2575" d="M378,27.9a3.62,3.62,0,0,0-3.62,3.62h2.41a1.21,1.21,0,0,1,2.41,0h2.41A3.62,3.62,0,0,0,378,27.9Z"/>
        </g>
      </g>
      <g id="Group_2512" data-name="Group 2512">
        <g id="Group_2511" data-name="Group 2511">
          <path id="Path_2576" data-name="Path 2576" d="M373.16,60.45A4.82,4.82,0,1,0,378,65.27,4.82,4.82,0,0,0,373.16,60.45Zm0,7.23a2.41,2.41,0,1,1,2.41-2.41A2.41,2.41,0,0,1,373.16,67.68Z"/>
        </g>
      </g>
      <g id="Group_2514" data-name="Group 2514">
        <g id="Group_2513" data-name="Group 2513">
          <path id="Path_2577" data-name="Path 2577" d="M402.09,74.91V59.24A18.1,18.1,0,0,0,384,41.16H382.7A14.51,14.51,0,0,0,383.92,40h1.3a6,6,0,0,0,6-6V31.8a5.41,5.41,0,0,0,0-9,18.07,18.07,0,0,0-36.13,0,5.42,5.42,0,0,0,3,9.94h.82a14.44,14.44,0,0,0,4.71,8.44h-1.32a18.1,18.1,0,0,0-18.08,18.09V74.91H337v2.41h72.32V74.91Zm-13.26-41a3.61,3.61,0,0,1-3.13,3.57,14.33,14.33,0,0,0,1.71-4.77h.82a5.23,5.23,0,0,0,.6-.06Zm2.41-6.63a3,3,0,0,1-3,3h-.6v-6h.6A3,3,0,0,1,391.24,27.3Zm-32.54,3h-.6a3,3,0,0,1,0-6h.6Zm-.6-8.44-.55.06a15.65,15.65,0,0,1,31.22,0l-.54-.06h-.82a14.44,14.44,0,0,0-28.49,0Zm27.12,2.38c-8.7-.31-14.46-3.86-14.46-7.2a1.21,1.21,0,0,0-2.41,0c0,3-3.11,5.51-7.16,6a12.05,12.05,0,0,1,24,1.25Zm-24.11,6.06V25.42a11.14,11.14,0,0,0,8.55-4.68c2.52,3.34,8.41,5.69,15.55,5.93v3.64a12,12,0,0,1-2.43,7.23h-9.62V40h7.2a12,12,0,0,1-19.25-9.64Zm8.33,14a14,14,0,0,0,7.45,0l-3.73,7.45Zm1.78,8.94h-2.13l-4.82-9.64h2.13Zm8.72-9.64h2.13l-4.82,9.64h-2.13ZM350.26,59.24V74.91h-3.62V59.24a15.68,15.68,0,0,1,14.94-15.63l4.8,9.6h-10.1A6,6,0,0,0,350.26,59.24Zm43.39,15.67h-41V59.24a3.62,3.62,0,0,1,3.62-3.62H390a3.62,3.62,0,0,1,3.62,3.62Zm6,0h-3.62V59.24a6,6,0,0,0-6-6h-10.1l4.8-9.6a15.67,15.67,0,0,1,14.94,15.63Z"/>
        </g>
      </g>
      <g id="Group_2516" data-name="Group 2516">
        <g id="Group_2515" data-name="Group 2515">
          <rect id="Rectangle_874" data-name="Rectangle 874" x="388.83" y="64.06" width="2.41" height="8.44"/>
        </g>
      </g>
      <g id="Group_2518" data-name="Group 2518">
        <g id="Group_2517" data-name="Group 2517">
          <rect id="Rectangle_875" data-name="Rectangle 875" x="388.83" y="59.24" width="2.41" height="2.41"/>
        </g>
      </g>
      <g id="Group_2520" data-name="Group 2520">
        <g id="Group_2519" data-name="Group 2519">
          <rect id="Rectangle_876" data-name="Rectangle 876" x="399.68" y="15.85" width="2.41" height="2.41"/>
        </g>
      </g>
      <g id="Group_2522" data-name="Group 2522">
        <g id="Group_2521" data-name="Group 2521">
          <rect id="Rectangle_877" data-name="Rectangle 877" x="399.68" y="20.67" width="2.41" height="2.41"/>
        </g>
      </g>
      <g id="Group_2524" data-name="Group 2524">
        <g id="Group_2523" data-name="Group 2523">
          <rect id="Rectangle_878" data-name="Rectangle 878" x="399.68" y="25.49" width="2.41" height="2.41"/>
        </g>
      </g>
      <g id="Group_2526" data-name="Group 2526">
        <g id="Group_2525" data-name="Group 2525">
          <rect id="Rectangle_879" data-name="Rectangle 879" x="344.23" y="30.31" width="2.41" height="2.41"/>
        </g>
      </g>
      <g id="Group_2528" data-name="Group 2528">
        <g id="Group_2527" data-name="Group 2527">
          <rect id="Rectangle_880" data-name="Rectangle 880" x="344.23" y="35.13" width="2.41" height="2.41"/>
        </g>
      </g>
      <g id="Group_2530" data-name="Group 2530">
        <g id="Group_2529" data-name="Group 2529">
          <rect id="Rectangle_881" data-name="Rectangle 881" x="344.23" y="39.96" width="2.41" height="2.41"/>
        </g>
      </g>
    </g>
  </g>
  <g id="Group_2602" data-name="Group 2602">
    <rect id="Rectangle_909" data-name="Rectangle 909" class="cls-1" x="415" width="83" height="83"/>
    <g id="responsive">
      <g id="Group_2482" data-name="Group 2482">
        <g id="Group_2481" data-name="Group 2481">
          <path id="Path_2573" data-name="Path 2573" d="M487.39,40.2V15a5.74,5.74,0,0,0-5.73-5.73H431.22A5.74,5.74,0,0,0,425.49,15V32.18a3.44,3.44,0,0,0-3.44,3.44V70a3.44,3.44,0,0,0,3.44,3.44h25.22A3.44,3.44,0,0,0,454.15,70h9.6a3.44,3.44,0,0,0,3.32-4.34l-2.25-8.27h6.52V70a3.44,3.44,0,0,0,3.44,3.44h12.61A3.44,3.44,0,0,0,490.83,70V43.64A3.44,3.44,0,0,0,487.39,40.2ZM451.85,70a1.15,1.15,0,0,1-1.14,1.15H425.49A1.15,1.15,0,0,1,424.35,70V67.71h27.51Zm0-4.58H424.35V40.2h27.51Zm0-27.51H424.35V35.62a1.15,1.15,0,0,1,1.15-1.15h25.22a1.15,1.15,0,0,1,1.14,1.15Zm13,28.36a1.15,1.15,0,0,1-1.11,1.45h-9.6V65.42h10.48Zm-10.71-3.14V57.39h8.29L464,63.13Zm17.19-8H454.15V48.22h17.19Zm0-11.46v2.29H454.15V35.62a3.44,3.44,0,0,0-3.44-3.44H427.78V15a3.44,3.44,0,0,1,3.44-3.44h50.44A3.44,3.44,0,0,1,485.1,15V40.2H474.78a3.44,3.44,0,0,0-3.44,3.44ZM488.54,70a1.15,1.15,0,0,1-1.15,1.15H474.78A1.15,1.15,0,0,1,473.64,70V67.71h14.9Zm0-4.58h-14.9V48.22h14.9Zm0-19.49h-14.9V43.64a1.15,1.15,0,0,1,1.15-1.15h12.61a1.15,1.15,0,0,1,1.15,1.15Z"/>
        </g>
      </g>
      <g id="Group_2484" data-name="Group 2484">
        <g id="Group_2483" data-name="Group 2483">
          <rect id="Rectangle_862" data-name="Rectangle 862" x="427.98" y="53.95" width="6.49" height="2.29" transform="translate(87.34 321.06) rotate(-45)"/>
        </g>
      </g>
      <g id="Group_2486" data-name="Group 2486">
        <g id="Group_2485" data-name="Group 2485">
          <rect id="Rectangle_863" data-name="Rectangle 863" x="430.67" y="52.81" width="19.45" height="2.29" transform="translate(90.84 327.21) rotate(-45)"/>
        </g>
      </g>
      <g id="Group_2488" data-name="Group 2488">
        <g id="Group_2487" data-name="Group 2487">
          <rect id="Rectangle_864" data-name="Rectangle 864" x="434.38" y="45.93" width="9.73" height="2.29" transform="translate(95.36 324.38) rotate(-45)"/>
        </g>
      </g>
      <g id="Group_2490" data-name="Group 2490">
        <g id="Group_2489" data-name="Group 2489">
          <rect id="Rectangle_865" data-name="Rectangle 865" x="475.89" y="53.38" width="8.1" height="2.29" transform="translate(102.01 355.34) rotate(-45)"/>
        </g>
      </g>
      <g id="Group_2492" data-name="Group 2492">
        <g id="Group_2491" data-name="Group 2491">
          <rect id="Rectangle_866" data-name="Rectangle 866" x="478.18" y="57.97" width="8.1" height="2.29" transform="translate(99.44 358.3) rotate(-45)"/>
        </g>
      </g>
      <g id="Group_2494" data-name="Group 2494">
        <g id="Group_2493" data-name="Group 2493">
          <rect id="Rectangle_867" data-name="Rectangle 867" x="451.58" y="25.3" width="9.73" height="2.29" transform="translate(114.99 330.5) rotate(-45)"/>
        </g>
      </g>
      <g id="Group_2496" data-name="Group 2496">
        <g id="Group_2495" data-name="Group 2495">
          <rect id="Rectangle_868" data-name="Rectangle 868" x="461.89" y="23.01" width="9.73" height="2.29" transform="translate(119.63 337.12) rotate(-45)"/>
        </g>
      </g>
      <g id="Group_2498" data-name="Group 2498">
        <g id="Group_2497" data-name="Group 2497">
          <rect id="Rectangle_869" data-name="Rectangle 869" x="455.49" y="31.03" width="6.49" height="2.29" transform="translate(111.61 333.8) rotate(-45)"/>
        </g>
      </g>
      <g id="Group_2500" data-name="Group 2500">
        <g id="Group_2499" data-name="Group 2499">
          <rect id="Rectangle_870" data-name="Rectangle 870" x="461.21" y="17.28" width="6.5" height="2.29" transform="translate(123.01 333.82) rotate(-45)"/>
        </g>
      </g>
      <g id="Group_2502" data-name="Group 2502">
        <g id="Group_2501" data-name="Group 2501">
          <rect id="Rectangle_871" data-name="Rectangle 871" x="430.08" y="13.83" width="2.29" height="2.29"/>
        </g>
      </g>
      <g id="Group_2504" data-name="Group 2504">
        <g id="Group_2503" data-name="Group 2503">
          <rect id="Rectangle_872" data-name="Rectangle 872" x="434.66" y="13.83" width="2.29" height="2.29"/>
        </g>
      </g>
      <g id="Group_2506" data-name="Group 2506">
        <g id="Group_2505" data-name="Group 2505">
          <rect id="Rectangle_873" data-name="Rectangle 873" x="439.25" y="13.83" width="2.29" height="2.29"/>
        </g>
      </g>
    </g>
  </g>
  <g id="Group_2603" data-name="Group 2603">
    <rect id="Rectangle_910" data-name="Rectangle 910" class="cls-1" x="498" width="83" height="83"/>
    <g id="internet">
      <path id="Path_2582" data-name="Path 2582" d="M530.68,36.8a1,1,0,0,0-1.33.55h0l-1.79,4.28-1.78-4.28a1,1,0,0,0-1.88,0l-1.78,4.28-1.78-4.28a1,1,0,0,0-1.88.79l2.72,6.54a1,1,0,0,0,1.88,0l1.78-4.28,1.78,4.28a1,1,0,0,0,1.88,0l2.72-6.54A1,1,0,0,0,530.68,36.8Z"/>
      <path id="Path_2583" data-name="Path 2583" d="M544.86,36.8a1,1,0,0,0-1.33.55h0l-1.78,4.28L540,37.35a1,1,0,0,0-1.88,0l-1.78,4.28-1.78-4.28a1,1,0,1,0-1.88.79l2.73,6.54a1,1,0,0,0,1.88,0L539,40.39l1.78,4.28a1,1,0,0,0,1.88,0l2.73-6.54a1,1,0,0,0-.55-1.33Z"/>
      <path id="Path_2584" data-name="Path 2584" d="M556.85,44.67l2.73-6.54a1,1,0,1,0-1.88-.79l-1.78,4.28-1.78-4.28a1,1,0,0,0-1.88,0l-1.78,4.28-1.78-4.28a1,1,0,1,0-1.88.79l2.73,6.54a1,1,0,0,0,1.88,0l1.78-4.28L555,44.67a1,1,0,0,0,1.88,0Z"/>
      <path id="Path_2585" data-name="Path 2585" d="M563.63,16.4A34.82,34.82,0,0,0,514.4,65.63,34.82,34.82,0,0,0,563.63,16.4ZM528.43,16c1.43,2.74,5,4.63,9.28,4.94a21.59,21.59,0,0,0,8.49-1.45c3.7-1.2,5.56-1.67,7.36.67.67.87.5,1.52-1.91,3.93-1.77,1.77-4.11,4.11-3.38,7.15H537.7c-.31-4.13-4.32-6.59-11.38-9.53-3.88-1.61-4.63-4.2-4.77-5.24a4.58,4.58,0,0,1,1.81-4.29l.06,0A32.3,32.3,0,0,1,528.28,10a7.16,7.16,0,0,0,.16,6Zm4.47,57.19a13.08,13.08,0,0,0,6-5.9,11.76,11.76,0,0,0,.53-8.56,7.26,7.26,0,0,0-3.67-4.24,11.27,11.27,0,0,0-8.61-.31c-5.63,1.82-10.39,1.34-13-1.32A4.55,4.55,0,0,1,512.85,49a5.84,5.84,0,0,1,1.21-2.87,5.39,5.39,0,0,0,5.33,4.62h26.14a6.3,6.3,0,0,0,.94,4.24c1.72,2.65,4.86,2.57,7.38,2.5,1.34,0,2.86-.07,3.25.43.26.33.23,1.15-.08,2.26a22.85,22.85,0,0,0-1,8.89,32.57,32.57,0,0,1-17,4.73,33.1,33.1,0,0,1-6.11-.57Zm29.29-9a33.15,33.15,0,0,1-4.26,3.6A23.52,23.52,0,0,1,559,60.74c.52-1.86.43-3.15-.27-4.06-1-1.32-2.92-1.27-4.92-1.22-2.22.06-4.52.12-5.62-1.58a4.29,4.29,0,0,1-.6-3.13h5.6a1,1,0,1,0,0-2h-33.8A3.35,3.35,0,0,1,516,45.37V36.65a3.35,3.35,0,0,1,3.34-3.34h1.09a1,1,0,0,0,0-2h-1.08A5.39,5.39,0,0,0,514,36.65v6.77a7.75,7.75,0,0,0-3.18,5.33,6.55,6.55,0,0,0,1.84,5.59c3.22,3.22,8.73,3.88,15.12,1.82a9.27,9.27,0,0,1,7.05.18,5.17,5.17,0,0,1,2.65,3,9.71,9.71,0,0,1-.43,7.06c-1.28,2.7-3.8,4.71-7.48,6a32.79,32.79,0,0,1-13.75-54.59,33.24,33.24,0,0,1,3.75-3.23,6.6,6.6,0,0,0-.06,2.18c.4,2.93,2.59,5.42,6,6.84,7,2.93,9.8,5,10.11,7.65H524.84a1,1,0,0,0,0,2h33.8A3.35,3.35,0,0,1,562,36.65v8.72a3.35,3.35,0,0,1-3.34,3.34h-1.09a1,1,0,0,0,0,2h1.09A5.39,5.39,0,0,0,564,45.37V36.65a5.39,5.39,0,0,0-5.38-5.38h-8.23c-.79-2,.56-3.59,2.68-5.71,1.81-1.81,4.06-4.06,2.08-6.62-2.76-3.58-6.08-2.5-9.6-1.36a20,20,0,0,1-7.71,1.36c-3.59-.26-6.51-1.73-7.62-3.85-.85-1.62-.63-3.59.65-5.85a32.79,32.79,0,0,1,31.3,55Z"/>
    </g>
  </g>
</svg>
