<svg id="Group_2626" data-name="Group 2626" xmlns="http://www.w3.org/2000/svg" viewBox="-5665.813 3513.119 155.187 139.561">
  <defs>
    <style>
      .cls-1 {
        fill: #d8d8d8;
      }
    </style>
  </defs>
  <path id="Path_2454" data-name="Path 2454" class="cls-1" d="M162.232,29.64H136.449a2.588,2.588,0,0,0,0,5.176h23.244v28.42A7.764,7.764,0,0,1,151.929,71H22.672a7.764,7.764,0,0,1-7.764-7.764V34.817H38.2a2.588,2.588,0,1,0,0-5.176H12.368A2.588,2.588,0,0,0,9.78,32.228V63.237a12.94,12.94,0,0,0,12.94,12.94H151.929a12.94,12.94,0,0,0,12.94-12.94V32.228a2.588,2.588,0,0,0-2.637-2.588Z" transform="translate(-5675.545 3576.502)"/>
  <path id="Path_2455" data-name="Path 2455" class="cls-1" d="M17.942,24.306a2.592,2.592,0,0,0,4.493-2.588l-5.176-8.985a2.592,2.592,0,0,0-4.493,2.588Z" transform="translate(-5665.297 3505.806)"/>
  <path id="Path_2456" data-name="Path 2456" class="cls-1" d="M19.04,25.195a2.588,2.588,0,0,0,3.516-.928l5.176-8.936a2.592,2.592,0,0,0-4.493-2.588l-5.176,8.936A2.588,2.588,0,0,0,19.04,25.195Z" transform="translate(-5644.666 3505.845)"/>
  <path id="Path_2457" data-name="Path 2457" class="cls-1" d="M18.188,26.07a2.588,2.588,0,0,0,2.588-2.588v-10.3a2.588,2.588,0,0,0-5.176,0V23.53a2.588,2.588,0,0,0,2.588,2.539Z" transform="translate(-5652.945 3502.529)"/>
  <path id="Path_2458" data-name="Path 2458" class="cls-1" d="M63.835,24.281A31.008,31.008,0,1,0,81.316,52.212a31.546,31.546,0,0,0-.439-5.225,2.588,2.588,0,0,0-4.883.879,25.938,25.938,0,1,1-14.253-18.9,2.688,2.688,0,1,0,2.241-4.886Z" transform="translate(-5638.578 3543.627)"/>
  <path id="Path_2459" data-name="Path 2459" class="cls-1" d="M17.19,60.43A41.36,41.36,0,0,0,97.567,74.2a2.588,2.588,0,0,0-4.883-1.709,36.184,36.184,0,1,1-12.4-41.019,2.6,2.6,0,1,0,3.125-4.151A41.36,41.36,0,0,0,17.239,60.43Z" transform="translate(-5646.771 3535.409)"/>
  <path id="Path_2460" data-name="Path 2460" class="cls-1" d="M62.312,15.88H26.128a2.588,2.588,0,1,0,0,5.176H62.312a2.588,2.588,0,1,0,0-5.176Z" transform="translate(-5622.113 3523.07)"/>
  <path id="Path_2461" data-name="Path 2461" class="cls-1" d="M27.718,24.35a2.588,2.588,0,1,0,0,5.176A10.352,10.352,0,0,1,38.07,39.878a2.588,2.588,0,1,0,5.176,0A15.528,15.528,0,0,0,27.718,24.35Z" transform="translate(-5615.938 3555.961)"/>
  <path id="Path_2462" data-name="Path 2462" class="cls-1" d="M151.968,29.316h-15.48a7.032,7.032,0,0,1-5.42-3.76l-2.539-4.883a10.108,10.108,0,0,0-10.206-6.885H77.011a9.766,9.766,0,0,0-10.059,6.592l-2.344,5.176a7.032,7.032,0,0,1-5.469,3.76h-7.96V26.727a2.588,2.588,0,0,0-2.588-2.588H33.063a2.588,2.588,0,0,0-2.588,2.588v2.588H22.71A12.94,12.94,0,0,0,9.77,42.256v41.36a2.588,2.588,0,1,0,5.176,0V42.256a7.764,7.764,0,0,1,7.764-7.764H33.063A2.588,2.588,0,0,0,35.651,31.9V29.316H46V31.9a2.588,2.588,0,0,0,2.588,2.588H58.943A12.11,12.11,0,0,0,69,27.9l2.637-5.274c1.416-3.125,2.588-3.662,5.42-3.662h41.263c2.539,0,3.907.537,5.42,3.76l2.588,5.176a12.159,12.159,0,0,0,10.157,6.592h15.528a7.764,7.764,0,0,1,7.764,7.764v41.36a2.588,2.588,0,1,0,5.176,0V42.256a12.94,12.94,0,0,0-12.989-12.94Z" transform="translate(-5675.583 3514.811)"/>
  <path id="Path_2463" data-name="Path 2463" class="cls-1" d="M49.736,63.923a2.588,2.588,0,0,0,4.883,0L59.5,49.664l14.259-4.883a2.588,2.588,0,0,0,0-4.883L59.5,35.014,54.619,20.755a2.588,2.588,0,0,0-4.883,0L44.853,35.014,30.545,39.9a2.588,2.588,0,0,0,0,4.883l14.308,4.883Zm-1.9-24.416a2.588,2.588,0,0,0,1.66-1.66l2.735-8.155,2.735,8.155a2.588,2.588,0,0,0,1.611,1.66l8.155,2.735-8.155,2.735a2.588,2.588,0,0,0-1.611,1.66l-2.735,8.155-2.979-8.008a2.588,2.588,0,0,0-1.66-1.66l-8.106-2.686Z" transform="translate(-5601.625 3535.286)"/>
</svg>
