<svg id="Layer_4" data-name="Layer 4" xmlns="http://www.w3.org/2000/svg" width="144" height="113" viewBox="0 0 144 113">
  <defs>
    <style>
      .cls-1 {
        fill: #fff040;
      }

      .cls-2, .cls-4 {
        fill: none;
      }

      .cls-2, .cls-3, .cls-4 {
        stroke: #000;
        stroke-linejoin: round;
        stroke-width: 3px;
      }

      .cls-3 {
        fill: #fff;
      }

      .cls-4 {
        stroke-dasharray: 4.48 4.48;
      }
    </style>
  </defs>
  <title>site-ico-02</title>
  <g>
    <rect class="cls-1" x="18.2" y="21.9" width="17.85" height="32.29"/>
    <rect class="cls-1" x="61.08" y="21.9" width="17.85" height="32.29"/>
    <rect class="cls-1" x="39.64" y="21.9" width="17.85" height="32.29"/>
  </g>
  <g>
    <g>
      <g>
        <rect class="cls-2" x="4.7" y="8.45" width="99.08" height="75.71" rx="2.38" ry="2.38"/>
        <path class="cls-2" d="M35.08,102.85H73.4"/>
        <g>
          <line class="cls-2" x1="43.96" y1="102.85" x2="43.96" y2="84.09"/>
          <line class="cls-2" x1="64.52" y1="84.09" x2="64.52" y2="102.85"/>
        </g>
        <line class="cls-2" x1="4.7" y1="73.41" x2="102.84" y2="73.41"/>
      </g>
      <rect class="cls-3" x="73.94" y="42.27" width="34.56" height="49.49" rx="3.76" ry="3.76"/>
      <rect class="cls-3" x="95.61" y="33.75" width="21.5" height="38.38" rx="2.55" ry="2.55"/>
      <line class="cls-3" x1="73.76" y1="84.25" x2="108.76" y2="84.25"/>
      <line class="cls-3" x1="95.38" y1="66.73" x2="117.67" y2="66.73"/>
      <path class="cls-3" d="M9.49,22.5s-.4-4.8,1.71-6.5,5.56-1.27,5.56-1.27"/>
      <path class="cls-3" d="M78.31,52.54S78,49,79.58,47.69a6.3,6.3,0,0,1,4.15-1"/>
      <path class="cls-3" d="M99.75,42.23s-.24-2.85,1-3.86a5,5,0,0,1,3.3-.76"/>
    </g>
    <line class="cls-4" x1="36.1" y1="65.86" x2="66.6" y2="65.86"/>
  </g>
</svg>
