<svg id="Layer_1" data-name="Layer 1" xmlns="http://www.w3.org/2000/svg" xmlns:xlink="http://www.w3.org/1999/xlink" width="475" height="253" viewBox="0 0 475 253">
  <defs>
    <style>
      .cls-1, .cls-3, .cls-5 {
        fill: none;
      }

      .cls-2 {
        fill: #fff040;
      }

      .cls-3 {
        stroke: #000;
        stroke-width: 5.64px;
      }

      .cls-3, .cls-5 {
        stroke-miterlimit: 10;
      }

      .cls-4 {
        clip-path: url(#clip-path);
      }

      .cls-5 {
        stroke: #fff040;
        stroke-width: 6.69px;
      }

      .cls-6 {
        fill: #fff;
      }
    </style>
    <clipPath id="clip-path">
      <rect class="cls-1" x="0.12" y="0.87" width="238.99" height="208.64" transform="translate(239.23 210.39) rotate(180)"/>
    </clipPath>
  </defs>
  <title>site2-exp-31</title>
  <rect class="cls-2" width="475" height="253"/>
  <path class="cls-3" d="M0,166.45H333.47c14.53,0,26.31,10.34,26.31,23.1V253"/>
  <g class="cls-4">
    <g>
      <circle cx="135.31" cy="61.25" r="24.42"/>
      <circle class="cls-5" cx="135.31" cy="61.25" r="14.13"/>
      <g>
        <path class="cls-6" d="M34.41,2.51A58.07,58.07,0,0,0,22.16,117.35v5.45A3.19,3.19,0,0,0,25.35,126h1.31c-.74,12.87-3.11,53.7-3.7,62.5-.4,6,.35,9.52,2.5,11.84s5.42,2.72,8.46,2.75h1c3,0,6.19-.3,8.46-2.75s2.9-5.86,2.5-11.84c-.56-8.27-2.64-44.17-3.7-62.5h1.31a3.19,3.19,0,0,0,3.19-3.19v-5.45A58.07,58.07,0,0,0,34.41,2.51Z"/>
        <g>
          <path d="M42.66,188.7c.69,10.33-2.43,11.14-7.95,11.19h-.62c-5.51,0-8.64-.85-7.95-11.19.67-10,3.6-60.75,4-67.73h8.52C39.07,127.95,42,178.73,42.66,188.7Zm-10.19-3.11A1.79,1.79,0,0,0,30.66,188l1.5,5.3c.38,1.33,1.39,2.41,2.25,2.41s1.87-1.08,2.25-2.41l1.5-5.3a1.79,1.79,0,0,0-1.82-2.41Z"/>
          <rect class="cls-2" x="25.35" y="111.76" width="18.11" height="11.04"/>
          <circle cx="34.41" cy="60.59" r="54.88"/>
          <path class="cls-6" d="M76.77,32a54.52,54.52,0,0,1-49.59,77.17,54.62,54.62,0,0,1-12.47-1.44A51.1,51.1,0,0,0,76.77,32Z"/>
          <circle cx="34.41" cy="60.58" r="37.2"/>
          <circle class="cls-2" cx="34.41" cy="60.59" r="16.43"/>
        </g>
      </g>
    </g>
    <g>
      <circle cx="201.8" cy="61.85" r="14.24"/>
      <circle class="cls-2" cx="201.8" cy="61.85" r="6.1"/>
    </g>
  </g>
  <g>
    <g>
      <rect x="423.11" y="181.75" width="11.46" height="11.46" rx="4.07" ry="4.07"/>
      <rect x="423.11" y="163.44" width="11.46" height="11.46" rx="4.07" ry="4.07"/>
      <rect x="423.11" y="145.13" width="11.46" height="11.46" rx="4.07" ry="4.07"/>
      <rect x="423.11" y="126.83" width="11.46" height="11.46" rx="4.07" ry="4.07"/>
      <rect x="423.11" y="108.52" width="11.46" height="11.46" rx="4.07" ry="4.07"/>
      <rect x="439.54" y="181.75" width="11.46" height="11.46" rx="4.07" ry="4.07"/>
      <rect x="439.54" y="163.44" width="11.46" height="11.46" rx="4.07" ry="4.07"/>
      <rect x="439.54" y="145.13" width="11.46" height="11.46" rx="4.07" ry="4.07"/>
      <rect x="439.54" y="126.83" width="11.46" height="11.46" rx="4.07" ry="4.07"/>
      <rect x="439.54" y="108.52" width="11.46" height="11.46" rx="4.07" ry="4.07"/>
    </g>
    <g>
      <rect x="422.15" y="80.44" width="11.46" height="11.46" rx="4.07" ry="4.07"/>
      <rect x="422.15" y="62.13" width="11.46" height="11.46" rx="4.07" ry="4.07"/>
      <rect x="422.15" y="43.82" width="11.46" height="11.46" rx="4.07" ry="4.07"/>
      <rect x="422.15" y="25.52" width="11.46" height="11.46" rx="4.07" ry="4.07"/>
      <rect x="422.15" y="7.21" width="11.46" height="11.46" rx="4.07" ry="4.07"/>
      <rect x="438.57" y="80.44" width="11.46" height="11.46" rx="4.07" ry="4.07"/>
      <rect x="438.57" y="62.13" width="11.46" height="11.46" rx="4.07" ry="4.07"/>
      <rect x="438.57" y="43.82" width="11.46" height="11.46" rx="4.07" ry="4.07"/>
      <rect x="438.57" y="25.52" width="11.46" height="11.46" rx="4.07" ry="4.07"/>
      <rect x="438.57" y="7.21" width="11.46" height="11.46" rx="4.07" ry="4.07"/>
    </g>
  </g>
</svg>
