<svg id="Layer_1" data-name="Layer 1" xmlns="http://www.w3.org/2000/svg" width="338" height="388" viewBox="0 0 338 388">
  <defs>
    <style>
      .cls-1 {
        fill: none;
        stroke: #fff040;
        stroke-miterlimit: 10;
        stroke-width: 6.2px;
      }

      .cls-2 {
        fill: #fff040;
      }

      .cls-3 {
        fill: #fff;
      }
    </style>
  </defs>
  <title>site2-exp-08</title>
  <g>
    <g>
      <circle cx="234.97" cy="261.72" r="39.17"/>
      <circle cx="234.97" cy="356.37" r="22.85"/>
      <circle class="cls-1" cx="234.97" cy="261.72" r="22.67"/>
      <circle class="cls-2" cx="234.97" cy="356.37" r="9.79"/>
    </g>
    <g>
      <path class="cls-3" d="M329.19,99.85A93.15,93.15,0,0,0,145,80.2h-8.74a5.12,5.12,0,0,0-5.12,5.12v2.11c-20.65-1.19-86.14-5-100.26-5.93-9.59-.64-15.27.55-19,4-3.93,3.65-4.36,8.69-4.41,13.57,0,.09,0,.18,0,.27v1c0,.09,0,.18,0,.27,0,4.88.47,9.93,4.41,13.57,3.72,3.45,9.4,4.65,19,4,13.26-.89,70.85-4.23,100.26-5.93v2.11a5.12,5.12,0,0,0,5.12,5.12H145A93.15,93.15,0,0,0,329.19,99.85Z"/>
      <g>
        <path d="M30.51,113.1c-16.57,1.11-17.87-3.9-17.94-12.75h0c0-.17,0-.33,0-.5s0-.33,0-.5h0c.07-8.84,1.37-13.86,17.94-12.75,16,1.08,97.46,5.77,108.64,6.42v13.66C128,107.33,46.52,112,30.51,113.1Zm5-16.34a2.88,2.88,0,0,0-3.86-2.92l-8.51,2.41c-2.13.6-3.87,2.23-3.87,3.6s1.74,3,3.87,3.6l8.51,2.41a2.88,2.88,0,0,0,3.86-2.92Z"/>
        <rect class="cls-2" x="136.24" y="85.32" width="17.71" height="29.05"/>
        <circle cx="236.03" cy="99.85" r="88.04"/>
        <path class="cls-3" d="M281.85,167.81A87.47,87.47,0,0,1,160.38,68.26a82,82,0,0,0,121.47,99.55Z"/>
        <circle cx="236.03" cy="99.85" r="59.67"/>
        <circle class="cls-2" cx="236.03" cy="99.85" r="26.36"/>
      </g>
    </g>
  </g>
</svg>
