<svg id="Layer_1" data-name="Layer 1" xmlns="http://www.w3.org/2000/svg" width="108" height="54" viewBox="0 0 108 54">
  <defs>
    <style>
      .cls-1 {
        fill: none;
      }
    </style>
  </defs>
  <title>g-rotate</title>
  <rect class="cls-1" x="54" width="54" height="54" transform="translate(162 54) rotate(-180)"/>
  <path d="M29.75,46.09l-.43-3.42a15.87,15.87,0,1,1,8.6-3.93l-.1-4.31-3.05.07.17,6.81h0L35,44.37l3-.07h0l6.81-.16-.07-3.05-4.44.11A19.3,19.3,0,0,0,16,11.33,19.3,19.3,0,0,0,29.75,46.09Z"/>
  <path d="M96.76,37.8a19.3,19.3,0,1,0-28.62,2.89l-4.44-.11-.07,3.05,6.81.16h0l3,.07.07-3.05h0L73.73,34l-3.05-.07-.1,4.31a15.85,15.85,0,1,1,8.6,3.93l-.43,3.42A19.32,19.32,0,0,0,96.76,37.8Z"/>
  <rect class="cls-1" width="54" height="54"/>
</svg>
