<svg id="Layer_4" data-name="Layer 4" xmlns="http://www.w3.org/2000/svg" width="2000" height="783.05" viewBox="0 0 2000 783.05">
  <defs>
    <style>
      .cls-1 {
        fill: #0f0f0f;
      }

      .cls-2 {
        fill: none;
        stroke: #000;
        stroke-miterlimit: 10;
        stroke-width: 8.4px;
      }
    </style>
  </defs>
  <title>site-subdomain</title>
  <path class="cls-1" d="M101,783H89.75V546c0-46.84,39-84.95,87-84.95h916.1c36.5,0,66.19-28.87,66.19-64.36v-22.5h11.21v22.5c0,41.66-34.72,75.56-77.39,75.56H176.77C135,472.27,101,505.35,101,546Z"/>
  <g>
    <circle class="cls-2" cx="1915.97" cy="692.49" r="12.78"/>
    <circle class="cls-2" cx="1915.97" cy="585.86" r="12.78"/>
    <circle class="cls-2" cx="1915.97" cy="479.24" r="12.78"/>
  </g>
  <g>
    <rect x="668.84" y="167.24" width="21.72" height="21.72" rx="7.71" ry="7.71"/>
    <rect x="634.15" y="167.24" width="21.72" height="21.72" rx="7.71" ry="7.71"/>
    <rect x="599.45" y="167.24" width="21.72" height="21.72" rx="7.71" ry="7.71"/>
    <rect x="564.76" y="167.24" width="21.72" height="21.72" rx="7.71" ry="7.71"/>
    <rect x="530.07" y="167.24" width="21.72" height="21.72" rx="7.71" ry="7.71"/>
    <rect x="668.84" y="136.11" width="21.72" height="21.72" rx="7.71" ry="7.71"/>
    <rect x="634.15" y="136.11" width="21.72" height="21.72" rx="7.71" ry="7.71"/>
    <rect x="599.45" y="136.11" width="21.72" height="21.72" rx="7.71" ry="7.71"/>
    <rect x="564.76" y="136.11" width="21.72" height="21.72" rx="7.71" ry="7.71"/>
    <rect x="530.07" y="136.11" width="21.72" height="21.72" rx="7.71" ry="7.71"/>
    <rect x="668.84" y="104.98" width="21.72" height="21.72" rx="7.71" ry="7.71"/>
    <rect x="634.15" y="104.98" width="21.72" height="21.72" rx="7.71" ry="7.71"/>
    <rect x="599.45" y="104.98" width="21.72" height="21.72" rx="7.71" ry="7.71"/>
    <rect x="564.76" y="104.98" width="21.72" height="21.72" rx="7.71" ry="7.71"/>
    <rect x="530.07" y="104.98" width="21.72" height="21.72" rx="7.71" ry="7.71"/>
    <rect x="668.84" y="73.85" width="21.72" height="21.72" rx="7.71" ry="7.71"/>
    <rect x="634.15" y="73.85" width="21.72" height="21.72" rx="7.71" ry="7.71"/>
    <rect x="599.45" y="73.85" width="21.72" height="21.72" rx="7.71" ry="7.71"/>
    <rect x="564.76" y="73.85" width="21.72" height="21.72" rx="7.71" ry="7.71"/>
    <rect x="530.07" y="73.85" width="21.72" height="21.72" rx="7.71" ry="7.71"/>
    <rect x="668.84" y="290.59" width="21.72" height="21.72" rx="7.71" ry="7.71"/>
    <rect x="634.15" y="290.59" width="21.72" height="21.72" rx="7.71" ry="7.71"/>
    <rect x="599.45" y="290.59" width="21.72" height="21.72" rx="7.71" ry="7.71"/>
    <rect x="564.76" y="290.59" width="21.72" height="21.72" rx="7.71" ry="7.71"/>
    <rect x="530.07" y="290.59" width="21.72" height="21.72" rx="7.71" ry="7.71"/>
    <rect x="668.84" y="259.46" width="21.72" height="21.72" rx="7.71" ry="7.71"/>
    <rect x="634.15" y="259.46" width="21.72" height="21.72" rx="7.71" ry="7.71"/>
    <rect x="599.45" y="259.46" width="21.72" height="21.72" rx="7.71" ry="7.71"/>
    <rect x="564.76" y="259.46" width="21.72" height="21.72" rx="7.71" ry="7.71"/>
    <rect x="530.07" y="259.46" width="21.72" height="21.72" rx="7.71" ry="7.71"/>
    <rect x="668.84" y="228.33" width="21.72" height="21.72" rx="7.71" ry="7.71"/>
    <rect x="634.15" y="228.33" width="21.72" height="21.72" rx="7.71" ry="7.71"/>
    <rect x="599.45" y="228.33" width="21.72" height="21.72" rx="7.71" ry="7.71"/>
    <rect x="564.76" y="228.33" width="21.72" height="21.72" rx="7.71" ry="7.71"/>
    <rect x="530.07" y="228.33" width="21.72" height="21.72" rx="7.71" ry="7.71"/>
    <rect x="668.84" y="197.19" width="21.72" height="21.72" rx="7.71" ry="7.71"/>
    <rect x="634.15" y="197.19" width="21.72" height="21.72" rx="7.71" ry="7.71"/>
    <rect x="599.45" y="197.19" width="21.72" height="21.72" rx="7.71" ry="7.71"/>
    <rect x="564.76" y="197.19" width="21.72" height="21.72" rx="7.71" ry="7.71"/>
    <rect x="530.07" y="197.19" width="21.72" height="21.72" rx="7.71" ry="7.71"/>
    <rect x="497.46" y="167.24" width="21.72" height="21.72" rx="7.71" ry="7.71"/>
    <rect x="462.77" y="167.24" width="21.72" height="21.72" rx="7.71" ry="7.71"/>
    <rect x="428.08" y="167.24" width="21.72" height="21.72" rx="7.71" ry="7.71"/>
    <rect x="393.38" y="167.24" width="21.72" height="21.72" rx="7.71" ry="7.71"/>
    <rect x="358.69" y="167.24" width="21.72" height="21.72" rx="7.71" ry="7.71"/>
    <rect x="497.46" y="136.11" width="21.72" height="21.72" rx="7.71" ry="7.71"/>
    <rect x="462.77" y="136.11" width="21.72" height="21.72" rx="7.71" ry="7.71"/>
    <rect x="428.08" y="136.11" width="21.72" height="21.72" rx="7.71" ry="7.71"/>
    <rect x="393.38" y="136.11" width="21.72" height="21.72" rx="7.71" ry="7.71"/>
    <rect x="358.69" y="136.11" width="21.72" height="21.72" rx="7.71" ry="7.71"/>
    <rect x="497.46" y="104.98" width="21.72" height="21.72" rx="7.71" ry="7.71"/>
    <rect x="462.77" y="104.98" width="21.72" height="21.72" rx="7.71" ry="7.71"/>
    <rect x="428.08" y="104.98" width="21.72" height="21.72" rx="7.71" ry="7.71"/>
    <rect x="393.38" y="104.98" width="21.72" height="21.72" rx="7.71" ry="7.71"/>
    <rect x="358.69" y="104.98" width="21.72" height="21.72" rx="7.71" ry="7.71"/>
    <rect x="497.46" y="73.85" width="21.72" height="21.72" rx="7.71" ry="7.71"/>
    <rect x="462.77" y="73.85" width="21.72" height="21.72" rx="7.71" ry="7.71"/>
    <rect x="428.08" y="73.85" width="21.72" height="21.72" rx="7.71" ry="7.71"/>
    <rect x="393.38" y="73.85" width="21.72" height="21.72" rx="7.71" ry="7.71"/>
    <rect x="358.69" y="73.85" width="21.72" height="21.72" rx="7.71" ry="7.71"/>
    <rect x="497.46" y="290.59" width="21.72" height="21.72" rx="7.71" ry="7.71"/>
    <rect x="462.77" y="290.59" width="21.72" height="21.72" rx="7.71" ry="7.71"/>
    <rect x="428.08" y="290.59" width="21.72" height="21.72" rx="7.71" ry="7.71"/>
    <rect x="393.38" y="290.59" width="21.72" height="21.72" rx="7.71" ry="7.71"/>
    <rect x="358.69" y="290.59" width="21.72" height="21.72" rx="7.71" ry="7.71"/>
    <rect x="497.46" y="259.46" width="21.72" height="21.72" rx="7.71" ry="7.71"/>
    <rect x="462.77" y="259.46" width="21.72" height="21.72" rx="7.71" ry="7.71"/>
    <rect x="428.08" y="259.46" width="21.72" height="21.72" rx="7.71" ry="7.71"/>
    <rect x="393.38" y="259.46" width="21.72" height="21.72" rx="7.71" ry="7.71"/>
    <rect x="358.69" y="259.46" width="21.72" height="21.72" rx="7.71" ry="7.71"/>
    <rect x="497.46" y="228.33" width="21.72" height="21.72" rx="7.71" ry="7.71"/>
    <rect x="462.77" y="228.33" width="21.72" height="21.72" rx="7.71" ry="7.71"/>
    <rect x="428.08" y="228.33" width="21.72" height="21.72" rx="7.71" ry="7.71"/>
    <rect x="393.38" y="228.33" width="21.72" height="21.72" rx="7.71" ry="7.71"/>
    <rect x="358.69" y="228.33" width="21.72" height="21.72" rx="7.71" ry="7.71"/>
    <rect x="497.46" y="197.19" width="21.72" height="21.72" rx="7.71" ry="7.71"/>
    <rect x="462.77" y="197.19" width="21.72" height="21.72" rx="7.71" ry="7.71"/>
    <rect x="428.08" y="197.19" width="21.72" height="21.72" rx="7.71" ry="7.71"/>
    <rect x="393.38" y="197.19" width="21.72" height="21.72" rx="7.71" ry="7.71"/>
    <rect x="358.69" y="197.19" width="21.72" height="21.72" rx="7.71" ry="7.71"/>
    <rect x="325.08" y="167.24" width="21.72" height="21.72" rx="7.71" ry="7.71"/>
    <rect x="290.39" y="167.24" width="21.72" height="21.72" rx="7.71" ry="7.71"/>
    <rect x="255.7" y="167.24" width="21.72" height="21.72" rx="7.71" ry="7.71"/>
    <rect x="221.01" y="167.24" width="21.72" height="21.72" rx="7.71" ry="7.71"/>
    <rect x="186.31" y="167.24" width="21.72" height="21.72" rx="7.71" ry="7.71"/>
    <rect x="325.08" y="136.11" width="21.72" height="21.72" rx="7.71" ry="7.71"/>
    <rect x="290.39" y="136.11" width="21.72" height="21.72" rx="7.71" ry="7.71"/>
    <rect x="255.7" y="136.11" width="21.72" height="21.72" rx="7.71" ry="7.71"/>
    <rect x="221.01" y="136.11" width="21.72" height="21.72" rx="7.71" ry="7.71"/>
    <rect x="186.31" y="136.11" width="21.72" height="21.72" rx="7.71" ry="7.71"/>
    <rect x="325.08" y="104.98" width="21.72" height="21.72" rx="7.71" ry="7.71"/>
    <rect x="290.39" y="104.98" width="21.72" height="21.72" rx="7.71" ry="7.71"/>
    <rect x="255.7" y="104.98" width="21.72" height="21.72" rx="7.71" ry="7.71"/>
    <rect x="221.01" y="104.98" width="21.72" height="21.72" rx="7.71" ry="7.71"/>
    <rect x="186.31" y="104.98" width="21.72" height="21.72" rx="7.71" ry="7.71"/>
    <rect x="325.08" y="73.85" width="21.72" height="21.72" rx="7.71" ry="7.71"/>
    <rect x="290.39" y="73.85" width="21.72" height="21.72" rx="7.71" ry="7.71"/>
    <rect x="255.7" y="73.85" width="21.72" height="21.72" rx="7.71" ry="7.71"/>
    <rect x="221.01" y="73.85" width="21.72" height="21.72" rx="7.71" ry="7.71"/>
    <rect x="186.31" y="73.85" width="21.72" height="21.72" rx="7.71" ry="7.71"/>
    <rect x="325.08" y="290.59" width="21.72" height="21.72" rx="7.71" ry="7.71"/>
    <rect x="290.39" y="290.59" width="21.72" height="21.72" rx="7.71" ry="7.71"/>
    <rect x="255.7" y="290.59" width="21.72" height="21.72" rx="7.71" ry="7.71"/>
    <rect x="221.01" y="290.59" width="21.72" height="21.72" rx="7.71" ry="7.71"/>
    <rect x="186.31" y="290.59" width="21.72" height="21.72" rx="7.71" ry="7.71"/>
    <rect x="325.08" y="259.46" width="21.72" height="21.72" rx="7.71" ry="7.71"/>
    <rect x="290.39" y="259.46" width="21.72" height="21.72" rx="7.71" ry="7.71"/>
    <rect x="255.7" y="259.46" width="21.72" height="21.72" rx="7.71" ry="7.71"/>
    <rect x="221.01" y="259.46" width="21.72" height="21.72" rx="7.71" ry="7.71"/>
    <rect x="186.31" y="259.46" width="21.72" height="21.72" rx="7.71" ry="7.71"/>
    <rect x="325.08" y="228.33" width="21.72" height="21.72" rx="7.71" ry="7.71"/>
    <rect x="290.39" y="228.33" width="21.72" height="21.72" rx="7.71" ry="7.71"/>
    <rect x="255.7" y="228.33" width="21.72" height="21.72" rx="7.71" ry="7.71"/>
    <rect x="221.01" y="228.33" width="21.72" height="21.72" rx="7.71" ry="7.71"/>
    <rect x="186.31" y="228.33" width="21.72" height="21.72" rx="7.71" ry="7.71"/>
    <rect x="325.08" y="197.19" width="21.72" height="21.72" rx="7.71" ry="7.71"/>
    <rect x="290.39" y="197.19" width="21.72" height="21.72" rx="7.71" ry="7.71"/>
    <rect x="255.7" y="197.19" width="21.72" height="21.72" rx="7.71" ry="7.71"/>
    <rect x="221.01" y="197.19" width="21.72" height="21.72" rx="7.71" ry="7.71"/>
    <rect x="186.31" y="197.19" width="21.72" height="21.72" rx="7.71" ry="7.71"/>
  </g>
  <path class="cls-1" d="M1170.26,374.22l-11.21,0,.36-178.52c0-47.16,40.37-85.53,90-85.53H2000v11.21H1249.4c-43.44,0-78.78,33.35-78.78,74.34Z"/>
</svg>
