<svg width="156" height="104" viewBox="0 0 156 104" fill="none" xmlns="http://www.w3.org/2000/svg">
<path d="M29.1199 66.9809C29.3587 67.7623 29.5892 68.5437 29.8279 69.3333C30.4124 69.2675 31.0546 69.2017 31.6967 69.1195C32.0096 69.0783 32.166 69.177 32.1989 69.5225C32.2648 70.1723 32.3718 70.8139 32.4706 71.5048C33.2744 71.2642 34.4052 70.8468 35.4755 71.0935C35.1791 72.2944 34.6604 73.3308 33.8701 74.2109C29.4036 79.2284 18.7822 78.9865 16.2744 72.0394C21.1764 74.2412 26.5373 71.2817 28.947 66.948C29.0129 66.9644 29.0623 66.9727 29.1199 66.9809Z" fill="white"/>
<path d="M34.7922 63.7642C35.0227 63.7642 35.3438 63.7642 35.7143 63.7642C35.6731 64.6607 35.5331 65.5161 35.0556 66.2564C34.8251 66.6183 34.8498 66.8322 35.0968 67.1694C35.7143 68.0166 35.7966 68.9954 35.6813 70.0071C34.9157 70.0071 34.1912 70.0071 33.4256 70.0071C33.3515 69.711 33.5107 69.2767 33.0512 68.599C32.5916 67.9213 31.6932 67.8497 30.6595 68.0495C30.4372 67.4984 30.1902 66.8815 29.9021 66.1659C30.8034 65.7113 32.2452 65.4248 33.5038 65.9922C33.7673 66.1156 34.0541 65.9087 34.1282 65.7113C34.3752 65.0697 34.537 64.5044 34.7922 63.7642Z" fill="white"/>
<path d="M29.1199 14.9809C29.3587 15.7623 29.5892 16.5437 29.8279 17.3333C30.4124 17.2675 31.0546 17.2017 31.6967 17.1195C32.0096 17.0783 32.166 17.177 32.1989 17.5225C32.2648 18.1723 32.3718 18.8139 32.4706 19.5048C33.2744 19.2642 34.4052 18.8468 35.4755 19.0935C35.1791 20.2944 34.6604 21.3308 33.8701 22.2109C29.4036 27.2284 18.7822 26.9865 16.2744 20.0394C21.1764 22.2412 26.5373 19.2817 28.947 14.948C29.0129 14.9644 29.0623 14.9727 29.1199 14.9809Z" fill="white"/>
<path d="M34.7922 11.7642C35.0227 11.7642 35.3438 11.7642 35.7143 11.7642C35.6731 12.6607 35.5331 13.5161 35.0556 14.2564C34.8251 14.6183 34.8498 14.8322 35.0968 15.1694C35.7143 16.0166 35.7966 16.9954 35.6813 18.0071C34.9157 18.0071 34.1912 18.0071 33.4256 18.0071C33.3515 17.711 33.5107 17.2767 33.0512 16.599C32.5916 15.9213 31.6932 15.8497 30.6595 16.0495C30.4372 15.4984 30.1902 14.8815 29.9021 14.1659C30.8034 13.7113 32.2452 13.4248 33.5038 13.9922C33.7673 14.1156 34.0541 13.9087 34.1282 13.7113C34.3752 13.0697 34.537 12.5044 34.7922 11.7642Z" fill="white"/>
<path d="M15.7832 90.2773C15.7832 90.0234 15.6777 89.8301 15.4668 89.6973C15.2598 89.5645 14.9141 89.4473 14.4297 89.3457C13.9453 89.2441 13.541 89.1152 13.2168 88.959C12.5059 88.6152 12.1504 88.1172 12.1504 87.4648C12.1504 86.918 12.3809 86.4609 12.8418 86.0938C13.3027 85.7266 13.8887 85.543 14.5996 85.543C15.3574 85.543 15.9688 85.7305 16.4336 86.1055C16.9023 86.4805 17.1367 86.9668 17.1367 87.5645H15.7129C15.7129 87.291 15.6113 87.0645 15.4082 86.8848C15.2051 86.7012 14.9355 86.6094 14.5996 86.6094C14.2871 86.6094 14.0312 86.6816 13.832 86.8262C13.6367 86.9707 13.5391 87.1641 13.5391 87.4062C13.5391 87.625 13.6309 87.7949 13.8145 87.916C13.998 88.0371 14.3691 88.1602 14.9277 88.2852C15.4863 88.4062 15.9238 88.5527 16.2402 88.7246C16.5605 88.8926 16.7969 89.0957 16.9492 89.334C17.1055 89.5723 17.1836 89.8613 17.1836 90.2012C17.1836 90.7715 16.9473 91.2344 16.4746 91.5898C16.002 91.9414 15.3828 92.1172 14.6172 92.1172C14.0977 92.1172 13.6348 92.0234 13.2285 91.8359C12.8223 91.6484 12.5059 91.3906 12.2793 91.0625C12.0527 90.7344 11.9395 90.3809 11.9395 90.002H13.3223C13.3418 90.3379 13.4688 90.5977 13.7031 90.7812C13.9375 90.9609 14.248 91.0508 14.6348 91.0508C15.0098 91.0508 15.2949 90.9805 15.4902 90.8398C15.6855 90.6953 15.7832 90.5078 15.7832 90.2773ZM23.9805 88.8945C23.9805 89.875 23.7578 90.6582 23.3125 91.2441C22.8672 91.8262 22.2695 92.1172 21.5195 92.1172C20.8242 92.1172 20.2676 91.8887 19.8496 91.4316V94.4375H18.4258V85.6602H19.7383L19.7969 86.3047C20.2148 85.7969 20.7832 85.543 21.502 85.543C22.2754 85.543 22.8809 85.832 23.3184 86.4102C23.7598 86.9844 23.9805 87.7832 23.9805 88.8066V88.8945ZM22.5625 88.7715C22.5625 88.1387 22.4355 87.6367 22.1816 87.2656C21.9316 86.8945 21.5723 86.709 21.1035 86.709C20.5215 86.709 20.1035 86.9492 19.8496 87.4297V90.2422C20.1074 90.7344 20.5293 90.9805 21.1152 90.9805C21.5684 90.9805 21.9219 90.7988 22.1758 90.4355C22.4336 90.0684 22.5625 89.5137 22.5625 88.7715ZM26.7051 92H25.2812V85.6602H26.7051V92ZM25.1934 84.0137C25.1934 83.7949 25.2617 83.6133 25.3984 83.4688C25.5391 83.3242 25.7383 83.252 25.9961 83.252C26.2539 83.252 26.4531 83.3242 26.5938 83.4688C26.7344 83.6133 26.8047 83.7949 26.8047 84.0137C26.8047 84.2285 26.7344 84.4082 26.5938 84.5527C26.4531 84.6934 26.2539 84.7637 25.9961 84.7637C25.7383 84.7637 25.5391 84.6934 25.3984 84.5527C25.2617 84.4082 25.1934 84.2285 25.1934 84.0137ZM30.8652 90.9805C31.2207 90.9805 31.5156 90.877 31.75 90.6699C31.9844 90.4629 32.1094 90.207 32.125 89.9023H33.4668C33.4512 90.2969 33.3281 90.666 33.0977 91.0098C32.8672 91.3496 32.5547 91.6191 32.1602 91.8184C31.7656 92.0176 31.3398 92.1172 30.8828 92.1172C29.9961 92.1172 29.293 91.8301 28.7734 91.2559C28.2539 90.6816 27.9941 89.8887 27.9941 88.877V88.7305C27.9941 87.7656 28.252 86.9941 28.7676 86.416C29.2832 85.834 29.9863 85.543 30.877 85.543C31.6309 85.543 32.2441 85.7637 32.7168 86.2051C33.1934 86.6426 33.4434 87.2188 33.4668 87.9336H32.125C32.1094 87.5703 31.9844 87.2715 31.75 87.0371C31.5195 86.8027 31.2246 86.6855 30.8652 86.6855C30.4043 86.6855 30.0488 86.8535 29.7988 87.1895C29.5488 87.5215 29.4219 88.0273 29.418 88.707V88.9355C29.418 89.623 29.541 90.1367 29.7871 90.4766C30.0371 90.8125 30.3965 90.9805 30.8652 90.9805ZM36.7598 89.9609L38.0488 85.6602H39.5664L37.0469 92.9609C36.6602 94.0273 36.0039 94.5605 35.0781 94.5605C34.8711 94.5605 34.6426 94.5254 34.3926 94.4551V93.3535L34.6621 93.3711C35.0215 93.3711 35.291 93.3047 35.4707 93.1719C35.6543 93.043 35.7988 92.8242 35.9043 92.5156L36.1094 91.9707L33.8828 85.6602H35.418L36.7598 89.9609Z" fill="white"/>
<path d="M15.7832 38.2773C15.7832 38.0234 15.6777 37.8301 15.4668 37.6973C15.2598 37.5645 14.9141 37.4473 14.4297 37.3457C13.9453 37.2441 13.541 37.1152 13.2168 36.959C12.5059 36.6152 12.1504 36.1172 12.1504 35.4648C12.1504 34.918 12.3809 34.4609 12.8418 34.0938C13.3027 33.7266 13.8887 33.543 14.5996 33.543C15.3574 33.543 15.9688 33.7305 16.4336 34.1055C16.9023 34.4805 17.1367 34.9668 17.1367 35.5645H15.7129C15.7129 35.291 15.6113 35.0645 15.4082 34.8848C15.2051 34.7012 14.9355 34.6094 14.5996 34.6094C14.2871 34.6094 14.0312 34.6816 13.832 34.8262C13.6367 34.9707 13.5391 35.1641 13.5391 35.4062C13.5391 35.625 13.6309 35.7949 13.8145 35.916C13.998 36.0371 14.3691 36.1602 14.9277 36.2852C15.4863 36.4062 15.9238 36.5527 16.2402 36.7246C16.5605 36.8926 16.7969 37.0957 16.9492 37.334C17.1055 37.5723 17.1836 37.8613 17.1836 38.2012C17.1836 38.7715 16.9473 39.2344 16.4746 39.5898C16.002 39.9414 15.3828 40.1172 14.6172 40.1172C14.0977 40.1172 13.6348 40.0234 13.2285 39.8359C12.8223 39.6484 12.5059 39.3906 12.2793 39.0625C12.0527 38.7344 11.9395 38.3809 11.9395 38.002H13.3223C13.3418 38.3379 13.4688 38.5977 13.7031 38.7812C13.9375 38.9609 14.248 39.0508 14.6348 39.0508C15.0098 39.0508 15.2949 38.9805 15.4902 38.8398C15.6855 38.6953 15.7832 38.5078 15.7832 38.2773ZM23.9805 36.8945C23.9805 37.875 23.7578 38.6582 23.3125 39.2441C22.8672 39.8262 22.2695 40.1172 21.5195 40.1172C20.8242 40.1172 20.2676 39.8887 19.8496 39.4316V42.4375H18.4258V33.6602H19.7383L19.7969 34.3047C20.2148 33.7969 20.7832 33.543 21.502 33.543C22.2754 33.543 22.8809 33.832 23.3184 34.4102C23.7598 34.9844 23.9805 35.7832 23.9805 36.8066V36.8945ZM22.5625 36.7715C22.5625 36.1387 22.4355 35.6367 22.1816 35.2656C21.9316 34.8945 21.5723 34.709 21.1035 34.709C20.5215 34.709 20.1035 34.9492 19.8496 35.4297V38.2422C20.1074 38.7344 20.5293 38.9805 21.1152 38.9805C21.5684 38.9805 21.9219 38.7988 22.1758 38.4355C22.4336 38.0684 22.5625 37.5137 22.5625 36.7715ZM26.7051 40H25.2812V33.6602H26.7051V40ZM25.1934 32.0137C25.1934 31.7949 25.2617 31.6133 25.3984 31.4688C25.5391 31.3242 25.7383 31.252 25.9961 31.252C26.2539 31.252 26.4531 31.3242 26.5938 31.4688C26.7344 31.6133 26.8047 31.7949 26.8047 32.0137C26.8047 32.2285 26.7344 32.4082 26.5938 32.5527C26.4531 32.6934 26.2539 32.7637 25.9961 32.7637C25.7383 32.7637 25.5391 32.6934 25.3984 32.5527C25.2617 32.4082 25.1934 32.2285 25.1934 32.0137ZM30.8652 38.9805C31.2207 38.9805 31.5156 38.877 31.75 38.6699C31.9844 38.4629 32.1094 38.207 32.125 37.9023H33.4668C33.4512 38.2969 33.3281 38.666 33.0977 39.0098C32.8672 39.3496 32.5547 39.6191 32.1602 39.8184C31.7656 40.0176 31.3398 40.1172 30.8828 40.1172C29.9961 40.1172 29.293 39.8301 28.7734 39.2559C28.2539 38.6816 27.9941 37.8887 27.9941 36.877V36.7305C27.9941 35.7656 28.252 34.9941 28.7676 34.416C29.2832 33.834 29.9863 33.543 30.877 33.543C31.6309 33.543 32.2441 33.7637 32.7168 34.2051C33.1934 34.6426 33.4434 35.2188 33.4668 35.9336H32.125C32.1094 35.5703 31.9844 35.2715 31.75 35.0371C31.5195 34.8027 31.2246 34.6855 30.8652 34.6855C30.4043 34.6855 30.0488 34.8535 29.7988 35.1895C29.5488 35.5215 29.4219 36.0273 29.418 36.707V36.9355C29.418 37.623 29.541 38.1367 29.7871 38.4766C30.0371 38.8125 30.3965 38.9805 30.8652 38.9805ZM36.7598 37.9609L38.0488 33.6602H39.5664L37.0469 40.9609C36.6602 42.0273 36.0039 42.5605 35.0781 42.5605C34.8711 42.5605 34.6426 42.5254 34.3926 42.4551V41.3535L34.6621 41.3711C35.0215 41.3711 35.291 41.3047 35.4707 41.1719C35.6543 41.043 35.7988 40.8242 35.9043 40.5156L36.1094 39.9707L33.8828 33.6602H35.418L36.7598 37.9609Z" fill="white"/>
<path d="M73.1328 86.3516C73.5977 85.8125 74.1855 85.543 74.8965 85.543C76.248 85.543 76.9336 86.3145 76.9531 87.8574V92H75.5293V87.9102C75.5293 87.4727 75.4336 87.1641 75.2422 86.9844C75.0547 86.8008 74.7773 86.709 74.4102 86.709C73.8398 86.709 73.4141 86.9629 73.1328 87.4707V92H71.709V83H73.1328V86.3516ZM79.9121 92H78.4883V85.6602H79.9121V92ZM78.4004 84.0137C78.4004 83.7949 78.4688 83.6133 78.6055 83.4688C78.7461 83.3242 78.9453 83.252 79.2031 83.252C79.4609 83.252 79.6602 83.3242 79.8008 83.4688C79.9414 83.6133 80.0117 83.7949 80.0117 84.0137C80.0117 84.2285 79.9414 84.4082 79.8008 84.5527C79.6602 84.6934 79.4609 84.7637 79.2031 84.7637C78.9453 84.7637 78.7461 84.6934 78.6055 84.5527C78.4688 84.4082 78.4004 84.2285 78.4004 84.0137ZM83.252 84.1191V85.6602H84.3711V86.7148H83.252V90.2539C83.252 90.4961 83.2988 90.6719 83.3926 90.7812C83.4902 90.8867 83.6621 90.9395 83.9082 90.9395C84.0723 90.9395 84.2383 90.9199 84.4062 90.8809V91.9824C84.082 92.0723 83.7695 92.1172 83.4688 92.1172C82.375 92.1172 81.8281 91.5137 81.8281 90.3066V86.7148H80.7852V85.6602H81.8281V84.1191H83.252Z" fill="white"/>
<path d="M73.1328 34.3516C73.5977 33.8125 74.1855 33.543 74.8965 33.543C76.248 33.543 76.9336 34.3145 76.9531 35.8574V40H75.5293V35.9102C75.5293 35.4727 75.4336 35.1641 75.2422 34.9844C75.0547 34.8008 74.7773 34.709 74.4102 34.709C73.8398 34.709 73.4141 34.9629 73.1328 35.4707V40H71.709V31H73.1328V34.3516ZM79.9121 40H78.4883V33.6602H79.9121V40ZM78.4004 32.0137C78.4004 31.7949 78.4688 31.6133 78.6055 31.4688C78.7461 31.3242 78.9453 31.252 79.2031 31.252C79.4609 31.252 79.6602 31.3242 79.8008 31.4688C79.9414 31.6133 80.0117 31.7949 80.0117 32.0137C80.0117 32.2285 79.9414 32.4082 79.8008 32.5527C79.6602 32.6934 79.4609 32.7637 79.2031 32.7637C78.9453 32.7637 78.7461 32.6934 78.6055 32.5527C78.4688 32.4082 78.4004 32.2285 78.4004 32.0137ZM83.252 32.1191V33.6602H84.3711V34.7148H83.252V38.2539C83.252 38.4961 83.2988 38.6719 83.3926 38.7812C83.4902 38.8867 83.6621 38.9395 83.9082 38.9395C84.0723 38.9395 84.2383 38.9199 84.4062 38.8809V39.9824C84.082 40.0723 83.7695 40.1172 83.4688 40.1172C82.375 40.1172 81.8281 39.5137 81.8281 38.3066V34.7148H80.7852V33.6602H81.8281V32.1191H83.252Z" fill="white"/>
<path d="M80.6041 68.2903C81.4374 68.3326 82.2494 68.3607 83.0474 68.4311C83.8948 68.5015 84.7563 68.5438 85.5825 68.7268C86.6418 68.9592 87.1502 70.1772 86.3805 71.1065C86.324 71.1769 86.2816 71.3248 86.3169 71.3952C86.6488 72.1696 86.557 72.7188 85.9497 73.3383C86.3593 74.0635 86.2746 74.7253 85.6814 75.3308C85.632 75.3801 85.632 75.5209 85.6531 75.5983C85.8438 76.3024 85.6037 76.9571 84.9187 77.2106C84.3326 77.4288 83.69 77.6119 83.0686 77.626C80.8371 77.6752 78.5986 77.6471 76.3601 77.6471C75.5409 77.6471 74.9054 77.0064 74.9054 76.1827C74.9054 74.1057 74.8983 72.0288 74.9125 69.9519C74.9195 69.3464 75.1384 68.8606 75.7528 68.5931C76.4166 68.3044 76.8473 67.7271 77.3275 67.2131C77.3769 67.1638 77.4052 67.0934 77.4617 67.0512C78.5421 66.1641 79.0011 64.9179 79.446 63.6647C79.6932 62.9677 80.0886 62.7917 80.823 63.01C81.2396 63.1367 81.3385 63.4958 81.4162 63.8759C81.5998 64.8123 81.3456 65.6994 81.1055 66.5795C80.9289 67.1357 80.7736 67.6919 80.6041 68.2903Z" fill="white"/>
<path d="M73.7684 73.1129C73.7684 74.2464 73.7684 75.387 73.7684 76.5205C73.7684 77.1471 73.3024 77.6329 72.6739 77.647C71.8971 77.661 71.1203 77.661 70.3436 77.647C69.7292 77.6329 69.249 77.126 69.249 76.5134C69.249 74.2394 69.249 71.9653 69.249 69.6912C69.249 69.0858 69.7292 68.5788 70.3506 68.5648C71.1274 68.5507 71.9042 68.5507 72.681 68.5648C73.3306 68.5788 73.7967 69.1773 73.7826 69.6983C73.7543 70.8388 73.7755 71.9723 73.7684 73.1129Z" fill="white"/>
<path d="M80.6041 16.2903C81.4374 16.3326 82.2494 16.3607 83.0474 16.4311C83.8948 16.5015 84.7563 16.5438 85.5825 16.7268C86.6418 16.9592 87.1502 18.1772 86.3805 19.1065C86.324 19.1769 86.2816 19.3248 86.3169 19.3952C86.6488 20.1696 86.557 20.7188 85.9497 21.3383C86.3593 22.0635 86.2746 22.7253 85.6814 23.3308C85.632 23.3801 85.632 23.5209 85.6531 23.5983C85.8438 24.3024 85.6037 24.9571 84.9187 25.2106C84.3326 25.4288 83.69 25.6119 83.0686 25.626C80.8371 25.6752 78.5986 25.6471 76.3601 25.6471C75.5409 25.6471 74.9054 25.0064 74.9054 24.1827C74.9054 22.1057 74.8983 20.0288 74.9125 17.9519C74.9195 17.3464 75.1384 16.8606 75.7528 16.5931C76.4166 16.3044 76.8473 15.7271 77.3275 15.2131C77.3769 15.1638 77.4052 15.0934 77.4617 15.0512C78.5421 14.1641 79.0011 12.9179 79.446 11.6647C79.6932 10.9677 80.0886 10.7917 80.823 11.01C81.2396 11.1367 81.3385 11.4958 81.4162 11.8759C81.5998 12.8123 81.3456 13.6994 81.1055 14.5795C80.9289 15.1357 80.7736 15.6919 80.6041 16.2903Z" fill="white"/>
<path d="M73.7684 21.1129C73.7684 22.2464 73.7684 23.387 73.7684 24.5205C73.7684 25.1471 73.3024 25.6329 72.6739 25.647C71.8971 25.661 71.1203 25.661 70.3436 25.647C69.7292 25.6329 69.249 25.126 69.249 24.5134C69.249 22.2394 69.249 19.9653 69.249 17.6912C69.249 17.0858 69.7292 16.5788 70.3506 16.5648C71.1274 16.5507 71.9042 16.5507 72.681 16.5648C73.3306 16.5788 73.7967 17.1773 73.7826 17.6983C73.7543 18.8388 73.7755 19.9723 73.7684 21.1129Z" fill="white"/>
<path d="M122.965 90.1953L124.307 85.6602H125.777L123.58 92H122.344L120.129 85.6602H121.605L122.965 90.1953ZM129.381 92.1172C128.479 92.1172 127.746 91.834 127.184 91.2676C126.625 90.6973 126.346 89.9395 126.346 88.9941V88.8184C126.346 88.1855 126.467 87.6211 126.709 87.125C126.955 86.625 127.299 86.2363 127.74 85.959C128.182 85.6816 128.674 85.543 129.217 85.543C130.08 85.543 130.746 85.8184 131.215 86.3691C131.688 86.9199 131.924 87.6992 131.924 88.707V89.2812H127.781C127.824 89.8047 127.998 90.2188 128.303 90.5234C128.611 90.8281 128.998 90.9805 129.463 90.9805C130.115 90.9805 130.646 90.7168 131.057 90.1895L131.824 90.9219C131.57 91.3008 131.23 91.5957 130.805 91.8066C130.383 92.0137 129.908 92.1172 129.381 92.1172ZM129.211 86.6855C128.82 86.6855 128.504 86.8223 128.262 87.0957C128.023 87.3691 127.871 87.75 127.805 88.2383H130.518V88.1328C130.486 87.6562 130.359 87.2969 130.137 87.0547C129.914 86.8086 129.605 86.6855 129.211 86.6855ZM132.785 88.7832C132.785 87.7988 133.016 87.0137 133.477 86.4277C133.941 85.8379 134.557 85.543 135.322 85.543C136.045 85.543 136.613 85.7949 137.027 86.2988L137.092 85.6602H138.375V91.8066C138.375 92.6387 138.115 93.2949 137.596 93.7754C137.08 94.2559 136.383 94.4961 135.504 94.4961C135.039 94.4961 134.584 94.3984 134.139 94.2031C133.697 94.0117 133.361 93.7598 133.131 93.4473L133.805 92.5918C134.242 93.1113 134.781 93.3711 135.422 93.3711C135.895 93.3711 136.268 93.2422 136.541 92.9844C136.814 92.7305 136.951 92.3555 136.951 91.8594V91.4316C136.541 91.8887 135.994 92.1172 135.311 92.1172C134.568 92.1172 133.961 91.8223 133.488 91.2324C133.02 90.6426 132.785 89.8262 132.785 88.7832ZM134.203 88.9062C134.203 89.543 134.332 90.0449 134.59 90.4121C134.852 90.7754 135.213 90.957 135.674 90.957C136.248 90.957 136.674 90.7109 136.951 90.2188V87.4297C136.682 86.9492 136.26 86.709 135.686 86.709C135.217 86.709 134.852 86.8945 134.59 87.2656C134.332 87.6367 134.203 88.1836 134.203 88.9062Z" fill="white"/>
<path d="M122.965 38.1953L124.307 33.6602H125.777L123.58 40H122.344L120.129 33.6602H121.605L122.965 38.1953ZM129.381 40.1172C128.479 40.1172 127.746 39.834 127.184 39.2676C126.625 38.6973 126.346 37.9395 126.346 36.9941V36.8184C126.346 36.1855 126.467 35.6211 126.709 35.125C126.955 34.625 127.299 34.2363 127.74 33.959C128.182 33.6816 128.674 33.543 129.217 33.543C130.08 33.543 130.746 33.8184 131.215 34.3691C131.688 34.9199 131.924 35.6992 131.924 36.707V37.2812H127.781C127.824 37.8047 127.998 38.2188 128.303 38.5234C128.611 38.8281 128.998 38.9805 129.463 38.9805C130.115 38.9805 130.646 38.7168 131.057 38.1895L131.824 38.9219C131.57 39.3008 131.23 39.5957 130.805 39.8066C130.383 40.0137 129.908 40.1172 129.381 40.1172ZM129.211 34.6855C128.82 34.6855 128.504 34.8223 128.262 35.0957C128.023 35.3691 127.871 35.75 127.805 36.2383H130.518V36.1328C130.486 35.6562 130.359 35.2969 130.137 35.0547C129.914 34.8086 129.605 34.6855 129.211 34.6855ZM132.785 36.7832C132.785 35.7988 133.016 35.0137 133.477 34.4277C133.941 33.8379 134.557 33.543 135.322 33.543C136.045 33.543 136.613 33.7949 137.027 34.2988L137.092 33.6602H138.375V39.8066C138.375 40.6387 138.115 41.2949 137.596 41.7754C137.08 42.2559 136.383 42.4961 135.504 42.4961C135.039 42.4961 134.584 42.3984 134.139 42.2031C133.697 42.0117 133.361 41.7598 133.131 41.4473L133.805 40.5918C134.242 41.1113 134.781 41.3711 135.422 41.3711C135.895 41.3711 136.268 41.2422 136.541 40.9844C136.814 40.7305 136.951 40.3555 136.951 39.8594V39.4316C136.541 39.8887 135.994 40.1172 135.311 40.1172C134.568 40.1172 133.961 39.8223 133.488 39.2324C133.02 38.6426 132.785 37.8262 132.785 36.7832ZM134.203 36.9062C134.203 37.543 134.332 38.0449 134.59 38.4121C134.852 38.7754 135.213 38.957 135.674 38.957C136.248 38.957 136.674 38.7109 136.951 38.2188V35.4297C136.682 34.9492 136.26 34.709 135.686 34.709C135.217 34.709 134.852 34.8945 134.59 35.2656C134.332 35.6367 134.203 36.1836 134.203 36.9062Z" fill="white"/>
<path d="M126.4 70.2464L132.627 76.4739C132.656 75.9213 132.681 74.7018 132.471 73.2406C132.094 70.6071 131.122 68.4434 129.663 66.9836C128.203 65.5238 126.039 64.5525 123.406 64.1749C121.446 63.8939 119.92 64.0343 119.856 64.0405C119.543 64.0705 119.295 64.3186 119.265 64.6321C119.259 64.696 119.118 66.2218 119.399 68.1814C119.777 70.8149 120.748 72.9786 122.208 74.4383C123.668 75.8982 125.831 76.8694 128.465 77.247C129.435 77.3861 130.298 77.4219 130.931 77.4219C131.251 77.4219 131.512 77.4127 131.698 77.403L125.471 71.1756C125.214 70.919 125.214 70.503 125.471 70.2464C125.727 69.9898 126.143 69.9898 126.4 70.2464Z" fill="white"/>
<path d="M140.747 68.5981C140.717 68.2846 140.468 68.0364 140.155 68.0065C139.979 67.9897 135.826 67.6233 133.407 70.042C133.313 70.1362 133.223 70.2331 133.137 70.3322C133.42 71.179 133.634 72.0891 133.772 73.054C133.816 73.363 133.851 73.6612 133.878 73.9462L135.594 72.2293C135.851 71.9728 136.267 71.9728 136.524 72.2293C136.78 72.4859 136.78 72.9019 136.524 73.1586L133.961 75.7213C133.96 76.3911 133.922 76.8277 133.914 76.9149C133.899 77.0691 133.866 77.2179 133.818 77.3598C135.278 77.2248 137.293 76.7644 138.711 75.3459C141.13 72.9273 140.763 68.7737 140.747 68.5981Z" fill="white"/>
<path d="M126.4 18.2464L132.627 24.4739C132.656 23.9213 132.681 22.7018 132.471 21.2406C132.094 18.6071 131.122 16.4434 129.663 14.9836C128.203 13.5238 126.039 12.5525 123.406 12.1749C121.446 11.8939 119.92 12.0343 119.856 12.0405C119.543 12.0705 119.295 12.3186 119.265 12.6321C119.259 12.696 119.118 14.2218 119.399 16.1814C119.777 18.8149 120.748 20.9786 122.208 22.4383C123.668 23.8982 125.831 24.8694 128.465 25.247C129.435 25.3861 130.298 25.4219 130.931 25.4219C131.251 25.4219 131.512 25.4127 131.698 25.403L125.471 19.1756C125.214 18.919 125.214 18.503 125.471 18.2464C125.727 17.9898 126.143 17.9898 126.4 18.2464Z" fill="white"/>
<path d="M140.747 16.5981C140.717 16.2846 140.468 16.0364 140.155 16.0065C139.979 15.9897 135.826 15.6233 133.407 18.042C133.313 18.1362 133.223 18.2331 133.137 18.3322C133.42 19.179 133.634 20.0891 133.772 21.054C133.816 21.363 133.851 21.6612 133.878 21.9462L135.594 20.2293C135.851 19.9728 136.267 19.9728 136.524 20.2293C136.78 20.4859 136.78 20.9019 136.524 21.1586L133.961 23.7213C133.96 24.3911 133.922 24.8277 133.914 24.9149C133.899 25.0691 133.866 25.2179 133.818 25.3598C135.278 25.2248 137.293 24.7644 138.711 23.3459C141.13 20.9273 140.763 16.7737 140.747 16.5981Z" fill="white"/>
<path d="M4 0V40C4 44.4183 7.58172 48 12 48H40C44.4183 48 48 44.4183 48 40V0" stroke="white" stroke-width="2"/>
<path d="M56 0V40C56 44.4183 59.5817 48 64 48H92C96.4183 48 100 44.4183 100 40V0" stroke="white" stroke-width="2"/>
<path d="M108 0V40C108 44.4183 111.582 48 116 48H144C148.418 48 152 44.4183 152 40V0" stroke="white" stroke-width="2"/>
</svg>
