<svg id="Layer_1" data-name="Layer 1" xmlns="http://www.w3.org/2000/svg" xmlns:xlink="http://www.w3.org/1999/xlink" width="89" height="193" viewBox="0 0 89 193">
  <defs>
    <style>
      .cls-1 {
        fill: none;
      }

      .cls-2 {
        clip-path: url(#clip-path);
      }

      .cls-3 {
        fill: #fff;
      }

      .cls-4 {
        fill: #fff040;
      }
    </style>
    <clipPath id="clip-path">
      <rect class="cls-1" x="9" width="80" height="192" transform="translate(98 192) rotate(-180)"/>
    </clipPath>
  </defs>
  <title>site2-exp-29</title>
  <g class="cls-2">
    <g>
      <path class="cls-3" d="M66,191.51c-31.38,0-56.9-25-56.9-55.74A55.05,55.05,0,0,1,22.75,99.56,57.23,57.23,0,0,1,54,81.29V76.07A3.07,3.07,0,0,1,57.07,73h1.34c-.73-12.36-3-51.54-3.62-60-.39-5.74.34-9.14,2.45-11.37S62.54-1,65.53-1h.95c3,0,6.06.28,8.29,2.64S77.61,7.27,77.21,13c-.54,7.94-2.59,42.39-3.62,60h1.34A3.07,3.07,0,0,1,78,76.07v5.22a57.23,57.23,0,0,1,31.25,18.27,55.05,55.05,0,0,1,13.65,36.21C122.9,166.51,97.38,191.51,66,191.51Z"/>
      <g>
        <path d="M70.38,78h-8.2c-.39-7-3.21-55.93-3.85-65.54C57.66,2.51,60.67,1.73,66,1.69h1c4.89,0,7.9.82,7.23,10.77C73.59,22.07,70.77,71,70.38,78ZM68.14,15a1.73,1.73,0,0,0,1.75-2.32L68.44,7.57c-.36-1.28-1.34-2.32-2.16-2.32s-1.8,1-2.16,2.32l-1.45,5.11A1.73,1.73,0,0,0,64.42,15Z"/>
        <rect class="cls-4" x="58" y="76" width="17" height="11"/>
        <circle cx="66.28" cy="135.84" r="52.85"/>
        <path class="cls-3" d="M107.08,163.34A52.51,52.51,0,0,0,47.31,90.42a49.21,49.21,0,0,1,59.76,72.92Z"/>
        <circle cx="66.28" cy="135.84" r="35.82"/>
        <circle class="cls-4" cx="66.28" cy="135.84" r="15.82"/>
      </g>
    </g>
  </g>
</svg>
