<svg xmlns="http://www.w3.org/2000/svg" viewBox="-2723.78 -462.438 142.858 70.817">
  <g id="Group_2204" data-name="Group 2204" transform="translate(-3102 -579)">
    <path id="Path_2421" data-name="Path 2421" d="M34.609,56.725A17.847,17.847,0,0,1,28.3,53.165l-.864-.735-.864.683a25.737,25.737,0,0,1-7.363,3.95,34.959,34.959,0,0,1-8.1,1.046v2.826a36.523,36.523,0,0,0,8.867-1.184A26.792,26.792,0,0,0,27.34,56a20.327,20.327,0,0,0,6.292,3.362,34.959,34.959,0,0,0,10.224,1.607V58.108a27.837,27.837,0,0,1-9.247-1.383Z" transform="translate(374.231 107.569)"/>
    <rect id="Rectangle_653" data-name="Rectangle 653" width="5.367" height="2.826" transform="translate(398.944 173.023)"/>
    <path id="Path_2422" data-name="Path 2422" d="M24.43,47.441a4.58,4.58,0,1,0-4.58-4.58,4.58,4.58,0,0,0,4.58,4.58Zm0-6.629a2.048,2.048,0,1,1-2.048,2.048,2,2,0,0,1,2.048-2.048Z" transform="translate(373.044 109.49)"/>
    <path id="Path_2423" data-name="Path 2423" d="M36.06,47.441a4.58,4.58,0,1,0-4.58-4.58,4.58,4.58,0,0,0,4.58,4.58Zm0-6.629a2.048,2.048,0,1,1-2.048,2.048A2.048,2.048,0,0,1,36.06,40.812Z" transform="translate(371.465 109.49)"/>
    <path id="Path_2424" data-name="Path 2424" d="M41.009,29.515v-5.7A8.729,8.729,0,0,0,39,6.6a10.276,10.276,0,0,0-4.485.977,8.91,8.91,0,0,0-8.288-5.41h-.1a8.055,8.055,0,0,0-6.093,2.783,10.025,10.025,0,0,0-1.849,2.826A8.971,8.971,0,0,0,13.872,6.56a8.72,8.72,0,0,0-1.167,17.363v5.652a24.026,24.026,0,1,0,28.3-.06ZM8.038,15.229a5.885,5.885,0,0,1,5.9-5.9,6.914,6.914,0,0,1,4.1,1.659L19.766,12.4l.588-2.143c.147-.536,1.512-5.263,5.9-5.315h.06a6.421,6.421,0,0,1,6.2,5.116l.493,2.333,1.728-1.607a6.326,6.326,0,0,1,4.243-1.366,5.911,5.911,0,0,1,.536,11.8l-1.314.1v7.553H15.592V21.183H14.218a6.05,6.05,0,0,1-6.179-5.955Zm18.866,55A21.2,21.2,0,0,1,14.667,31.71H39.194A21.2,21.2,0,0,1,26.9,70.229Z" transform="translate(375.349 114.393)"/>
    <path id="Path_2425" data-name="Path 2425" d="M94.155,39.944a12.687,12.687,0,0,1-5.056.864c-6.81,0-10.319-4.235-10.319-9.844,0-6.724,4.8-10.466,10.751-10.466a11.607,11.607,0,0,1,4.848.864L93.515,24.9a9.619,9.619,0,0,0-3.742-.726c-3.535,0-6.283,2.135-6.283,6.516,0,3.941,2.342,6.43,6.309,6.43a11.14,11.14,0,0,0,3.682-.631Z" transform="translate(365.044 111.905)"/>
    <path id="Path_2426" data-name="Path 2426" d="M99.68,19.64h4.442v8.15h.06a5.35,5.35,0,0,1,1.728-1.461,5,5,0,0,1,2.308-.553c2.835,0,5,1.953,5,6.257V40.39h-4.442V32.526c0-1.867-.64-3.154-2.308-3.154a2.368,2.368,0,0,0-2.187,1.556,2.835,2.835,0,0,0-.147.994V40.4H99.68Z" transform="translate(362.207 112.021)"/>
    <path id="Path_2427" data-name="Path 2427" d="M122.782,35.6c.147,1.841,1.962,2.714,4.036,2.714a12.592,12.592,0,0,0,3.941-.588l.588,3.008a14.113,14.113,0,0,1-5.185.864c-4.848,0-7.631-2.809-7.631-7.277,0-3.621,2.247-7.631,7.216-7.631,4.615,0,6.369,3.6,6.369,7.13a10.542,10.542,0,0,1-.147,1.728Zm5.229-3.042c0-1.08-.467-2.9-2.515-2.9-1.867,0-2.593,1.728-2.748,2.9Z" transform="translate(359.648 111.064)"/>
    <path id="Path_2428" data-name="Path 2428" d="M137.627,40.341V29.322H135.76V26.055h1.867V25.5a6.516,6.516,0,0,1,1.815-4.788,5.79,5.79,0,0,1,3.941-1.435,8.522,8.522,0,0,1,2.368.294l-.173,3.457a4.8,4.8,0,0,0-1.435-.207c-1.461,0-2.074,1.141-2.074,2.541v.726h2.861v3.232h-2.835V40.341Z" transform="translate(357.308 112.07)"/>
    <path id="Path_2429" data-name="Path 2429" d="M156.027,20.49a38.725,38.725,0,0,1-3.509,7.916l-2.688.233a44.078,44.078,0,0,0,2.014-7.891Z" transform="translate(355.398 111.905)"/>
    <path id="Path_2430" data-name="Path 2430" d="M156.481,37.462a8.642,8.642,0,0,0,3.794,1.089c1.348,0,1.9-.467,1.9-1.2s-.441-1.08-2.1-1.633c-2.956-.994-4.088-2.593-4.062-4.321,0-2.662,2.282-4.676,5.816-4.676a9.593,9.593,0,0,1,4.036.821l-.786,3.068a7.009,7.009,0,0,0-3.077-.8c-1.08,0-1.728.441-1.728,1.167s.553,1.02,2.308,1.633c2.722.933,3.855,2.308,3.889,4.416,0,2.662-2.1,4.615-6.2,4.615a10.112,10.112,0,0,1-4.615-.994Z" transform="translate(354.607 111.06)"/>
    <path id="Path_2431" data-name="Path 2431" d="M97.2,63.6c-.147-2.748-.32-6.05-.294-8.5H96.82c-.674,2.308-1.486,4.762-2.48,7.484l-3.457,9.559H88.938l-3.189-9.386c-.933-2.774-1.728-5.315-2.282-7.657h-.06c-.061,2.454-.207,5.756-.38,8.712L82.5,72.246H80.08l1.374-19.7H84.7l3.362,9.507c.821,2.429,1.487,4.589,1.988,6.637h.086c.493-1.988,1.2-4.148,2.074-6.637l3.509-9.507h3.241l1.227,19.7H97.7Z" transform="translate(364.867 107.553)"/>
    <path id="Path_2432" data-name="Path 2432" d="M109.251,66.452c.06,3.457,2.282,4.909,4.848,4.909a9.3,9.3,0,0,0,3.915-.735l.441,1.841a11.468,11.468,0,0,1-4.7.864c-4.321,0-6.914-2.861-6.914-7.13s2.515-7.631,6.637-7.631c4.615,0,5.842,4.062,5.842,6.663a9.748,9.748,0,0,1-.086,1.2Zm7.536-1.841c0-1.633-.674-4.174-3.569-4.174-2.593,0-3.742,2.394-3.941,4.174Z" transform="translate(361.235 106.736)"/>
    <path id="Path_2433" data-name="Path 2433" d="M124.891,62.748a37.461,37.461,0,0,0-.121-3.829h2.282l.147,2.342h.061a5.186,5.186,0,0,1,4.676-2.662c1.962,0,5,1.167,5,6.05v8.444h-2.593V64.909c0-2.282-.864-4.183-3.275-4.183a3.656,3.656,0,0,0-3.457,2.593,3.7,3.7,0,0,0-.173,1.2v8.5h-2.593Z" transform="translate(358.8 106.732)"/>
    <path id="Path_2434" data-name="Path 2434" d="M155.5,69.259c0,1.461,0,2.748.112,3.855h-2.282l-.147-2.308h-.061a5.324,5.324,0,0,1-4.676,2.593c-2.221,0-4.883-1.227-4.883-6.2V59h2.593v7.778c0,2.688.821,4.5,3.154,4.5a3.716,3.716,0,0,0,3.388-2.342,3.76,3.76,0,0,0,.233-1.314V59h2.593Z" transform="translate(356.25 106.677)"/>
  </g>
</svg>
