<svg xmlns="http://www.w3.org/2000/svg" viewBox="-3375 -4946.488 107.782 53.429">
  <g id="chefs-logoArtboard_2" data-name="chefs-logoArtboard 2" transform="translate(-3377.871 -4948.658)">
    <g id="Group_1944" data-name="Group 1944" transform="translate(2.871 2.169)">
      <path id="Path_2421" data-name="Path 2421" d="M28.839,55.671a13.465,13.465,0,0,1-4.76-2.686l-.652-.554-.652.515a19.418,19.418,0,0,1-5.555,2.98,26.376,26.376,0,0,1-6.11.789v2.132a27.556,27.556,0,0,0,6.69-.893,20.213,20.213,0,0,0,5.555-2.83A15.336,15.336,0,0,0,28.1,57.659a26.376,26.376,0,0,0,7.714,1.213V56.714A21,21,0,0,1,28.839,55.671Z" transform="translate(-5.738 -19.658)"/>
      <rect id="Rectangle_653" data-name="Rectangle 653" width="4.049" height="2.132" transform="translate(15.635 42.599)"/>
      <path id="Path_2422" data-name="Path 2422" d="M23.306,45.192a3.456,3.456,0,1,0-3.456-3.456,3.456,3.456,0,0,0,3.456,3.456Zm0-5a1.545,1.545,0,1,1-1.545,1.545,1.506,1.506,0,0,1,1.545-1.545Z" transform="translate(-8.779 -14.734)"/>
      <path id="Path_2423" data-name="Path 2423" d="M34.936,45.192a3.456,3.456,0,1,0-3.456-3.456A3.456,3.456,0,0,0,34.936,45.192Zm0-5a1.545,1.545,0,1,1-1.545,1.545A1.545,1.545,0,0,1,34.936,40.19Z" transform="translate(-12.826 -14.734)"/>
      <path id="Path_2424" data-name="Path 2424" d="M31.645,22.8V18.5A6.586,6.586,0,0,0,30.132,5.515a7.753,7.753,0,0,0-3.384.737A6.723,6.723,0,0,0,20.5,2.17h-.072a6.077,6.077,0,0,0-4.6,2.1,7.564,7.564,0,0,0-1.4,2.132,6.768,6.768,0,0,0-3.26-.919,6.579,6.579,0,0,0-.88,13.1v4.264A18.127,18.127,0,1,0,31.645,22.8ZM6.77,12.022a4.44,4.44,0,0,1,4.453-4.453,5.216,5.216,0,0,1,3.091,1.252l1.3,1.069.443-1.617c.111-.4,1.141-3.971,4.453-4.01h.046a4.845,4.845,0,0,1,4.675,3.86l.372,1.761,1.3-1.213a4.773,4.773,0,0,1,3.2-1.03,4.46,4.46,0,0,1,.4,8.9l-.991.072v5.7H12.469v-5.8H11.432A4.564,4.564,0,0,1,6.77,12.022ZM21,53.518a15.995,15.995,0,0,1-9.233-29.062H30.276A15.995,15.995,0,0,1,21,53.518Z" transform="translate(-2.871 -2.169)"/>
    </g>
    <g id="Group_1947" data-name="Group 1947" transform="translate(52.367 13.325)">
      <g id="Group_1945" data-name="Group 1945" transform="translate(0 0)">
        <path id="Path_2425" data-name="Path 2425" d="M90.38,35.168a9.572,9.572,0,0,1-3.814.652c-5.138,0-7.785-3.2-7.785-7.427,0-5.073,3.619-7.9,8.111-7.9a8.757,8.757,0,0,1,3.658.652L89.9,23.816a7.257,7.257,0,0,0-2.823-.548c-2.667,0-4.74,1.611-4.74,4.916,0,2.973,1.767,4.851,4.76,4.851a8.4,8.4,0,0,0,2.778-.476Z" transform="translate(-78.78 -19.7)"/>
        <path id="Path_2426" data-name="Path 2426" d="M99.68,19.64h3.352v6.149h.046a4.036,4.036,0,0,1,1.3-1.1,3.769,3.769,0,0,1,1.741-.417c2.139,0,3.769,1.474,3.769,4.721V35.3H106.54V29.362c0-1.408-.483-2.38-1.741-2.38a1.787,1.787,0,0,0-1.65,1.174,2.139,2.139,0,0,0-.111.75v6.4H99.68Z" transform="translate(-86.052 -19.404)"/>
        <path id="Path_2427" data-name="Path 2427" d="M121.738,33.413c.111,1.389,1.48,2.047,3.045,2.047a9.5,9.5,0,0,0,2.973-.443l.443,2.269a10.648,10.648,0,0,1-3.912.652c-3.658,0-5.758-2.119-5.758-5.49,0-2.732,1.7-5.758,5.445-5.758,3.482,0,4.806,2.713,4.806,5.379a7.955,7.955,0,0,1-.111,1.3Zm3.945-2.3a1.948,1.948,0,0,0-1.9-2.184,2.244,2.244,0,0,0-2.074,2.184Z" transform="translate(-92.611 -21.857)"/>
        <path id="Path_2428" data-name="Path 2428" d="M137.168,35.17V26.856H135.76V24.391h1.408v-.417a4.916,4.916,0,0,1,1.369-3.612,4.369,4.369,0,0,1,2.973-1.082,6.429,6.429,0,0,1,1.787.222l-.13,2.608a3.619,3.619,0,0,0-1.082-.156c-1.1,0-1.565.861-1.565,1.917v.548h2.158v2.439h-2.139V35.17Z" transform="translate(-98.606 -19.278)"/>
        <path id="Path_2429" data-name="Path 2429" d="M154.505,20.49a29.218,29.218,0,0,1-2.647,5.973l-2.028.176a33.256,33.256,0,0,0,1.519-5.953Z" transform="translate(-103.502 -19.7)"/>
        <path id="Path_2430" data-name="Path 2430" d="M156.279,34.824a6.52,6.52,0,0,0,2.862.822c1.017,0,1.435-.352,1.435-.906s-.333-.815-1.584-1.232c-2.23-.75-3.084-1.956-3.065-3.26,0-2.008,1.721-3.528,4.388-3.528a7.238,7.238,0,0,1,3.045.619l-.593,2.315a5.288,5.288,0,0,0-2.321-.6c-.815,0-1.3.333-1.3.88s.417.769,1.741,1.232c2.054.7,2.908,1.741,2.934,3.332,0,2.008-1.584,3.482-4.675,3.482a7.629,7.629,0,0,1-3.482-.75Z" transform="translate(-105.531 -21.867)"/>
      </g>
      <g id="Group_1946" data-name="Group 1946" transform="translate(0.848 21.695)">
        <path id="Path_2431" data-name="Path 2431" d="M93,60.883c-.111-2.074-.241-4.564-.222-6.416H92.71c-.509,1.741-1.122,3.593-1.871,5.647l-2.608,7.212H86.763l-2.406-7.081c-.7-2.093-1.3-4.01-1.721-5.777H82.59c-.046,1.852-.156,4.343-.287,6.573l-.4,6.37H80.08l1.037-14.86h2.445L86.1,59.722c.619,1.832,1.122,3.462,1.5,5.008h.065c.372-1.5.906-3.13,1.565-5.008l2.647-7.173h2.445l.926,14.86H93.375Z" transform="translate(-80.08 -52.55)"/>
        <path id="Path_2432" data-name="Path 2432" d="M108.659,64.517a3.427,3.427,0,0,0,3.658,3.7,7.016,7.016,0,0,0,2.954-.554l.333,1.389a8.653,8.653,0,0,1-3.547.652c-3.26,0-5.216-2.158-5.216-5.379s1.9-5.758,5.008-5.758c3.482,0,4.408,3.065,4.408,5.027a7.35,7.35,0,0,1-.065.906Zm5.686-1.389c0-1.232-.509-3.149-2.693-3.149-1.956,0-2.823,1.806-2.973,3.149Z" transform="translate(-89.391 -54.645)"/>
        <path id="Path_2433" data-name="Path 2433" d="M124.861,61.729a28.268,28.268,0,0,0-.091-2.889h1.721l.111,1.767h.046a3.912,3.912,0,0,1,3.528-2.008c1.48,0,3.769.88,3.769,4.564v6.37h-1.956V63.359c0-1.721-.652-3.156-2.471-3.156a2.758,2.758,0,0,0-2.608,1.956,2.791,2.791,0,0,0-.13.906v6.416h-1.956Z" transform="translate(-95.63 -54.654)"/>
        <path id="Path_2434" data-name="Path 2434" d="M152.565,66.74c0,1.1,0,2.074.085,2.908h-1.721l-.111-1.741h-.046a4.017,4.017,0,0,1-3.528,1.956c-1.676,0-3.684-.926-3.684-4.675V59h1.956v5.868c0,2.028.619,3.4,2.38,3.4a2.8,2.8,0,0,0,2.556-1.767,2.836,2.836,0,0,0,.176-.991V59h1.956Z" transform="translate(-102.168 -54.794)"/>
      </g>
    </g>
  </g>
</svg>
