<svg id="Layer_4" data-name="Layer 4" xmlns="http://www.w3.org/2000/svg" width="339" height="113" viewBox="0 0 339 113">
  <defs>
    <style>
      .cls-1 {
        fill: #0f0f0f;
      }

      .cls-2 {
        fill: #fff040;
      }
    </style>
  </defs>
  <title>site-subdomain-decor</title>
  <g>
    <circle class="cls-1" cx="55.88" cy="56.5" r="55.88"/>
    <path class="cls-2" d="M50.82,65.3A23.65,23.65,0,0,1,52,56.92a13.09,13.09,0,0,1,3.89-5.32A25.87,25.87,0,0,0,60,47.47a6.73,6.73,0,0,0,1.4-4.12q0-5.49-4.72-5.49a4.38,4.38,0,0,0-3.52,1.6,6.8,6.8,0,0,0-1.42,4.32H39.44q.07-7.27,4.58-11.32t12.65-4.05q8.1,0,12.55,3.74T73.67,42.8a12.4,12.4,0,0,1-1.2,5.49,18.54,18.54,0,0,1-3.85,5.05l-4.18,3.89A9.83,9.83,0,0,0,62,60.74a13.88,13.88,0,0,0-.76,4.56Zm-1.49,11a5.64,5.64,0,0,1,1.94-4.41,7.68,7.68,0,0,1,9.7,0,6,6,0,0,1,0,8.83,7.68,7.68,0,0,1-9.7,0A5.64,5.64,0,0,1,49.33,76.34Z"/>
  </g>
  <polygon class="cls-1" points="169.5 80.11 148.18 113 190.82 113 169.5 80.11"/>
  <polygon class="cls-2" points="258.88 56.5 226 35.18 226 77.82 258.88 56.5"/>
</svg>
