<svg width="156" height="104" viewBox="0 0 156 104" fill="none" xmlns="http://www.w3.org/2000/svg">
<path d="M29.1199 66.9809C29.3587 67.7623 29.5892 68.5437 29.8279 69.3333C30.4124 69.2675 31.0546 69.2017 31.6967 69.1195C32.0096 69.0783 32.166 69.177 32.1989 69.5225C32.2648 70.1723 32.3718 70.8139 32.4706 71.5048C33.2744 71.2642 34.4052 70.8468 35.4755 71.0935C35.1791 72.2944 34.6604 73.3308 33.8701 74.2109C29.4036 79.2284 18.7822 78.9865 16.2744 72.0394C21.1764 74.2412 26.5373 71.2817 28.947 66.948C29.0129 66.9644 29.0623 66.9727 29.1199 66.9809Z" fill="white"/>
<path d="M34.7922 63.7642C35.0227 63.7642 35.3438 63.7642 35.7143 63.7642C35.6731 64.6607 35.5331 65.5161 35.0556 66.2564C34.8251 66.6183 34.8498 66.8322 35.0968 67.1694C35.7143 68.0166 35.7966 68.9954 35.6813 70.0071C34.9157 70.0071 34.1912 70.0071 33.4256 70.0071C33.3515 69.711 33.5107 69.2767 33.0512 68.599C32.5916 67.9213 31.6932 67.8497 30.6595 68.0495C30.4372 67.4984 30.1902 66.8815 29.9021 66.1659C30.8034 65.7113 32.2452 65.4248 33.5038 65.9922C33.7673 66.1156 34.0541 65.9087 34.1282 65.7113C34.3752 65.0697 34.537 64.5044 34.7922 63.7642Z" fill="white"/>
<path d="M15.7832 90.2773C15.7832 90.0234 15.6777 89.8301 15.4668 89.6973C15.2598 89.5645 14.9141 89.4473 14.4297 89.3457C13.9453 89.2441 13.541 89.1152 13.2168 88.959C12.5059 88.6152 12.1504 88.1172 12.1504 87.4648C12.1504 86.918 12.3809 86.4609 12.8418 86.0938C13.3027 85.7266 13.8887 85.543 14.5996 85.543C15.3574 85.543 15.9688 85.7305 16.4336 86.1055C16.9023 86.4805 17.1367 86.9668 17.1367 87.5645H15.7129C15.7129 87.291 15.6113 87.0645 15.4082 86.8848C15.2051 86.7012 14.9355 86.6094 14.5996 86.6094C14.2871 86.6094 14.0312 86.6816 13.832 86.8262C13.6367 86.9707 13.5391 87.1641 13.5391 87.4062C13.5391 87.625 13.6309 87.7949 13.8145 87.916C13.998 88.0371 14.3691 88.1602 14.9277 88.2852C15.4863 88.4062 15.9238 88.5527 16.2402 88.7246C16.5605 88.8926 16.7969 89.0957 16.9492 89.334C17.1055 89.5723 17.1836 89.8613 17.1836 90.2012C17.1836 90.7715 16.9473 91.2344 16.4746 91.5898C16.002 91.9414 15.3828 92.1172 14.6172 92.1172C14.0977 92.1172 13.6348 92.0234 13.2285 91.8359C12.8223 91.6484 12.5059 91.3906 12.2793 91.0625C12.0527 90.7344 11.9395 90.3809 11.9395 90.002H13.3223C13.3418 90.3379 13.4688 90.5977 13.7031 90.7812C13.9375 90.9609 14.248 91.0508 14.6348 91.0508C15.0098 91.0508 15.2949 90.9805 15.4902 90.8398C15.6855 90.6953 15.7832 90.5078 15.7832 90.2773ZM23.9805 88.8945C23.9805 89.875 23.7578 90.6582 23.3125 91.2441C22.8672 91.8262 22.2695 92.1172 21.5195 92.1172C20.8242 92.1172 20.2676 91.8887 19.8496 91.4316V94.4375H18.4258V85.6602H19.7383L19.7969 86.3047C20.2148 85.7969 20.7832 85.543 21.502 85.543C22.2754 85.543 22.8809 85.832 23.3184 86.4102C23.7598 86.9844 23.9805 87.7832 23.9805 88.8066V88.8945ZM22.5625 88.7715C22.5625 88.1387 22.4355 87.6367 22.1816 87.2656C21.9316 86.8945 21.5723 86.709 21.1035 86.709C20.5215 86.709 20.1035 86.9492 19.8496 87.4297V90.2422C20.1074 90.7344 20.5293 90.9805 21.1152 90.9805C21.5684 90.9805 21.9219 90.7988 22.1758 90.4355C22.4336 90.0684 22.5625 89.5137 22.5625 88.7715ZM26.7051 92H25.2812V85.6602H26.7051V92ZM25.1934 84.0137C25.1934 83.7949 25.2617 83.6133 25.3984 83.4688C25.5391 83.3242 25.7383 83.252 25.9961 83.252C26.2539 83.252 26.4531 83.3242 26.5938 83.4688C26.7344 83.6133 26.8047 83.7949 26.8047 84.0137C26.8047 84.2285 26.7344 84.4082 26.5938 84.5527C26.4531 84.6934 26.2539 84.7637 25.9961 84.7637C25.7383 84.7637 25.5391 84.6934 25.3984 84.5527C25.2617 84.4082 25.1934 84.2285 25.1934 84.0137ZM30.8652 90.9805C31.2207 90.9805 31.5156 90.877 31.75 90.6699C31.9844 90.4629 32.1094 90.207 32.125 89.9023H33.4668C33.4512 90.2969 33.3281 90.666 33.0977 91.0098C32.8672 91.3496 32.5547 91.6191 32.1602 91.8184C31.7656 92.0176 31.3398 92.1172 30.8828 92.1172C29.9961 92.1172 29.293 91.8301 28.7734 91.2559C28.2539 90.6816 27.9941 89.8887 27.9941 88.877V88.7305C27.9941 87.7656 28.252 86.9941 28.7676 86.416C29.2832 85.834 29.9863 85.543 30.877 85.543C31.6309 85.543 32.2441 85.7637 32.7168 86.2051C33.1934 86.6426 33.4434 87.2188 33.4668 87.9336H32.125C32.1094 87.5703 31.9844 87.2715 31.75 87.0371C31.5195 86.8027 31.2246 86.6855 30.8652 86.6855C30.4043 86.6855 30.0488 86.8535 29.7988 87.1895C29.5488 87.5215 29.4219 88.0273 29.418 88.707V88.9355C29.418 89.623 29.541 90.1367 29.7871 90.4766C30.0371 90.8125 30.3965 90.9805 30.8652 90.9805ZM36.7598 89.9609L38.0488 85.6602H39.5664L37.0469 92.9609C36.6602 94.0273 36.0039 94.5605 35.0781 94.5605C34.8711 94.5605 34.6426 94.5254 34.3926 94.4551V93.3535L34.6621 93.3711C35.0215 93.3711 35.291 93.3047 35.4707 93.1719C35.6543 93.043 35.7988 92.8242 35.9043 92.5156L36.1094 91.9707L33.8828 85.6602H35.418L36.7598 89.9609Z" fill="white"/>
<path d="M73.1328 86.3516C73.5977 85.8125 74.1855 85.543 74.8965 85.543C76.248 85.543 76.9336 86.3145 76.9531 87.8574V92H75.5293V87.9102C75.5293 87.4727 75.4336 87.1641 75.2422 86.9844C75.0547 86.8008 74.7773 86.709 74.4102 86.709C73.8398 86.709 73.4141 86.9629 73.1328 87.4707V92H71.709V83H73.1328V86.3516ZM79.9121 92H78.4883V85.6602H79.9121V92ZM78.4004 84.0137C78.4004 83.7949 78.4688 83.6133 78.6055 83.4688C78.7461 83.3242 78.9453 83.252 79.2031 83.252C79.4609 83.252 79.6602 83.3242 79.8008 83.4688C79.9414 83.6133 80.0117 83.7949 80.0117 84.0137C80.0117 84.2285 79.9414 84.4082 79.8008 84.5527C79.6602 84.6934 79.4609 84.7637 79.2031 84.7637C78.9453 84.7637 78.7461 84.6934 78.6055 84.5527C78.4688 84.4082 78.4004 84.2285 78.4004 84.0137ZM83.252 84.1191V85.6602H84.3711V86.7148H83.252V90.2539C83.252 90.4961 83.2988 90.6719 83.3926 90.7812C83.4902 90.8867 83.6621 90.9395 83.9082 90.9395C84.0723 90.9395 84.2383 90.9199 84.4062 90.8809V91.9824C84.082 92.0723 83.7695 92.1172 83.4688 92.1172C82.375 92.1172 81.8281 91.5137 81.8281 90.3066V86.7148H80.7852V85.6602H81.8281V84.1191H83.252Z" fill="white"/>
<path d="M80.6041 68.2904C81.4374 68.3327 82.2494 68.3608 83.0474 68.4312C83.8948 68.5016 84.7563 68.5439 85.5825 68.7269C86.6418 68.9593 87.1502 70.1773 86.3805 71.1066C86.324 71.177 86.2816 71.3249 86.3169 71.3953C86.6488 72.1697 86.557 72.7189 85.9497 73.3384C86.3593 74.0636 86.2746 74.7254 85.6814 75.3309C85.632 75.3802 85.632 75.521 85.6531 75.5984C85.8438 76.3025 85.6037 76.9572 84.9187 77.2107C84.3326 77.429 83.69 77.612 83.0686 77.6261C80.8371 77.6754 78.5986 77.6472 76.3601 77.6472C75.5409 77.6472 74.9054 77.0065 74.9054 76.1828C74.9054 74.1059 74.8983 72.0289 74.9125 69.952C74.9195 69.3465 75.1384 68.8607 75.7528 68.5932C76.4166 68.3045 76.8473 67.7272 77.3275 67.2132C77.3769 67.164 77.4052 67.0936 77.4617 67.0513C78.5421 66.1642 79.0011 64.9181 79.446 63.6649C79.6932 62.9678 80.0886 62.7918 80.823 63.0101C81.2396 63.1368 81.3385 63.4959 81.4162 63.8761C81.5998 64.8124 81.3456 65.6995 81.1055 66.5796C80.9289 67.1358 80.7736 67.692 80.6041 68.2904Z" fill="white"/>
<path d="M73.7684 73.1131C73.7684 74.2467 73.7684 75.3872 73.7684 76.5207C73.7684 77.1473 73.3024 77.6331 72.6739 77.6472C71.8971 77.6613 71.1203 77.6613 70.3436 77.6472C69.7292 77.6331 69.249 77.1262 69.249 76.5137C69.249 74.2396 69.249 71.9655 69.249 69.6915C69.249 69.086 69.7292 68.5791 70.3506 68.565C71.1274 68.5509 71.9042 68.5509 72.681 68.565C73.3306 68.5791 73.7967 69.1775 73.7826 69.6985C73.7543 70.8391 73.7755 71.9726 73.7684 73.1131Z" fill="white"/>
<path d="M122.965 90.1953L124.307 85.6602H125.777L123.58 92H122.344L120.129 85.6602H121.605L122.965 90.1953ZM129.381 92.1172C128.479 92.1172 127.746 91.834 127.184 91.2676C126.625 90.6973 126.346 89.9395 126.346 88.9941V88.8184C126.346 88.1855 126.467 87.6211 126.709 87.125C126.955 86.625 127.299 86.2363 127.74 85.959C128.182 85.6816 128.674 85.543 129.217 85.543C130.08 85.543 130.746 85.8184 131.215 86.3691C131.688 86.9199 131.924 87.6992 131.924 88.707V89.2812H127.781C127.824 89.8047 127.998 90.2188 128.303 90.5234C128.611 90.8281 128.998 90.9805 129.463 90.9805C130.115 90.9805 130.646 90.7168 131.057 90.1895L131.824 90.9219C131.57 91.3008 131.23 91.5957 130.805 91.8066C130.383 92.0137 129.908 92.1172 129.381 92.1172ZM129.211 86.6855C128.82 86.6855 128.504 86.8223 128.262 87.0957C128.023 87.3691 127.871 87.75 127.805 88.2383H130.518V88.1328C130.486 87.6562 130.359 87.2969 130.137 87.0547C129.914 86.8086 129.605 86.6855 129.211 86.6855ZM132.785 88.7832C132.785 87.7988 133.016 87.0137 133.477 86.4277C133.941 85.8379 134.557 85.543 135.322 85.543C136.045 85.543 136.613 85.7949 137.027 86.2988L137.092 85.6602H138.375V91.8066C138.375 92.6387 138.115 93.2949 137.596 93.7754C137.08 94.2559 136.383 94.4961 135.504 94.4961C135.039 94.4961 134.584 94.3984 134.139 94.2031C133.697 94.0117 133.361 93.7598 133.131 93.4473L133.805 92.5918C134.242 93.1113 134.781 93.3711 135.422 93.3711C135.895 93.3711 136.268 93.2422 136.541 92.9844C136.814 92.7305 136.951 92.3555 136.951 91.8594V91.4316C136.541 91.8887 135.994 92.1172 135.311 92.1172C134.568 92.1172 133.961 91.8223 133.488 91.2324C133.02 90.6426 132.785 89.8262 132.785 88.7832ZM134.203 88.9062C134.203 89.543 134.332 90.0449 134.59 90.4121C134.852 90.7754 135.213 90.957 135.674 90.957C136.248 90.957 136.674 90.7109 136.951 90.2188V87.4297C136.682 86.9492 136.26 86.709 135.686 86.709C135.217 86.709 134.852 86.8945 134.59 87.2656C134.332 87.6367 134.203 88.1836 134.203 88.9062Z" fill="white"/>
<path d="M126.4 70.2464L132.627 76.4739C132.656 75.9213 132.681 74.7018 132.471 73.2406C132.094 70.6071 131.122 68.4434 129.663 66.9836C128.203 65.5238 126.039 64.5525 123.406 64.1749C121.446 63.8939 119.92 64.0343 119.856 64.0405C119.543 64.0705 119.295 64.3186 119.265 64.6321C119.259 64.696 119.118 66.2218 119.399 68.1814C119.777 70.8149 120.748 72.9786 122.208 74.4383C123.668 75.8982 125.831 76.8694 128.465 77.247C129.435 77.3861 130.298 77.4219 130.931 77.4219C131.251 77.4219 131.512 77.4127 131.698 77.403L125.471 71.1756C125.214 70.919 125.214 70.503 125.471 70.2464C125.727 69.9898 126.143 69.9898 126.4 70.2464Z" fill="white"/>
<path d="M140.747 68.5982C140.717 68.2847 140.468 68.0366 140.155 68.0066C139.979 67.9898 135.826 67.6234 133.407 70.0421C133.313 70.1363 133.223 70.2332 133.137 70.3324C133.42 71.1791 133.634 72.0892 133.772 73.0541C133.816 73.3631 133.851 73.6613 133.878 73.9463L135.594 72.2294C135.851 71.9729 136.267 71.9729 136.524 72.2294C136.78 72.486 136.78 72.902 136.524 73.1587L133.961 75.7214C133.96 76.3912 133.922 76.8279 133.914 76.915C133.899 77.0692 133.866 77.2181 133.818 77.3599C135.278 77.2249 137.293 76.7645 138.711 75.346C141.13 72.9274 140.763 68.7739 140.747 68.5982Z" fill="white"/>
<path d="M77.7143 29.7429L76.8858 30.3029C77.0679 30.5724 77.3698 30.7365 77.6951 30.7427C78.0203 30.749 78.3283 30.5966 78.5207 30.3343L77.7143 29.7429ZM72.4858 23.7927L76.8858 30.3029L78.5428 29.1829L74.1428 22.6727L72.4858 23.7927ZM78.5207 30.3343L85.435 20.9057L83.8222 19.723L76.9079 29.1515L78.5207 30.3343Z" fill="white"/>
<circle cx="78.5" cy="25.5" r="15.5" stroke="white" stroke-width="2"/>
<path d="M129.4 29.7429L128.571 30.3029C128.754 30.5724 129.056 30.7365 129.381 30.7427C129.706 30.749 130.014 30.5966 130.206 30.3343L129.4 29.7429ZM124.171 23.7927L128.571 30.3029L130.229 29.1829L125.829 22.6727L124.171 23.7927ZM130.206 30.3343L137.121 20.9057L135.508 19.723L128.594 29.1515L130.206 30.3343Z" fill="white"/>
<circle cx="130.5" cy="25.5" r="15.5" stroke="white" stroke-width="2"/>
<path d="M25.7143 29.7429L24.8858 30.3029C25.0679 30.5724 25.3698 30.7365 25.6951 30.7427C26.0203 30.749 26.3283 30.5966 26.5207 30.3343L25.7143 29.7429ZM20.4858 23.7927L24.8858 30.3029L26.5428 29.1829L22.1428 22.6727L20.4858 23.7927ZM26.5207 30.3343L33.435 20.9057L31.8222 19.723L24.9079 29.1515L26.5207 30.3343Z" fill="white"/>
<circle cx="26.5" cy="25.5" r="15.5" stroke="white" stroke-width="2"/>
</svg>
