<svg id="Layer_4" data-name="Layer 4" xmlns="http://www.w3.org/2000/svg" width="347" height="123" viewBox="0 0 347 123">
  <defs>
    <style>
      .cls-1 {
        fill: #fff040;
      }
    </style>
  </defs>
  <title>site-cusomize_text</title>
  <g>
    <rect x="2.28" y="2.2" width="236.85" height="51.95" rx="25.9" ry="25.9"/>
    <path class="cls-1" d="M18.44,46.36V9.48H46.38V46.36h-5v-33h-18v33Z"/>
    <path class="cls-1" d="M54.25,56.9V19h3.82l.79,3.55a9,9,0,0,1,3.34-3,10,10,0,0,1,4.66-1,9.11,9.11,0,0,1,7.92,4q2.82,4,2.82,10.68v.53q0,5.93-2.84,9.56a9.38,9.38,0,0,1-7.83,3.63A10.81,10.81,0,0,1,62.5,46a8.5,8.5,0,0,1-3.25-2.56V56.9Zm5-17.53A7.08,7.08,0,0,0,61.7,42a6.9,6.9,0,0,0,3.72.95,6.15,6.15,0,0,0,5.37-2.59,11.38,11.38,0,0,0,1.82-6.69v-.53a14.45,14.45,0,0,0-1.84-7.65,6,6,0,0,0-5.41-3,6.67,6.67,0,0,0-3.67,1,7.29,7.29,0,0,0-2.46,2.67Z"/>
    <path class="cls-1" d="M82.57,33V32.4a15.09,15.09,0,0,1,3.29-10,11,11,0,0,1,8.94-3.94,11.15,11.15,0,0,1,9,3.93,15,15,0,0,1,3.31,10V33a15,15,0,0,1-3.29,10,11.12,11.12,0,0,1-9,3.9,11.14,11.14,0,0,1-9-3.91A15,15,0,0,1,82.57,33Zm5,0a13,13,0,0,0,1.84,7.19,6.64,6.64,0,0,0,10.88,0,12.91,12.91,0,0,0,1.85-7.19v-.56a12.87,12.87,0,0,0-1.86-7.16,6.11,6.11,0,0,0-5.46-2.86,6,6,0,0,0-5.41,2.86,13,13,0,0,0-1.84,7.16Z"/>
    <path class="cls-1" d="M112.06,33.19V32.12a15.1,15.1,0,0,1,3.15-9.74,10.74,10.74,0,0,1,8.9-3.94,10.36,10.36,0,0,1,7.52,2.84,9,9,0,0,1,2.83,7l-.05.16h-4.53a6,6,0,0,0-1.64-4.27,5.39,5.39,0,0,0-4.12-1.76,5.78,5.78,0,0,0-5.37,2.85,13.29,13.29,0,0,0-1.69,6.89v1.06a13.54,13.54,0,0,0,1.66,7A5.77,5.77,0,0,0,124.11,43a5.9,5.9,0,0,0,4-1.52,4.81,4.81,0,0,0,1.73-3.74h4.51l.08.13a7.89,7.89,0,0,1-3,6.31,10.75,10.75,0,0,1-7.3,2.75q-5.77,0-8.91-3.93A15.16,15.16,0,0,1,112.06,33.19Z"/>
    <path class="cls-1" d="M138.56,22.88V19h23v3.93h-9V46.36h-5V22.88Z"/>
    <path class="cls-1" d="M165.59,38.66a7.08,7.08,0,0,1,3.18-6.14q3.18-2.22,8.63-2.22h5.42V27.59a5,5,0,0,0-1.47-3.81,5.77,5.77,0,0,0-4.15-1.41,6,6,0,0,0-3.93,1.22,3.65,3.65,0,0,0-1.49,2.91l-4.84.05,0-.15q-.16-3,2.84-5.47a11.75,11.75,0,0,1,7.75-2.48,11.32,11.32,0,0,1,7.5,2.37,8.39,8.39,0,0,1,2.84,6.83v13.2a25.75,25.75,0,0,0,.15,2.84,14.58,14.58,0,0,0,.56,2.69h-5.14q-.25-1.24-.39-2.19a16,16,0,0,1-.16-1.91,11.64,11.64,0,0,1-3.64,3.31,9.29,9.29,0,0,1-4.83,1.33q-4.28,0-6.52-2.19A8.06,8.06,0,0,1,165.59,38.66Zm5,.1a3.76,3.76,0,0,0,1.14,2.89,4.77,4.77,0,0,0,3.37,1.06A8.88,8.88,0,0,0,180,41.32a6.62,6.62,0,0,0,2.84-3.19V33.67h-5.6a7.26,7.26,0,0,0-4.83,1.52A4.55,4.55,0,0,0,170.58,38.76Z"/>
    <path class="cls-1" d="M193.38,46.36,200.32,35a7.79,7.79,0,0,1-5.4-7.62,7.55,7.55,0,0,1,2.8-6.06q2.8-2.35,7.71-2.35H217V46.36h-5V35.72h-6.78l-6.49,10.64Zm6.53-18.95a4.29,4.29,0,0,0,1.24,3.1,5,5,0,0,0,3.73,1.28H212V22.88h-6.6a5.7,5.7,0,0,0-4.11,1.35A4.28,4.28,0,0,0,199.91,27.41Z"/>
  </g>
  <g>
    <rect x="2.28" y="65.09" width="283.72" height="51.95" rx="25.97" ry="25.97"/>
    <path class="cls-1" d="M17.8,105.61V78.21h5V90.06H35V78.21h5v27.41H35V94H22.79v11.63Z"/>
    <path class="cls-1" d="M46.35,97.91a7.08,7.08,0,0,1,3.18-6.14q3.18-2.22,8.63-2.22h5.42V86.84A5,5,0,0,0,62.11,83,5.77,5.77,0,0,0,58,81.63,6,6,0,0,0,54,82.84a3.65,3.65,0,0,0-1.49,2.91l-4.84.05,0-.15q-.16-3,2.84-5.47a11.75,11.75,0,0,1,7.75-2.48,11.32,11.32,0,0,1,7.5,2.37,8.39,8.39,0,0,1,2.84,6.83v13.2a25.75,25.75,0,0,0,.15,2.84,14.58,14.58,0,0,0,.56,2.69H64.13q-.25-1.24-.39-2.19a16,16,0,0,1-.16-1.91,11.64,11.64,0,0,1-3.64,3.31,9.29,9.29,0,0,1-4.83,1.33q-4.28,0-6.52-2.19A8.06,8.06,0,0,1,46.35,97.91Zm5,.1a3.76,3.76,0,0,0,1.14,2.89A4.77,4.77,0,0,0,55.85,102a8.88,8.88,0,0,0,4.89-1.39,6.62,6.62,0,0,0,2.84-3.19V92.92H58a7.26,7.26,0,0,0-4.83,1.52A4.55,4.55,0,0,0,51.34,98Z"/>
    <path class="cls-1" d="M74.65,92.44V91.38a15.1,15.1,0,0,1,3.15-9.74,10.74,10.74,0,0,1,8.9-3.94,10.36,10.36,0,0,1,7.52,2.84,9,9,0,0,1,2.83,7l-.05.16H92.45a6,6,0,0,0-1.64-4.27,5.39,5.39,0,0,0-4.12-1.76,5.78,5.78,0,0,0-5.37,2.85,13.29,13.29,0,0,0-1.69,6.89v1.06a13.54,13.54,0,0,0,1.66,7,5.77,5.77,0,0,0,5.39,2.83,5.9,5.9,0,0,0,4-1.52A4.81,4.81,0,0,0,92.45,97H97l.08.13a7.89,7.89,0,0,1-3,6.31,10.75,10.75,0,0,1-7.3,2.75q-5.77,0-8.91-3.93A15.16,15.16,0,0,1,74.65,92.44Z"/>
    <path class="cls-1" d="M101.14,82.13V78.21h23v3.93h-9v23.48h-5V82.13Z"/>
    <path class="cls-1" d="M129.51,116.15V78.21h3.82l.79,3.55a9,9,0,0,1,3.34-3,10,10,0,0,1,4.66-1,9.11,9.11,0,0,1,7.92,4q2.82,4,2.82,10.68v.53q0,5.93-2.84,9.56a9.38,9.38,0,0,1-7.83,3.63,10.81,10.81,0,0,1-4.45-.85,8.5,8.5,0,0,1-3.25-2.56v13.42Zm5-17.53a7.08,7.08,0,0,0,2.46,2.64,6.9,6.9,0,0,0,3.72.95,6.15,6.15,0,0,0,5.37-2.59,11.38,11.38,0,0,0,1.82-6.69V92.4A14.45,14.45,0,0,0,146,84.75a6,6,0,0,0-5.41-3,6.67,6.67,0,0,0-3.67,1,7.29,7.29,0,0,0-2.46,2.67Z"/>
    <path class="cls-1" d="M157.83,92.21v-.56a15.09,15.09,0,0,1,3.29-10,12.2,12.2,0,0,1,17.95,0,15,15,0,0,1,3.31,10v.56a15,15,0,0,1-3.29,10,12.26,12.26,0,0,1-17.95,0A15,15,0,0,1,157.83,92.21Zm5,0a13,13,0,0,0,1.84,7.19,6.64,6.64,0,0,0,10.88,0,12.91,12.91,0,0,0,1.85-7.19v-.56a12.87,12.87,0,0,0-1.86-7.16,6.11,6.11,0,0,0-5.46-2.86,6,6,0,0,0-5.41,2.86,13,13,0,0,0-1.84,7.16Z"/>
    <path class="cls-1" d="M188.49,105.61V78.21h5V97.66l.13.05,12.12-19.51h5v27.41h-5V86.16l-.13-.05-12.12,19.51Zm3.67-38.53,0-.15H196a3.51,3.51,0,0,0,.87,2.47,4.45,4.45,0,0,0,5.5,0,3.46,3.46,0,0,0,.9-2.46H207l0,.15a5.86,5.86,0,0,1-1.95,4.79,9.18,9.18,0,0,1-11.05,0A5.79,5.79,0,0,1,192.16,67.09Z"/>
    <path class="cls-1" d="M218.22,105.61V78.21h5v11.6h2.13l9.8-11.6H241l.05.13-11.37,13,12.23,14.12-.05.13h-6.13L225.77,94h-2.56v11.63Z"/>
    <path class="cls-1" d="M245.41,97.91a7.08,7.08,0,0,1,3.18-6.14q3.18-2.22,8.63-2.22h5.42V86.84A5,5,0,0,0,261.16,83,5.77,5.77,0,0,0,257,81.63a6,6,0,0,0-3.93,1.22,3.65,3.65,0,0,0-1.49,2.91l-4.84.05,0-.15q-.16-3,2.84-5.47a11.75,11.75,0,0,1,7.75-2.48,11.32,11.32,0,0,1,7.5,2.37,8.39,8.39,0,0,1,2.84,6.83v13.2a25.75,25.75,0,0,0,.15,2.84,14.58,14.58,0,0,0,.56,2.69h-5.14q-.25-1.24-.39-2.19a16,16,0,0,1-.16-1.91,11.64,11.64,0,0,1-3.64,3.31,9.29,9.29,0,0,1-4.83,1.33q-4.28,0-6.52-2.19A8.06,8.06,0,0,1,245.41,97.91Zm5,.1a3.76,3.76,0,0,0,1.14,2.89,4.77,4.77,0,0,0,3.37,1.06,8.88,8.88,0,0,0,4.89-1.39,6.62,6.62,0,0,0,2.84-3.19V92.92H257a7.26,7.26,0,0,0-4.83,1.52A4.55,4.55,0,0,0,250.4,98Z"/>
  </g>
</svg>
