<svg xmlns="http://www.w3.org/2000/svg" viewBox="-2613 -4814 37 37">
  <defs>
    <style>
      .cls-1 {
        fill: none;
      }
    </style>
  </defs>
  <g id="Group_2093" data-name="Group 2093" transform="translate(-3460 -5884)">
    <rect id="Rectangle_712" data-name="Rectangle 712" class="cls-1" width="37" height="37" transform="translate(847 1070)"/>
    <path id="Path_2496" data-name="Path 2496" d="M24.228,42.824a.809.809,0,0,0-.82-.129l-20.7,8.356a.409.409,0,0,0,.307.758l19.777-7.98L12.979,55.4a.409.409,0,1,0,.624.529l9.959-11.747-1.331,6.681L20.89,59.822a.409.409,0,0,1-.2.3.386.386,0,0,1-.345.016l-5.574-2.192-2.675-1.12a.409.409,0,0,0-.535.219.392.392,0,0,0-.017.086h-.01L10.2,62.257,8.3,55.6l9.933-7.4a.409.409,0,1,0-.488-.654L7.757,54.98.56,52.067a.409.409,0,0,0-.307.758l7.235,2.928,1.929,6.736a.811.811,0,0,0,.782.586h.009a.8.8,0,0,0,.531-.214.359.359,0,0,0,.041-.029l3.951-4.04,5.3,2.1a1.191,1.191,0,0,0,1.051-.059,1.223,1.223,0,0,0,.616-.887L23.034,51l1.472-7.383A.822.822,0,0,0,24.228,42.824ZM11.347,61.086l.863-3.326,1.351.567.348.138Z" transform="translate(852.107 1036.691)"/>
  </g>
</svg>
