<svg id="Layer_4" data-name="Layer 4" xmlns="http://www.w3.org/2000/svg" width="144" height="113" viewBox="0 0 144 113">
  <defs>
    <style>
      .cls-1, .cls-2 {
        fill: none;
        stroke: #000;
        stroke-linejoin: round;
        stroke-width: 3px;
      }

      .cls-2 {
        stroke-dasharray: 4.48 4.48;
      }

      .cls-3 {
        fill: #fff040;
      }
    </style>
  </defs>
  <title>site-ico-01</title>
  <g>
    <path class="cls-1" d="M96.74,60.28s0,15.79,0,16c-.19,12.17-5.34,21.17-11.62,22.62s-15,1.93-21.28,0-9.67-5-16.27-12.62S32.35,65.3,35.07,63c4-3.34,7.31.53,8.51,1.52l9.88,11.1,3.94-1.89-.11-37.19a4.93,4.93,0,0,1,9.86,0V67c0-.14,0-17.24,0-17.38A3.88,3.88,0,0,1,71,47.07H73A3.91,3.91,0,0,1,76.92,51V61.71l0,4.93V55.32a3.9,3.9,0,0,1,3.9-3.91h2.05a3.91,3.91,0,0,1,3.91,3.91v6.39l.07,4.93V60.28a3.91,3.91,0,0,1,3.91-3.91h2.05A3.91,3.91,0,0,1,96.74,60.28Z"/>
    <path class="cls-1" d="M50,44.9a14.91,14.91,0,1,1,25.45-3.17"/>
    <path class="cls-2" d="M44.2,53.09a24.89,24.89,0,1,1,39.61-6"/>
    <polygon class="cls-3" points="4 7 4 60 32 34 4 7"/>
    <polygon class="cls-3" points="122 7 122 60 94 34 122 7"/>
  </g>
</svg>
