<svg id="Layer_1" data-name="Layer 1" xmlns="http://www.w3.org/2000/svg" viewBox="0 0 173 87">
  <defs>
    <style>
      .cls-1 {
        isolation: isolate;
      }
    </style>
  </defs>
  <title>chefs-logoArtboard 2</title>
  <g>
    <g>
      <path d="M38.3,57.4A20.65,20.65,0,0,1,31,53.28l-1-.85-1,.79a29.78,29.78,0,0,1-8.52,4.57A40.45,40.45,0,0,1,11.11,59v3.27A42.26,42.26,0,0,0,21.37,60.9a31,31,0,0,0,8.52-4.34,23.52,23.52,0,0,0,7.28,3.89A40.45,40.45,0,0,0,49,62.31L49,59A32.21,32.21,0,0,1,38.3,57.4Z"/>
      <rect x="26.85" y="67.5" width="6.21" height="3.27"/>
      <path d="M25.15,48.88a5.3,5.3,0,1,0-5.3-5.3A5.3,5.3,0,0,0,25.15,48.88Zm0-7.67a2.37,2.37,0,1,1-2.37,2.37A2.31,2.31,0,0,1,25.15,41.21Z"/>
      <path d="M36.78,48.88a5.3,5.3,0,1,0-5.3-5.3A5.3,5.3,0,0,0,36.78,48.88Zm0-7.67a2.37,2.37,0,1,1-2.37,2.37A2.38,2.38,0,0,1,36.78,41.21Z"/>
      <path d="M47,33.81v-6.6A10.1,10.1,0,0,0,44.68,7.3a11.89,11.89,0,0,0-5.19,1.13,10.31,10.31,0,0,0-9.59-6.26h-.11a9.32,9.32,0,0,0-7.05,3.22,11.6,11.6,0,0,0-2.14,3.27,10.38,10.38,0,0,0-5-1.41,10.09,10.09,0,0,0-1.35,20.09v6.54A27.8,27.8,0,1,0,47,33.81ZM8.85,17.28a6.81,6.81,0,0,1,6.83-6.83,8,8,0,0,1,4.74,1.92l2,1.64.68-2.48c.17-.62,1.75-6.09,6.83-6.15H30a7.43,7.43,0,0,1,7.17,5.92L37.74,14l2-1.86a7.32,7.32,0,0,1,4.91-1.58,6.84,6.84,0,0,1,.62,13.65l-1.52.11v8.74H17.59V24.17H16A7,7,0,0,1,8.85,17.28ZM30.68,80.92A24.53,24.53,0,0,1,16.52,36.35H44.9A24.53,24.53,0,0,1,30.68,80.92Z"/>
    </g>
    <g>
      <g class="cls-1">
        <path d="M96.57,43a14.68,14.68,0,0,1-5.85,1c-7.88,0-11.94-4.9-11.94-11.39,0-7.78,5.55-12.11,12.44-12.11a13.43,13.43,0,0,1,5.61,1l-1,4.09a11.13,11.13,0,0,0-4.33-.84c-4.09,0-7.27,2.47-7.27,7.54,0,4.56,2.71,7.44,7.3,7.44A12.89,12.89,0,0,0,95.79,39Z"/>
        <path d="M99.68,19.64h5.14v9.43h.07a6.19,6.19,0,0,1,2-1.69,5.78,5.78,0,0,1,2.67-.64c3.28,0,5.78,2.26,5.78,7.24v9.67h-5.14v-9.1c0-2.16-.74-3.65-2.67-3.65A2.74,2.74,0,0,0,105,32.7a3.28,3.28,0,0,0-.17,1.15v9.81H99.68Z"/>
        <path d="M123.45,37c.17,2.13,2.27,3.14,4.67,3.14a14.57,14.57,0,0,0,4.56-.68l.68,3.48a16.33,16.33,0,0,1-6,1c-5.61,0-8.83-3.25-8.83-8.42,0-4.19,2.6-8.83,8.35-8.83,5.34,0,7.37,4.16,7.37,8.25a12.2,12.2,0,0,1-.17,2Zm6.05-3.52c0-1.25-.54-3.35-2.91-3.35-2.16,0-3,2-3.18,3.35Z"/>
        <path d="M137.92,43.65V30.9h-2.16V27.12h2.16v-.64a7.54,7.54,0,0,1,2.1-5.54,6.7,6.7,0,0,1,4.56-1.66,9.86,9.86,0,0,1,2.74.34l-.2,4a5.55,5.55,0,0,0-1.66-.24c-1.69,0-2.4,1.32-2.4,2.94v.84h3.31V30.9h-3.28V43.65Z"/>
        <path d="M157,20.49a44.81,44.81,0,0,1-4.06,9.16l-3.11.27a51,51,0,0,0,2.33-9.13Z"/>
        <path d="M156.61,39.15A10,10,0,0,0,161,40.41c1.56,0,2.2-.54,2.2-1.39s-.51-1.25-2.43-1.89c-3.42-1.15-4.73-3-4.7-5,0-3.08,2.64-5.41,6.73-5.41a11.1,11.1,0,0,1,4.67.95l-.91,3.55A8.11,8.11,0,0,0,163,30.3c-1.25,0-2,.51-2,1.35s.64,1.18,2.67,1.89c3.15,1.08,4.46,2.67,4.5,5.11,0,3.08-2.43,5.34-7.17,5.34a11.7,11.7,0,0,1-5.34-1.15Z"/>
      </g>
      <g class="cls-1">
        <path d="M99.89,65.33c-.17-3.18-.37-7-.34-9.84h-.1c-.78,2.67-1.72,5.51-2.87,8.66l-4,11.06H90.33L86.64,64.35c-1.08-3.21-2-6.15-2.64-8.86h-.07c-.07,2.84-.24,6.66-.44,10.08l-.61,9.77H80.08l1.59-22.79h3.75l3.89,11c.95,2.81,1.72,5.31,2.3,7.68h.1c.57-2.3,1.39-4.8,2.4-7.68l4.06-11h3.75l1.42,22.79h-2.87Z"/>
        <path d="M109.63,67.69c.07,4,2.64,5.68,5.61,5.68a10.76,10.76,0,0,0,4.53-.85l.51,2.13a13.27,13.27,0,0,1-5.44,1c-5,0-8-3.31-8-8.25s2.91-8.83,7.68-8.83c5.34,0,6.76,4.7,6.76,7.71a11.28,11.28,0,0,1-.1,1.39Zm8.72-2.13c0-1.89-.78-4.83-4.13-4.83-3,0-4.33,2.77-4.56,4.83Z"/>
        <path d="M124.91,63.4c0-1.69,0-3.08-.14-4.43h2.64l.17,2.71h.07a6,6,0,0,1,5.41-3.08c2.27,0,5.78,1.35,5.78,7v9.77h-3V65.9c0-2.64-1-4.84-3.79-4.84a4.23,4.23,0,0,0-4,3,4.28,4.28,0,0,0-.2,1.39v9.84h-3Z"/>
        <path d="M157.37,70.87c0,1.69,0,3.18.13,4.46h-2.64l-.17-2.67h-.07a6.16,6.16,0,0,1-5.41,3c-2.57,0-5.65-1.42-5.65-7.17V59h3V68c0,3.11.95,5.21,3.65,5.21a4.3,4.3,0,0,0,3.92-2.71,4.35,4.35,0,0,0,.27-1.52V59h3Z"/>
      </g>
    </g>
  </g>
</svg>
