<svg id="Layer_4" data-name="Layer 4" xmlns="http://www.w3.org/2000/svg" xmlns:xlink="http://www.w3.org/1999/xlink" width="594" height="240" viewBox="0 0 594 240">
  <defs>
    <style>
      .cls-1 {
        fill: none;
      }

      .cls-2 {
        clip-path: url(#clip-path);
      }

      .cls-3 {
        fill: #fff;
      }

      .cls-4 {
        fill: #fff040;
      }
    </style>
    <clipPath id="clip-path">
      <rect class="cls-1" x="7.92" width="554.08" height="238.45"/>
    </clipPath>
  </defs>
  <title>site-decor-2</title>
  <g class="cls-2">
    <g>
      <path class="cls-3" d="M564.11,60.94c0-87.23-71-158.2-158.2-158.2A158.23,158.23,0,0,0,251.28,27.58H236.43a8.69,8.69,0,0,0-8.69,8.69v3.58c-35.07-2-146.3-8.46-170.28-10.07-16.29-1.09-25.94.94-32.26,6.8-6.68,6.19-7.4,14.76-7.48,23.05,0,.15,0,.31,0,.47v1.7c0,.16,0,.31,0,.47.08,8.29.8,16.86,7.48,23.05,6.32,5.86,16,7.9,32.26,6.8C80,90.6,177.8,84.92,227.74,82v3.58a8.69,8.69,0,0,0,8.69,8.69h14.84A158.23,158.23,0,0,0,405.91,219.14C493.15,219.14,564.11,148.17,564.11,60.94Z"/>
      <g>
        <path d="M56.88,83.44c-28.15,1.89-30.35-6.63-30.47-21.65h0c0-.29,0-.57,0-.85s0-.56,0-.85h0c.12-15,2.32-23.54,30.47-21.65,27.18,1.83,165.51,9.8,184.51,10.9V72.54C222.39,73.64,84.06,81.61,56.88,83.44Zm8.48-27.76a4.89,4.89,0,0,0-6.56-5l-14.45,4.1c-3.61,1-6.56,3.78-6.56,6.12s3,5.1,6.56,6.12l14.45,4.1a4.89,4.89,0,0,0,6.56-5Z"/>
        <rect class="cls-4" x="236.43" y="36.27" width="30.07" height="49.34"/>
        <circle cx="405.91" cy="60.94" r="149.51"/>
        <path class="cls-3" d="M483.72,176.36A147.79,147.79,0,0,1,422,189.78,148.57,148.57,0,0,1,277.43,7.29,139.24,139.24,0,0,0,405.91,200.17,138.5,138.5,0,0,0,483.72,176.36Z"/>
        <circle cx="405.91" cy="60.94" r="101.33"/>
        <circle class="cls-4" cx="405.91" cy="60.94" r="44.76"/>
      </g>
    </g>
  </g>
</svg>
