<svg id="Layer_1" data-name="Layer 1" xmlns="http://www.w3.org/2000/svg" width="116" height="58" viewBox="0 0 116 58">
  <defs>
    <style>
      .cls-1 {
        fill: #202020;
      }
    </style>
  </defs>
  <title>site2-exp-23</title>
  <path class="cls-1" d="M32.84,19.47H36.9v-6H32.13v0c-5.79.21-7,3.46-7.08,6.88h0v3H21.1v5.88H25V45H31V29.24h4.87l.94-5.88H31V21.55A1.94,1.94,0,0,1,32.84,19.47Z"/>
  <g>
    <path class="cls-1" d="M87,20.43a8.8,8.8,0,1,0,8.8,8.8A8.81,8.81,0,0,0,87,20.43Zm0,13.88a5.08,5.08,0,1,1,5.08-5.08A5.09,5.09,0,0,1,87,34.32Z"/>
    <circle class="cls-1" cx="96.08" cy="20.17" r="2.08"/>
    <path class="cls-1" d="M78.53,12.15a8.63,8.63,0,0,0-8.62,8.62V37.7a8.63,8.63,0,0,0,8.62,8.62H95.47a8.63,8.63,0,0,0,8.62-8.62V20.77a8.63,8.63,0,0,0-8.62-8.62Zm21.83,8.62V37.7a4.91,4.91,0,0,1-4.9,4.9H78.53a4.91,4.91,0,0,1-4.9-4.9V20.77a4.91,4.91,0,0,1,4.9-4.9H95.47A4.91,4.91,0,0,1,100.37,20.77Z"/>
  </g>
</svg>
