<svg id="Layer_1" data-name="Layer 1" xmlns="http://www.w3.org/2000/svg" xmlns:xlink="http://www.w3.org/1999/xlink" width="137" height="355" viewBox="0 0 137 355">
  <defs>
    <style>
      .cls-1 {
        fill: none;
      }

      .cls-2 {
        clip-path: url(#clip-path);
      }

      .cls-3 {
        fill: #fff;
      }

      .cls-4 {
        fill: #fff040;
      }
    </style>
    <clipPath id="clip-path">
      <rect class="cls-1" x="0.03" y="-0.5" width="137.21" height="355.16"/>
    </clipPath>
  </defs>
  <title>site2-exp-03</title>
  <g class="cls-2">
    <g>
      <path class="cls-3" d="M38.47,341.15A96.36,96.36,0,0,0,58.79,150.6v-9a5.29,5.29,0,0,0-5.29-5.29H51.31c1.23-21.36,5.15-89.11,6.14-103.72.67-9.92-.57-15.8-4.14-19.65-3.77-4.07-9-4.51-14-4.56h-1.6c-5.05.05-10.27.49-14,4.56-3.57,3.85-4.81,9.73-4.14,19.65.92,13.72,4.38,73.29,6.14,103.72H23.44a5.29,5.29,0,0,0-5.29,5.29v9A96.36,96.36,0,0,0,38.47,341.15Z"/>
      <g>
        <path d="M24.76,32.19C23.61,15,28.8,13.7,37.95,13.63h1c9.15.07,14.34,1.41,13.19,18.56-1.11,16.56-6,100.82-6.64,112.39H31.4C30.73,133,25.87,48.74,24.76,32.19Zm16.91,5.16a3,3,0,0,0,3-4l-2.5-8.8c-.62-2.2-2.3-4-3.73-4s-3.1,1.8-3.73,4l-2.5,8.8a3,3,0,0,0,3,4Z"/>
        <rect class="cls-4" x="23.44" y="141.56" width="30.06" height="18.32"/>
        <circle cx="38.47" cy="244.79" r="91.07"/>
        <path class="cls-3" d="M-31.84,292.18a90.48,90.48,0,0,1,103-125.66A84.82,84.82,0,0,0-46.34,244.79,84.36,84.36,0,0,0-31.84,292.18Z"/>
        <circle cx="38.47" cy="244.79" r="61.72"/>
        <circle class="cls-4" cx="38.47" cy="244.79" r="27.26"/>
      </g>
    </g>
  </g>
</svg>
