<svg id="Layer_4" data-name="Layer 4" xmlns="http://www.w3.org/2000/svg" width="347" height="185" viewBox="0 0 347 185">
  <defs>
    <style>
      .cls-1 {
        fill: #fff040;
      }
    </style>
  </defs>
  <title>site-modern_text</title>
  <g>
    <rect x="2.72" y="2.16" width="258.17" height="51.95" rx="25.97" ry="25.97"/>
    <rect x="2.72" y="65.21" width="337.99" height="51.95" rx="25.97" ry="25.97"/>
    <rect x="2.72" y="128.27" width="227.28" height="51.95" rx="25.97" ry="25.97"/>
    <g>
      <path class="cls-1" d="M19.26,44.48V7.6H41.88v3.93H24.25V22.19h9.09q5.9,0,9.18,3a10.37,10.37,0,0,1,3.28,8,10.7,10.7,0,0,1-3.29,8.14q-3.29,3.12-9.17,3.12Zm5-3.93h9.09a7.05,7.05,0,0,0,5.6-2.14,7.67,7.67,0,0,0,1.87-5.25,7.15,7.15,0,0,0-1.86-5q-1.86-2-5.61-2H24.25Z"/>
      <path class="cls-1" d="M52.24,44.48V17.07h5V27.48H64q4.86,0,7.55,2.33a7.65,7.65,0,0,1,2.69,6.06,7.9,7.9,0,0,1-2.72,6.18Q68.84,44.48,64,44.48Zm5-3.93H64a5.38,5.38,0,0,0,4-1.29,4.37,4.37,0,0,0,1.28-3.21A4.63,4.63,0,0,0,68,32.8a5.15,5.15,0,0,0-4-1.39H57.23Zm21.91,3.93V17.07h5V44.48Z"/>
      <path class="cls-1" d="M91.28,31.31V30.25a15.1,15.1,0,0,1,3.15-9.74,10.74,10.74,0,0,1,8.9-3.94,10.36,10.36,0,0,1,7.52,2.84,9,9,0,0,1,2.83,7l-.05.16h-4.53a6,6,0,0,0-1.64-4.27,5.39,5.39,0,0,0-4.12-1.76A5.78,5.78,0,0,0,98,23.34a13.29,13.29,0,0,0-1.69,6.89V31.3a13.54,13.54,0,0,0,1.66,7,5.77,5.77,0,0,0,5.39,2.83,5.9,5.9,0,0,0,4-1.52,4.81,4.81,0,0,0,1.73-3.74h4.51l.08.13a7.89,7.89,0,0,1-3,6.31,10.75,10.75,0,0,1-7.3,2.75q-5.77,0-8.91-3.93A15.16,15.16,0,0,1,91.28,31.31Z"/>
      <path class="cls-1" d="M117.78,21V17.07h23V21h-9V44.48h-5V21Z"/>
      <path class="cls-1" d="M146.15,55V17.07H150l.79,3.55a9,9,0,0,1,3.34-3,10,10,0,0,1,4.66-1,9.11,9.11,0,0,1,7.92,4q2.82,4,2.82,10.68v.53q0,5.93-2.84,9.56A9.38,9.38,0,0,1,158.84,45a10.81,10.81,0,0,1-4.45-.85,8.5,8.5,0,0,1-3.25-2.56V55Zm5-17.53a7.08,7.08,0,0,0,2.46,2.64,6.9,6.9,0,0,0,3.72.95,6.15,6.15,0,0,0,5.37-2.59,11.38,11.38,0,0,0,1.82-6.69v-.53a14.45,14.45,0,0,0-1.84-7.65,6,6,0,0,0-5.41-3,6.67,6.67,0,0,0-3.67,1,7.29,7.29,0,0,0-2.46,2.67Z"/>
      <path class="cls-1" d="M174.47,31.08v-.56a15.09,15.09,0,0,1,3.29-10,12.2,12.2,0,0,1,17.95,0,15,15,0,0,1,3.31,10v.56a15,15,0,0,1-3.29,10,12.26,12.26,0,0,1-17.95,0A15,15,0,0,1,174.47,31.08Zm5,0a13,13,0,0,0,1.84,7.19,6.64,6.64,0,0,0,10.88,0A12.91,12.91,0,0,0,194,31.07v-.56a12.87,12.87,0,0,0-1.86-7.16,6.11,6.11,0,0,0-5.46-2.86,6,6,0,0,0-5.41,2.86,13,13,0,0,0-1.84,7.16Z"/>
      <path class="cls-1" d="M204,31.31V30.2a14.22,14.22,0,0,1,3.41-9.77,10.68,10.68,0,0,1,8.32-3.86q5.5,0,8.25,3.42t2.75,9.09v2.63H209.15l-.08.13a11.28,11.28,0,0,0,1.82,6.68,6.38,6.38,0,0,0,5.57,2.56,12.59,12.59,0,0,0,4.45-.72,9.93,9.93,0,0,0,3.28-2l2,3.24A12,12,0,0,1,222.27,44a15.35,15.35,0,0,1-5.8,1q-5.9,0-9.21-3.77T204,31.31Zm5.32-3.65.05.13h12.36v-.41a8,8,0,0,0-1.47-4.94,5.31,5.31,0,0,0-4.53-2,5.42,5.42,0,0,0-4.32,2A9.53,9.53,0,0,0,209.27,27.66Z"/>
      <path class="cls-1" d="M229.87,51l1.77-8V38.88h5v4.38L232.83,51Z"/>
      <path class="cls-1" d="M17.59,93.34v-.56a15.09,15.09,0,0,1,3.29-10,11,11,0,0,1,8.94-3.94,11.15,11.15,0,0,1,9,3.93,15,15,0,0,1,3.31,10v.56a15,15,0,0,1-3.29,10,11.12,11.12,0,0,1-9,3.9,11.14,11.14,0,0,1-9-3.91A15,15,0,0,1,17.59,93.34Zm5,0a13,13,0,0,0,1.84,7.19,6.08,6.08,0,0,0,5.46,2.83,6.07,6.07,0,0,0,5.42-2.83,12.91,12.91,0,0,0,1.85-7.19v-.56a12.87,12.87,0,0,0-1.86-7.16,6.11,6.11,0,0,0-5.46-2.86,6,6,0,0,0-5.41,2.86,13,13,0,0,0-1.84,7.16Z"/>
      <path class="cls-1" d="M45.86,83.25V79.33h23v3.93h-9v23.48h-5V83.25Z"/>
      <path class="cls-1" d="M73.29,98.74l.05-.1h4.79A4,4,0,0,0,80,101.9a7.5,7.5,0,0,0,4.68,1.39,7.91,7.91,0,0,0,4.7-1.25A3.69,3.69,0,0,0,91.08,99a3.52,3.52,0,0,0-1.54-3.17,8.48,8.48,0,0,0-4.61-1H79.65V90.73h5.27a7.36,7.36,0,0,0,4.29-1,3.32,3.32,0,0,0,1.38-2.86A3.55,3.55,0,0,0,89.07,84a7.1,7.1,0,0,0-4.44-1.19A7.36,7.36,0,0,0,80.31,84a3.55,3.55,0,0,0-1.74,3H74l-.05-.11a6.42,6.42,0,0,1,3-5.76,13,13,0,0,1,7.73-2.23,13.69,13.69,0,0,1,8,2.07,6.8,6.8,0,0,1,2.95,5.92,5.28,5.28,0,0,1-1.23,3.37A8.18,8.18,0,0,1,91,92.65a8,8,0,0,1,3.79,2.41A5.93,5.93,0,0,1,96.07,99,7,7,0,0,1,92.89,105a14.2,14.2,0,0,1-8.26,2.2,14.66,14.66,0,0,1-8.1-2.18A6.72,6.72,0,0,1,73.29,98.74Z"/>
      <path class="cls-1" d="M102.93,106.74V79.33h5V89.74h6.8q4.86,0,7.55,2.33A7.65,7.65,0,0,1,125,98.14a7.9,7.9,0,0,1-2.72,6.18q-2.72,2.42-7.53,2.42Zm5-3.93h6.81a5.38,5.38,0,0,0,4-1.29A4.37,4.37,0,0,0,120,98.31a4.63,4.63,0,0,0-1.29-3.26,5.15,5.15,0,0,0-4-1.39h-6.81Zm21.91,3.93V79.33h5v27.41Z"/>
      <path class="cls-1" d="M143.16,106.74V79.33H154q5.42,0,8.41,1.88a6.23,6.23,0,0,1,3,5.65,5.41,5.41,0,0,1-1.17,3.41,7.17,7.17,0,0,1-3.29,2.28,7.21,7.21,0,0,1,4,2.38,6.1,6.1,0,0,1,1.42,4,6.72,6.72,0,0,1-2.8,5.86q-2.8,2-7.81,2Zm5-15.93H154a9.84,9.84,0,0,0,4.77-.92,3,3,0,0,0,1.61-2.78,3.15,3.15,0,0,0-1.62-2.88,9.49,9.49,0,0,0-4.79-1h-5.83Zm0,12h7.57a7,7,0,0,0,4.18-1,3.87,3.87,0,0,0,0-6,7,7,0,0,0-4.18-1.05h-7.57Z"/>
      <path class="cls-1" d="M172.21,87.35v-8h5v8.06a7,7,0,0,0,1.42,4.84,5.43,5.43,0,0,0,4.21,1.55,25.78,25.78,0,0,0,3.19-.19,24.56,24.56,0,0,0,3-.57V79.33h5v27.41h-5V96.91a22.86,22.86,0,0,1-3,.57,26.41,26.41,0,0,1-3.24.19q-5,0-7.79-2.61T172.21,87.35Z"/>
      <path class="cls-1" d="M201.27,106.74V79.33h5V98.78l.15.05,12.08-19.51h5v27.41h-5V87.28l-.15-.05-12.08,19.51Z"/>
      <path class="cls-1" d="M230.78,106.74V79.33H241.6q5.42,0,8.41,1.88a6.23,6.23,0,0,1,3,5.65,5.41,5.41,0,0,1-1.17,3.41,7.17,7.17,0,0,1-3.29,2.28,7.21,7.21,0,0,1,4,2.38,6.1,6.1,0,0,1,1.42,4,6.72,6.72,0,0,1-2.8,5.86q-2.8,2-7.81,2Zm5-15.93h5.85a9.84,9.84,0,0,0,4.77-.92A3,3,0,0,0,248,87.1a3.15,3.15,0,0,0-1.62-2.88,9.49,9.49,0,0,0-4.79-1h-5.83Zm0,12h7.57a7,7,0,0,0,4.18-1,3.87,3.87,0,0,0,0-6,7,7,0,0,0-4.18-1.05h-7.57Z"/>
      <path class="cls-1" d="M259.08,93.34v-.56a15.09,15.09,0,0,1,3.29-10,12.2,12.2,0,0,1,17.95,0,15,15,0,0,1,3.31,10v.56a15,15,0,0,1-3.29,10,12.26,12.26,0,0,1-17.95,0A15,15,0,0,1,259.08,93.34Zm5,0a13,13,0,0,0,1.84,7.19,6.64,6.64,0,0,0,10.88,0,12.91,12.91,0,0,0,1.85-7.19v-.56a12.87,12.87,0,0,0-1.86-7.16,6.11,6.11,0,0,0-5.46-2.86,6,6,0,0,0-5.41,2.86,13,13,0,0,0-1.84,7.16Z"/>
      <path class="cls-1" d="M288.56,93.56V92.45A14.22,14.22,0,0,1,292,82.68a10.68,10.68,0,0,1,8.32-3.86q5.5,0,8.25,3.42t2.75,9.09V94H293.75l-.08.13a11.28,11.28,0,0,0,1.82,6.68,6.38,6.38,0,0,0,5.57,2.56,12.59,12.59,0,0,0,4.45-.72,9.93,9.93,0,0,0,3.28-2l2,3.24a12,12,0,0,1-3.88,2.41,15.35,15.35,0,0,1-5.8,1q-5.9,0-9.21-3.77T288.56,93.56Zm5.32-3.65.05.13h12.36v-.41a8,8,0,0,0-1.47-4.94,5.31,5.31,0,0,0-4.53-2,5.42,5.42,0,0,0-4.32,2A9.53,9.53,0,0,0,293.88,89.92Z"/>
      <path class="cls-1" d="M314.48,113.27l1.77-8v-4.13h5v4.38l-3.8,7.75Z"/>
      <path class="cls-1" d="M15.79,141.58h5.57l5.78,17.26.89,3.45h.15l6.74-20.71h5.55L28.94,173.2A14.23,14.23,0,0,1,26,178a6.85,6.85,0,0,1-5.23,2.05,11,11,0,0,1-1.54-.14q-.94-.14-1.44-.26l.51-3.9a6.64,6.64,0,0,1,.9.05q1.05.08,1.33.08a3.08,3.08,0,0,0,2.61-1.42,14.76,14.76,0,0,0,1.7-3.14L26,168.45Z"/>
      <path class="cls-1" d="M41.55,165.07h2.68q2,0,2.87-3.25a52.16,52.16,0,0,0,1.3-9.92l.66-10.31H67.27v23.48h3.62v13h-5v-9H46.54v9h-5Zm9.5,0H62.28v-19.3H53.73l-.59,6-.81,8.1A16.25,16.25,0,0,1,51.05,165.07Z"/>
      <path class="cls-1" d="M75.12,155.59V155a15.09,15.09,0,0,1,3.29-10,11,11,0,0,1,8.94-3.94,11.15,11.15,0,0,1,9,3.93,15,15,0,0,1,3.31,10v.56a15,15,0,0,1-3.29,10,11.12,11.12,0,0,1-9,3.9,11.14,11.14,0,0,1-9-3.91A15,15,0,0,1,75.12,155.59Zm5,0a13,13,0,0,0,1.84,7.19,6.64,6.64,0,0,0,10.88,0,12.91,12.91,0,0,0,1.85-7.19V155a12.87,12.87,0,0,0-1.86-7.16A6.11,6.11,0,0,0,87.35,145a6,6,0,0,0-5.41,2.86A13,13,0,0,0,80.11,155Z"/>
      <path class="cls-1" d="M104.6,155.58v-.9a2.23,2.23,0,0,1,0-.32v-5.95q0-7.8,3.13-11.48t9.2-4a19.26,19.26,0,0,0,5.41-.87,2.47,2.47,0,0,0,1.9-2.39h3.68l0,.15q.13,4-2.62,5.61t-8,1.71a9.25,9.25,0,0,0-6.13,2.13q-2.27,2-2.19,6l.06.13a11.37,11.37,0,0,1,3.78-3.1,10.46,10.46,0,0,1,4.91-1.2,9.93,9.93,0,0,1,8.29,3.93,15.9,15.9,0,0,1,3,10v.56a15,15,0,0,1-3.3,10,12.26,12.26,0,0,1-17.95,0A15,15,0,0,1,104.6,155.58Zm5,0a13,13,0,0,0,1.83,7.19,6.64,6.64,0,0,0,10.89,0,12.89,12.89,0,0,0,1.85-7.19V155a12.85,12.85,0,0,0-1.87-7.16,6.12,6.12,0,0,0-5.47-2.86,6,6,0,0,0-5.41,2.86,13.05,13.05,0,0,0-1.83,7.16Z"/>
      <path class="cls-1" d="M134,169V141.58h5v11.85h12.21V141.58h5V169h-5V157.36H139V169Z"/>
      <path class="cls-1" d="M162.36,155.59V155a15.09,15.09,0,0,1,3.29-10,12.2,12.2,0,0,1,17.95,0,15,15,0,0,1,3.31,10v.56a15,15,0,0,1-3.29,10,12.26,12.26,0,0,1-17.95,0A15,15,0,0,1,162.36,155.59Zm5,0a13,13,0,0,0,1.84,7.19,6.64,6.64,0,0,0,10.88,0,12.91,12.91,0,0,0,1.85-7.19V155a12.87,12.87,0,0,0-1.86-7.16,6.11,6.11,0,0,0-5.46-2.86,6,6,0,0,0-5.41,2.86,13,13,0,0,0-1.84,7.16Z"/>
      <path class="cls-1" d="M191.85,155.82V154.7a14.22,14.22,0,0,1,3.41-9.77,10.68,10.68,0,0,1,8.32-3.86q5.5,0,8.25,3.42t2.75,9.09v2.63H197l-.08.13a11.28,11.28,0,0,0,1.82,6.68,6.38,6.38,0,0,0,5.57,2.56,12.59,12.59,0,0,0,4.45-.72,9.93,9.93,0,0,0,3.28-2l2,3.24a12,12,0,0,1-3.88,2.41,15.35,15.35,0,0,1-5.8,1q-5.9,0-9.21-3.77T191.85,155.82Zm5.32-3.65.05.13h12.36v-.41a8,8,0,0,0-1.47-4.94,5.31,5.31,0,0,0-4.53-2,5.42,5.42,0,0,0-4.32,2A9.53,9.53,0,0,0,197.17,152.17Z"/>
    </g>
  </g>
</svg>
