<svg id="Layer_1" data-name="Layer 1" xmlns="http://www.w3.org/2000/svg" width="200" height="100" viewBox="0 0 200 100">
  <defs>
    <style>
      .cls-1 {
        fill: none;
        stroke: #0f0f0f;
        stroke-linejoin: round;
        stroke-width: 4.43px;
      }

      .cls-2 {
        fill: #fff;
        stroke: #000;
        stroke-miterlimit: 10;
        stroke-width: 3px;
      }
    </style>
  </defs>
  <title>site2-exp-21</title>
  <polyline class="cls-1" points="138.89 89.25 178.15 49.99 139.27 11.12"/>
  <path d="M69.89,50.38h2.29a8.37,8.37,0,0,0,0-16.74H30V47a20.08,20.08,0,0,0,9,16.74H23.52v3.35H27a8.38,8.38,0,0,0,8.2,6.69H65.28a8.38,8.38,0,0,0,8.2-6.69h3.43V63.77H61.18A20.12,20.12,0,0,0,69.89,50.38ZM72.18,37a5,5,0,0,1,0,10h-2V37ZM70,67.12a5,5,0,0,1-4.73,3.35H35.15a5,5,0,0,1-4.73-3.35ZM50.09,63.77A16.76,16.76,0,0,1,33.35,47V37H66.83V47A16.76,16.76,0,0,1,50.09,63.77Z"/>
  <g>
    <path class="cls-2" d="M41.47,14.23c1.83.9,2.82,4.6,1.71,6s-2.86,2.51-3.72,4a2.64,2.64,0,0,0,1.89,4"/>
    <path class="cls-2" d="M50.21,14.23c1.83.9,2.82,4.6,1.71,6s-2.86,2.51-3.72,4a2.64,2.64,0,0,0,1.89,4"/>
    <path class="cls-2" d="M59,14.23c1.83.9,2.82,4.6,1.71,6s-2.86,2.51-3.72,4a2.64,2.64,0,0,0,1.89,4"/>
  </g>
</svg>
