<svg id="Layer_4" data-name="Layer 4" xmlns="http://www.w3.org/2000/svg" width="98" height="120" viewBox="0 0 98 120">
  <title>site-other-features-ovals</title>
  <g>
    <path d="M74.53,115.32A20.7,20.7,0,0,1,53.85,94.64V22.79a20.68,20.68,0,1,1,41.36,0V94.64A20.7,20.7,0,0,1,74.53,115.32Zm0-104.8A12.29,12.29,0,0,0,62.26,22.79V94.64a12.28,12.28,0,0,0,24.55,0V22.79A12.29,12.29,0,0,0,74.53,10.52Z"/>
    <path d="M27.91,115.32A20.7,20.7,0,0,1,7.23,94.64V22.79a20.68,20.68,0,1,1,41.36,0V94.64A20.7,20.7,0,0,1,27.91,115.32Zm0-104.8A12.29,12.29,0,0,0,15.64,22.79V94.64a12.28,12.28,0,0,0,24.55,0V22.79A12.29,12.29,0,0,0,27.91,10.52Z"/>
  </g>
</svg>
