<svg id="Group_2099" data-name="Group 2099" xmlns="http://www.w3.org/2000/svg" viewBox="-6652 -762 26 26">
  <defs>
    <style>
      .cls-1 {
        fill: none;
      }

      .cls-2 {
        fill: #fff040;
      }
    </style>
  </defs>
  <rect id="Rectangle_713" data-name="Rectangle 713" class="cls-1" width="26" height="26" transform="translate(-6652 -762)"/>
  <g id="Group_2098" data-name="Group 2098" transform="translate(-482 -28.298)">
    <path id="Path_2503" data-name="Path 2503" class="cls-2" d="M25.476,17.7,16.369,1.929a3.875,3.875,0,0,0-6.731,0L.525,17.7a3.893,3.893,0,0,0,3.366,5.843H22.078A3.913,3.913,0,0,0,25.476,17.7Z" transform="translate(-6170 -732.677)"/>
    <g id="Group_2097" data-name="Group 2097" transform="translate(-6158.49 -725.781)">
      <path id="Path_2504" data-name="Path 2504" d="M217.25,320.9a1.45,1.45,0,0,0,0,2.9,1.45,1.45,0,0,0,0-2.9Z" transform="translate(-215.763 -310.648)"/>
      <path id="Path_2505" data-name="Path 2505" d="M215.5,137.539a1.068,1.068,0,0,0,1.092,1.022,1.092,1.092,0,0,0,1.092-1.054c0-.359,0-.69.032-1.054.064-1.124.134-2.242.2-3.366.032-.722.1-1.45.134-2.183a1.729,1.729,0,0,0-.134-.728,1.455,1.455,0,0,0-1.686-.824,1.575,1.575,0,0,0-1.124,1.584c.037.46.07.926.1,1.386C215.3,134.071,215.4,135.789,215.5,137.539Z" transform="translate(-215.1 -129.309)"/>
    </g>
  </g>
</svg>
