<svg id="Layer_1" data-name="Layer 1" xmlns="http://www.w3.org/2000/svg" width="66" height="95" viewBox="0 0 66 95">
  <title>site2-exp-18</title>
  <g>
    <path d="M41.17,62.61a22,22,0,0,1-7.81-4.39l-1.08-.9-1.08.84A31.72,31.72,0,0,1,22.12,63a43.08,43.08,0,0,1-9.92,1.32v3.49a45,45,0,0,0,10.94-1.5,33,33,0,0,0,9.07-4.63A25.05,25.05,0,0,0,40,65.86c4.63,1.68,10.34,1.92,12.56,2l.06-3.49A34.31,34.31,0,0,1,41.17,62.61Z"/>
    <rect x="28.97" y="73.37" width="6.61" height="3.49"/>
    <path d="M27.17,53.54a5.65,5.65,0,1,0-5.65-5.65A5.64,5.64,0,0,0,27.17,53.54Zm0-8.17a2.52,2.52,0,1,1-2.52,2.52A2.46,2.46,0,0,1,27.17,45.37Z"/>
    <path d="M39.55,53.54a5.65,5.65,0,1,0-5.65-5.65A5.64,5.64,0,0,0,39.55,53.54Zm0-8.17A2.52,2.52,0,1,1,37,47.89,2.54,2.54,0,0,1,39.55,45.37Z"/>
    <path d="M50.49,37.49v-7A10.76,10.76,0,0,0,48,9.25a12.66,12.66,0,0,0-5.53,1.2A11,11,0,0,0,32.22,3.78H32.1a9.93,9.93,0,0,0-7.51,3.43,12.35,12.35,0,0,0-2.28,3.49A11.05,11.05,0,0,0,17,9.19a10.74,10.74,0,0,0-1.44,21.39v7a29.62,29.62,0,1,0,34.92-.06ZM9.8,19.89a7.26,7.26,0,0,1,7.27-7.27,8.55,8.55,0,0,1,5,2l2.1,1.74.72-2.64c.18-.66,1.86-6.49,7.27-6.55h.06a7.91,7.91,0,0,1,7.63,6.31l.66,2.88,2.16-2A7.8,7.8,0,0,1,48,12.73a7.29,7.29,0,0,1,.66,14.54L47,27.4v9.31H19.12v-9.5H17.37A7.45,7.45,0,0,1,9.8,19.89ZM33.06,87.67A26.13,26.13,0,0,1,18,40.2H48.2A26.13,26.13,0,0,1,33.06,87.67Z"/>
  </g>
</svg>
