<svg id="Layer_4" data-name="Layer 4" xmlns="http://www.w3.org/2000/svg" xmlns:xlink="http://www.w3.org/1999/xlink" width="154" height="367" viewBox="0 0 154 367">
  <defs>
    <style>
      .cls-1 {
        fill: none;
      }

      .cls-2 {
        clip-path: url(#clip-path);
      }

      .cls-3 {
        fill: #fff;
      }

      .cls-4 {
        fill: #fff040;
      }
    </style>
    <clipPath id="clip-path">
      <rect class="cls-1" y="12" width="143.81" height="351"/>
    </clipPath>
  </defs>
  <title>site-decor-1</title>
  <g class="cls-2">
    <g>
      <path class="cls-3" d="M40.29,360a101,101,0,0,0,21.3-199.73v-9.48A5.55,5.55,0,0,0,56,145.27H53.76c1.29-22.39,5.4-93.4,6.43-108.71.7-10.4-.6-16.56-4.34-20.6-4-4.26-9.42-4.72-14.72-4.78H39.45c-5.29.05-10.76.51-14.72,4.78-3.74,4-5,10.19-4.34,20.6,1,14.38,4.59,76.82,6.43,108.71H24.54A5.55,5.55,0,0,0,19,150.81v9.48A101,101,0,0,0,40.29,360Z"/>
      <g>
        <path d="M25.92,36.18c-1.21-18,4.23-19.38,13.82-19.45h1.09c9.59.08,15,1.48,13.82,19.45-1.17,17.35-6.26,105.67-7,117.8H32.88C32.18,141.85,27.09,53.54,25.92,36.18ZM43.64,41.6a3.12,3.12,0,0,0,3.17-4.19l-2.62-9.22C43.54,25.88,41.78,24,40.29,24S37,25.88,36.38,28.18l-2.62,9.22a3.12,3.12,0,0,0,3.17,4.19Z"/>
        <rect class="cls-4" x="24.54" y="150.81" width="31.5" height="19.2"/>
        <circle cx="40.29" cy="259.02" r="95.45"/>
        <path class="cls-3" d="M-33.4,308.69A94.84,94.84,0,0,1,74.54,177,88.9,88.9,0,0,0-48.6,259,88.42,88.42,0,0,0-33.4,308.69Z"/>
        <circle cx="40.29" cy="259.02" r="64.69"/>
        <circle class="cls-4" cx="40.29" cy="259.02" r="28.58"/>
      </g>
    </g>
  </g>
</svg>
